{"glyphs":{"0":{"ha":694,"x_min":54,"x_max":639,"o":"m 639 444 q 628 272 639 347 q 587 131 618 197 q 535 50 566 83 q 471 0 505 17 q 407 -23 437 -16 q 346 -31 377 -31 q 289 -24 318 -31 q 229 -3 260 -18 q 168 41 197 12 q 117 110 138 70 q 66 262 79 181 q 54 444 54 344 q 65 618 54 543 q 106 760 75 694 q 176 859 133 821 q 260 911 218 898 q 347 925 301 925 q 400 919 373 925 q 462 898 428 913 q 529 850 496 883 q 583 770 561 817 q 628 622 616 699 q 639 444 639 544 m 524 461 q 510 732 524 654 q 480 815 500 781 q 435 865 460 849 q 388 888 410 882 q 346 895 366 895 q 317 892 332 895 q 280 879 303 890 q 240 851 258 869 q 205 799 222 833 q 180 717 188 764 q 170 461 170 642 q 184 168 170 248 q 212 86 193 121 q 255 34 231 52 q 301 8 278 16 q 346 0 323 0 q 395 9 371 0 q 443 37 419 18 q 484 91 466 56 q 509 174 501 126 q 519 269 516 215 q 523 355 523 323 q 524 461 524 387 z "},"1":{"ha":694,"x_min":123,"x_max":582,"o":"m 582 0 q 357 4 533 4 q 132 0 181 4 l 132 43 l 176 43 q 266 50 238 43 q 300 69 294 57 q 306 110 306 81 l 306 829 q 123 793 233 793 l 123 836 q 376 925 290 836 q 404 920 399 925 q 408 889 408 915 l 408 110 q 415 68 408 81 q 449 50 421 56 q 538 43 476 43 l 582 43 l 582 0 z "},"2":{"ha":694,"x_min":69,"x_max":624,"o":"m 624 241 l 585 0 l 69 0 q 71 33 69 26 q 85 52 73 40 l 351 349 q 497 656 497 513 q 478 765 497 715 q 415 848 458 815 q 311 882 372 882 q 198 844 250 882 q 123 741 147 807 q 142 742 127 742 q 196 720 176 742 q 215 669 215 699 q 191 614 215 631 q 143 596 168 596 q 133 596 138 596 q 116 601 128 597 q 94 612 103 605 q 77 636 85 620 q 69 673 69 652 q 101 793 69 736 q 193 888 132 850 q 329 925 254 925 q 540 849 456 925 q 624 656 624 774 q 622 616 624 635 q 613 578 620 597 q 601 544 606 559 q 580 508 595 528 q 555 473 565 487 q 522 435 546 460 q 484 397 498 411 q 437 352 470 382 q 385 305 405 322 q 323 250 366 288 l 176 107 l 427 107 q 558 118 549 107 q 589 241 572 140 l 624 241 z "},"3":{"ha":694,"x_min":58,"x_max":635,"o":"m 635 237 q 549 49 635 129 q 339 -31 464 -31 q 141 32 224 -31 q 58 187 58 94 q 82 248 58 229 q 136 268 106 268 q 191 247 168 268 q 214 191 214 227 q 186 130 214 152 q 122 114 159 109 q 186 51 144 76 q 264 17 227 25 q 335 8 300 8 q 375 14 355 8 q 416 35 395 19 q 454 75 438 50 q 481 141 471 99 q 492 237 492 183 q 450 406 492 344 q 326 468 409 468 l 265 468 q 245 469 251 468 q 236 473 240 469 q 232 484 232 476 q 235 493 232 490 q 242 498 239 497 q 253 500 246 499 q 307 504 275 500 q 336 507 324 505 q 366 515 348 509 q 399 537 383 522 q 431 576 416 553 q 469 734 469 642 q 457 811 469 779 q 424 860 444 843 q 381 883 403 876 q 336 890 360 890 q 234 870 288 890 q 151 804 180 850 q 237 734 237 804 q 218 684 237 704 q 167 664 199 664 q 116 683 136 664 q 96 736 96 702 q 166 870 96 816 q 342 925 237 925 q 467 901 409 925 q 561 833 525 878 q 597 733 597 788 q 543 585 597 652 q 403 489 489 517 q 572 397 509 468 q 635 237 635 326 z "},"4":{"ha":694,"x_min":39,"x_max":654,"o":"m 654 229 l 515 229 l 515 109 q 516 86 515 94 q 520 70 517 79 q 529 57 523 60 q 548 49 536 53 q 577 44 559 45 q 621 43 595 43 l 650 43 l 650 0 q 461 4 593 4 q 273 0 330 4 l 273 43 l 302 43 q 376 50 353 43 q 404 68 399 56 q 408 109 408 79 l 408 229 l 39 229 l 39 272 l 465 924 q 475 936 471 932 q 483 940 479 939 q 493 940 486 940 q 512 933 509 940 q 515 904 515 927 l 515 272 l 654 272 l 654 229 m 416 272 l 416 790 l 78 272 l 416 272 z "},"5":{"ha":694,"x_min":69,"x_max":624,"o":"m 624 279 q 534 59 624 149 q 321 -31 444 -31 q 216 -8 264 -31 q 137 52 168 15 q 87 134 105 89 q 69 224 69 178 q 77 262 69 246 q 96 284 84 277 q 118 294 109 292 q 138 297 128 297 q 189 277 170 297 q 207 229 207 256 q 189 182 207 202 q 138 161 170 161 q 114 164 122 161 q 189 54 133 99 q 318 8 245 8 q 402 32 364 8 q 467 98 441 56 q 500 289 500 157 q 495 389 500 349 q 475 464 490 429 q 461 489 469 476 q 439 517 453 501 q 404 543 425 533 q 357 553 382 553 q 178 456 245 553 q 173 448 174 450 q 168 445 171 446 q 160 443 165 443 q 143 450 146 443 q 140 479 140 458 l 140 890 q 141 909 140 904 q 144 919 141 915 q 154 924 147 924 q 171 920 160 924 q 355 880 258 880 q 545 921 452 880 l 555 925 q 570 909 570 925 q 558 887 570 903 q 524 850 547 871 q 470 810 500 829 q 394 778 439 791 q 301 765 349 765 q 183 783 245 765 l 183 513 q 359 583 256 583 q 547 494 471 583 q 624 279 624 405 z "},"6":{"ha":694,"x_min":58,"x_max":635,"o":"m 635 283 q 612 157 635 216 q 550 58 589 98 q 458 -7 511 17 q 349 -31 406 -31 q 269 -18 307 -31 q 191 28 230 -5 q 123 113 152 62 q 76 248 94 164 q 58 439 58 332 q 90 644 58 550 q 174 798 122 737 q 292 891 227 858 q 424 925 357 925 q 554 883 507 925 q 600 775 600 840 q 580 724 600 739 q 536 708 559 708 q 492 725 511 708 q 472 772 472 743 q 549 835 472 835 q 427 890 513 890 q 391 887 410 890 q 348 872 372 883 q 301 843 323 861 q 257 794 279 825 q 219 722 235 763 q 193 622 203 682 q 183 489 183 562 l 183 456 q 357 593 241 593 q 554 504 473 593 q 635 283 635 415 m 510 285 q 509 355 510 330 q 503 415 509 380 q 485 475 496 451 q 355 561 442 561 q 290 546 319 561 q 241 506 260 530 q 210 448 222 481 q 191 381 197 415 q 186 314 186 348 q 211 113 186 178 q 224 87 216 101 q 250 53 233 73 q 292 21 266 34 q 349 8 318 8 q 486 98 441 8 q 503 156 497 121 q 509 216 509 191 q 510 285 510 240 z "},"7":{"ha":694,"x_min":78,"x_max":673,"o":"m 673 895 q 672 865 673 872 q 661 846 670 858 l 473 582 q 387 345 413 497 q 372 117 372 241 l 372 46 q 309 -31 372 -31 q 277 -23 290 -31 q 258 -8 264 -16 q 249 14 252 1 q 244 33 245 26 q 244 46 244 39 q 286 300 244 163 q 415 568 327 437 l 571 787 l 283 787 q 147 779 157 787 q 137 763 142 774 q 128 733 132 751 q 121 703 124 715 q 115 672 119 691 l 113 653 l 78 653 l 123 939 l 158 939 q 165 920 161 926 q 185 907 169 914 q 238 897 201 900 q 336 895 275 895 l 673 895 z "},"8":{"ha":694,"x_min":58,"x_max":635,"o":"m 635 233 q 550 46 635 123 q 346 -31 465 -31 q 207 -2 272 -31 q 100 83 142 27 q 58 210 58 139 q 258 465 58 366 q 157 541 170 526 q 96 693 96 608 q 169 857 96 789 q 347 925 243 925 q 522 867 447 925 q 597 718 597 810 q 553 598 597 652 q 429 503 508 543 q 526 440 503 456 q 567 404 549 425 q 635 233 635 330 m 536 718 q 480 841 536 791 q 346 890 424 890 q 213 850 270 890 q 157 747 157 809 q 227 635 157 680 l 399 524 q 536 718 536 604 m 566 183 q 557 230 566 208 q 541 266 549 252 q 514 296 532 279 q 488 318 496 313 q 461 336 480 323 l 290 444 q 167 336 206 398 q 127 210 127 275 q 192 66 127 124 q 347 8 256 8 q 500 58 435 8 q 566 183 566 108 z "},"9":{"ha":694,"x_min":58,"x_max":635,"o":"m 635 457 q 606 256 635 349 q 528 101 576 163 q 416 4 479 39 q 286 -31 353 -31 q 145 10 197 -31 q 93 119 93 50 q 113 171 93 155 q 157 186 134 186 q 201 169 182 186 q 221 122 221 152 q 205 78 221 98 q 149 58 189 58 q 285 8 188 8 q 339 17 312 8 q 399 52 367 26 q 454 120 431 79 q 494 233 478 161 q 510 397 510 304 l 510 441 q 441 340 485 377 q 336 302 397 302 q 139 392 220 302 q 58 612 58 482 q 80 737 58 686 q 147 838 101 787 q 351 925 231 925 q 429 913 391 925 q 504 868 466 901 q 571 784 543 835 q 617 649 599 733 q 635 457 635 565 m 507 585 q 485 781 507 722 q 432 860 466 830 q 351 890 397 890 q 212 803 260 890 q 192 745 199 779 q 184 685 185 711 q 183 611 183 660 q 184 541 183 566 q 191 481 184 517 q 208 422 197 446 q 338 335 251 335 q 415 357 382 335 q 469 417 449 380 q 498 496 488 454 q 507 585 507 539 z "}," ":{"ha":462,"x_min":0,"x_max":0,"o":""},"!":{"ha":386,"x_min":119,"x_max":267,"o":"m 267 924 l 212 290 q 207 266 211 273 q 193 260 203 260 q 181 264 185 260 q 176 274 177 268 q 174 292 174 279 l 119 924 q 142 975 119 956 q 193 994 164 994 q 244 975 222 994 q 267 924 267 956 m 245 125 q 256 115 245 125 q 267 74 267 104 q 245 22 267 44 q 193 0 223 0 q 141 22 163 0 q 119 74 119 44 q 141 125 119 104 q 193 147 163 147 q 245 125 223 147 z "},"\"":{"ha":519,"x_min":142,"x_max":377,"o":"m 241 930 l 211 587 l 175 587 l 144 930 q 157 965 142 951 q 193 979 172 979 q 229 965 214 979 q 241 930 243 951 m 375 930 l 345 587 l 309 587 l 278 930 q 291 965 276 951 q 326 979 305 979 q 362 965 347 979 q 375 930 377 951 z "},"#":{"ha":1156,"x_min":78,"x_max":1078,"o":"m 1078 212 q 1069 193 1078 199 q 1054 185 1061 186 q 1032 184 1046 184 l 721 184 l 608 -236 q 604 -252 606 -247 q 595 -263 602 -258 q 578 -269 588 -269 q 558 -261 566 -269 q 550 -241 550 -253 q 555 -216 550 -227 l 664 184 l 403 184 l 290 -236 q 286 -252 288 -247 q 277 -263 283 -258 q 260 -269 270 -269 q 240 -261 248 -269 q 232 -241 232 -253 q 237 -216 232 -227 l 346 184 l 123 184 q 111 185 115 184 q 99 186 106 185 q 88 191 92 188 q 81 199 84 193 q 78 212 78 204 q 81 226 78 220 q 88 234 84 231 q 100 238 92 237 q 112 240 107 239 q 125 240 116 240 l 363 240 l 418 454 l 125 454 q 112 455 116 454 q 100 456 107 455 q 88 460 92 458 q 81 469 84 463 q 78 482 78 474 q 86 502 78 495 q 102 509 94 508 q 123 510 110 510 l 435 510 l 547 930 q 552 947 550 941 q 561 958 554 952 q 578 964 568 964 q 597 956 589 964 q 606 936 606 947 q 600 911 606 922 l 492 510 l 753 510 l 865 930 q 870 947 868 941 q 879 958 872 952 q 896 964 886 964 q 916 956 907 964 q 924 936 924 947 q 918 911 924 922 l 810 510 l 1032 510 q 1045 510 1040 510 q 1056 508 1049 509 q 1067 504 1063 507 q 1075 496 1072 501 q 1078 482 1078 490 q 1075 469 1078 474 q 1067 460 1072 463 q 1056 456 1063 458 q 1044 455 1048 455 q 1031 454 1040 454 l 793 454 l 737 240 l 1031 240 q 1044 240 1040 240 q 1056 238 1048 239 q 1067 234 1063 237 q 1075 226 1072 231 q 1078 212 1078 220 m 736 454 l 475 454 l 419 240 l 681 240 l 736 454 z "},"$":{"ha":694,"x_min":78,"x_max":615,"o":"m 615 271 q 545 78 615 161 q 368 -14 475 -5 l 368 -78 l 325 -78 l 325 -16 q 214 13 262 -12 q 136 74 165 37 q 93 155 107 111 q 78 248 78 199 q 84 281 78 267 q 98 302 90 295 q 116 313 106 309 q 132 317 126 317 q 142 318 137 318 q 187 300 168 318 q 205 254 205 283 q 188 209 205 227 q 142 191 170 191 q 119 193 130 191 q 186 79 134 124 q 325 29 238 34 l 325 443 q 258 461 278 455 q 209 484 239 467 q 154 526 179 500 q 102 601 127 552 q 78 713 78 650 q 107 834 78 777 q 193 931 136 892 q 325 978 251 971 l 325 1042 l 368 1042 l 368 979 q 549 905 483 973 q 615 734 615 838 q 609 701 615 715 q 594 681 602 687 q 575 670 586 674 q 560 666 565 667 q 551 665 555 665 q 507 682 527 665 q 488 729 488 699 q 506 775 488 758 q 551 793 524 793 q 574 790 563 793 q 505 891 557 852 q 368 935 453 930 l 368 559 q 417 547 401 551 q 457 532 433 542 q 501 506 481 522 q 541 469 520 491 q 558 448 548 462 q 582 410 568 435 q 606 348 596 385 q 615 271 615 311 m 545 229 q 543 254 545 241 q 536 289 541 267 q 519 331 531 311 q 488 371 507 351 q 439 408 470 391 q 368 432 408 424 l 368 29 q 496 97 448 39 q 545 229 545 156 m 325 571 l 325 935 q 230 902 271 929 q 169 836 189 874 q 149 754 149 797 q 150 727 149 741 q 162 689 152 714 q 189 643 172 663 q 241 602 205 622 q 325 571 277 581 z "},"%":{"ha":1156,"x_min":78,"x_max":1078,"o":"m 962 1014 q 951 989 962 1005 l 249 -57 q 239 -70 242 -66 q 232 -76 237 -73 q 221 -78 228 -78 q 202 -70 210 -78 q 193 -50 193 -62 q 205 -22 193 -41 l 829 907 l 828 908 q 800 892 818 901 q 736 872 782 884 q 643 860 690 860 q 433 918 536 860 q 463 761 463 846 q 410 563 463 644 q 282 482 358 482 q 139 561 201 482 q 78 762 78 640 q 139 962 78 882 q 282 1042 201 1042 q 335 1030 313 1042 q 382 997 358 1019 q 642 890 495 890 q 905 1022 809 890 q 929 1041 920 1039 q 935 1042 932 1042 q 954 1034 946 1042 q 962 1014 962 1025 m 1078 201 q 1025 3 1078 85 q 897 -78 973 -78 q 754 1 816 -78 q 693 203 693 81 q 754 402 693 322 q 897 482 816 482 q 1025 401 972 482 q 1078 201 1078 320 m 428 762 q 385 940 428 869 q 283 1011 341 1011 q 260 1008 272 1011 q 229 989 248 1004 q 197 949 211 975 q 174 876 184 924 q 164 761 164 827 q 174 647 164 696 q 198 573 184 598 q 230 534 212 549 q 260 516 248 519 q 283 513 272 513 q 384 584 340 513 q 428 762 428 654 m 1043 203 q 1000 380 1043 309 q 899 452 956 452 q 875 448 887 452 q 844 430 863 445 q 812 390 826 415 q 789 316 799 365 q 779 201 779 267 q 785 115 779 154 q 798 51 790 77 q 818 7 806 26 q 840 -22 829 -12 q 863 -38 850 -33 q 883 -46 875 -44 q 899 -47 891 -47 q 999 23 955 -47 q 1043 203 1043 94 z "},"&":{"ha":1080,"x_min":58,"x_max":1010,"o":"m 1010 555 q 962 552 983 555 q 925 543 941 548 q 893 527 909 538 q 869 508 878 516 q 846 481 859 500 q 825 451 833 463 q 803 414 818 439 q 619 136 689 217 q 811 12 724 12 q 861 21 836 12 q 910 48 887 31 q 949 98 934 66 q 966 168 965 129 l 1002 168 q 943 25 1000 80 q 806 -31 886 -31 q 561 75 682 -31 q 310 -31 443 -31 q 132 29 205 -31 q 58 178 58 88 q 72 244 58 214 q 101 295 85 275 q 157 354 118 315 l 283 489 q 227 771 227 633 q 244 868 227 824 q 289 938 261 911 q 349 980 316 965 q 415 994 382 994 q 475 976 450 994 q 513 928 500 958 q 531 870 526 899 q 536 815 536 842 q 525 758 536 789 q 499 702 514 727 q 458 642 485 676 q 414 588 432 608 q 367 534 397 568 q 450 372 394 463 q 543 234 507 282 q 597 164 579 185 q 796 467 688 277 q 799 472 796 467 q 803 483 801 477 q 804 494 804 488 q 778 538 804 522 q 705 555 752 555 l 705 599 q 875 595 761 595 l 1010 599 l 1010 555 m 501 817 q 501 825 501 820 q 499 845 500 830 q 495 874 498 861 q 486 905 492 888 q 471 935 479 922 q 449 955 463 947 q 418 964 435 964 q 345 924 376 964 q 314 803 314 884 q 355 568 314 692 q 501 817 501 726 m 534 102 q 407 264 482 154 q 344 362 366 323 q 296 457 322 401 q 244 405 262 425 q 207 356 226 385 q 181 295 189 328 q 174 222 174 263 q 181 157 174 191 q 203 90 188 124 q 250 34 219 56 q 321 12 280 12 q 534 102 434 12 z "},"'":{"ha":386,"x_min":142,"x_max":243,"o":"m 241 930 l 211 587 l 175 587 l 144 930 q 157 965 142 951 q 193 979 172 979 q 229 965 214 979 q 241 930 243 951 z "},"(":{"ha":540,"x_min":138,"x_max":460,"o":"m 460 -334 q 446 -347 460 -347 q 426 -337 441 -347 q 387 -304 411 -326 q 338 -252 363 -282 q 282 -178 312 -222 q 229 -86 253 -134 q 138 347 138 101 q 225 771 138 582 q 278 866 248 821 q 334 943 308 912 q 386 997 361 974 q 426 1031 410 1020 q 446 1042 441 1042 q 460 1028 460 1042 q 441 1004 460 1021 q 218 347 218 778 q 229 179 218 261 q 262 10 239 98 q 329 -158 285 -77 q 436 -302 374 -239 q 460 -334 460 -326 z "},")":{"ha":540,"x_min":79,"x_max":401,"o":"m 401 347 q 314 -77 401 113 q 261 -172 291 -126 q 204 -249 231 -218 q 153 -302 178 -279 q 113 -336 129 -326 q 93 -347 98 -347 q 79 -334 79 -347 q 97 -310 79 -326 q 321 347 321 -83 q 265 726 321 562 q 106 996 210 890 q 79 1028 79 1021 q 93 1042 79 1042 q 113 1031 98 1042 q 151 999 127 1021 q 201 947 175 977 q 257 873 227 917 q 310 781 286 829 q 401 347 401 593 z "},"*":{"ha":694,"x_min":90,"x_max":603,"o":"m 603 612 q 592 586 603 597 q 566 574 582 574 q 543 582 557 574 l 363 714 l 383 478 q 373 453 383 464 q 346 443 362 443 q 321 453 332 443 q 310 478 310 463 l 330 714 l 136 574 q 104 583 116 574 q 92 602 93 593 l 90 612 q 97 634 90 626 q 122 652 103 643 l 315 743 l 119 835 q 96 851 102 842 q 90 872 90 860 q 101 899 90 887 q 127 911 111 911 q 158 896 139 911 l 330 771 l 310 1007 q 320 1031 310 1021 q 347 1042 331 1042 q 372 1032 361 1042 q 383 1007 383 1022 l 363 771 l 517 885 q 544 904 534 898 q 556 910 553 909 q 566 911 559 911 q 592 899 582 911 q 603 872 603 887 q 596 850 603 859 q 571 833 590 842 l 378 742 l 574 650 q 597 633 591 642 q 603 612 603 625 z "},"+":{"ha":1080,"x_min":78,"x_max":1002,"o":"m 998 363 q 1000 360 998 363 q 1002 347 1002 357 q 998 331 1002 337 q 985 323 994 325 q 971 320 977 321 q 956 319 966 319 l 568 319 l 568 -69 q 568 -85 568 -79 q 565 -99 567 -91 q 557 -111 563 -107 q 541 -115 551 -115 q 524 -111 530 -115 q 516 -99 518 -107 q 513 -85 514 -91 q 513 -69 513 -79 l 513 319 l 123 319 q 111 320 115 319 q 99 321 106 320 q 88 326 92 323 q 81 334 84 328 q 78 347 78 339 q 86 367 78 360 q 102 374 94 373 q 123 375 110 375 l 513 375 l 513 764 q 513 780 513 774 q 516 793 514 785 q 524 806 518 802 q 541 810 530 810 q 557 806 551 810 q 565 793 563 802 q 568 780 567 785 q 568 764 568 774 l 568 375 l 956 375 q 971 374 966 375 q 985 372 977 374 q 998 363 994 370 z "},",":{"ha":386,"x_min":119,"x_max":282,"o":"m 282 1 q 271 -88 282 -44 q 242 -163 259 -132 q 208 -219 226 -194 q 175 -256 189 -243 q 155 -268 161 -268 q 146 -264 150 -268 q 142 -253 142 -260 q 151 -237 142 -247 q 249 22 253 -130 q 193 0 223 0 q 139 22 158 0 q 119 74 119 44 q 139 125 119 103 q 193 147 159 147 q 258 108 235 147 q 282 1 282 68 z "},"-":{"ha":462,"x_min":16,"x_max":383,"o":"m 383 260 l 16 260 l 16 340 l 383 340 l 383 260 z "},".":{"ha":386,"x_min":119,"x_max":267,"o":"m 245 125 q 256 115 245 125 q 267 74 267 104 q 245 22 267 44 q 193 0 223 0 q 141 22 163 0 q 119 74 119 44 q 141 125 119 104 q 193 147 163 147 q 245 125 223 147 z "},"/":{"ha":694,"x_min":78,"x_max":615,"o":"m 615 1014 q 608 989 615 1007 l 135 -319 q 106 -347 127 -347 q 86 -339 94 -347 q 78 -319 78 -331 q 85 -294 78 -313 l 558 1014 q 587 1042 566 1042 q 607 1034 599 1042 q 615 1014 615 1025 z "},":":{"ha":386,"x_min":119,"x_max":267,"o":"m 245 577 q 256 566 245 577 q 267 525 267 555 q 245 473 267 495 q 193 452 223 452 q 141 473 163 452 q 119 525 119 495 q 141 577 119 555 q 193 599 163 599 q 245 577 223 599 m 245 125 q 256 115 245 125 q 267 74 267 104 q 245 22 267 44 q 193 0 223 0 q 141 22 163 0 q 119 74 119 44 q 141 125 119 104 q 193 147 163 147 q 245 125 223 147 z "},";":{"ha":386,"x_min":119,"x_max":271,"o":"m 245 577 q 256 566 245 577 q 267 525 267 555 q 245 473 267 495 q 193 452 223 452 q 141 473 163 452 q 119 525 119 495 q 141 577 119 555 q 193 599 163 599 q 245 577 223 599 m 271 4 q 260 -86 271 -41 q 234 -162 250 -130 q 202 -218 219 -193 q 173 -255 186 -243 q 155 -268 161 -268 q 146 -264 150 -268 q 142 -253 142 -260 q 151 -235 142 -245 q 240 16 240 -132 q 204 1 228 5 q 193 0 200 0 q 139 22 158 0 q 119 74 119 44 q 139 125 119 103 q 193 147 159 147 q 271 4 271 147 z "},"<":{"ha":1080,"x_min":115,"x_max":964,"o":"m 964 -28 q 956 -47 964 -39 q 936 -56 947 -56 q 911 -46 929 -56 l 142 317 q 122 329 128 323 q 115 347 115 336 q 122 365 115 359 q 142 378 128 372 l 911 741 q 936 750 929 750 q 956 742 947 750 q 964 722 964 734 q 958 705 964 711 q 937 692 951 699 l 208 347 l 937 3 q 958 -11 951 -4 q 964 -28 964 -17 z "},"=":{"ha":1080,"x_min":78,"x_max":1002,"o":"m 998 498 q 1000 495 998 498 q 1002 482 1002 492 q 998 466 1002 472 q 985 458 994 460 q 971 455 977 456 q 954 454 965 454 l 125 454 q 112 455 116 454 q 100 456 107 455 q 88 460 92 458 q 81 469 84 463 q 78 482 78 474 q 86 502 78 495 q 102 509 94 508 q 123 510 110 510 l 956 510 q 971 509 966 510 q 985 507 977 509 q 998 498 994 505 m 998 229 q 1000 225 998 229 q 1002 212 1002 222 q 998 196 1002 202 q 985 188 994 190 q 971 185 977 186 q 956 184 966 184 l 123 184 q 111 185 115 184 q 99 186 106 185 q 88 191 92 188 q 81 199 84 193 q 78 212 78 204 q 81 226 78 220 q 88 234 84 231 q 100 238 92 237 q 112 240 107 239 q 125 240 116 240 l 954 240 q 971 239 965 240 q 985 237 977 239 q 998 229 994 235 z "},">":{"ha":1080,"x_min":115,"x_max":964,"o":"m 957 365 q 960 362 957 365 q 964 347 964 359 q 957 329 964 336 q 937 317 951 323 l 168 -46 q 143 -56 150 -56 q 123 -47 132 -56 q 115 -28 115 -39 q 142 3 115 -10 l 871 347 l 142 692 q 115 722 115 705 q 123 742 115 734 q 143 750 132 750 q 168 741 150 750 l 937 378 q 957 365 951 372 z "},"?":{"ha":655,"x_min":78,"x_max":576,"o":"m 576 791 q 558 713 576 749 q 510 656 539 677 q 471 626 487 639 q 425 582 456 614 q 376 520 395 551 q 341 442 357 489 q 326 346 326 395 l 326 297 q 326 275 326 281 q 321 265 326 270 q 309 260 317 260 q 294 266 296 260 q 292 293 292 272 l 292 355 q 321 514 292 429 q 414 668 351 600 q 438 695 429 684 q 454 734 446 707 q 461 800 461 762 q 461 826 461 817 q 457 853 460 836 q 449 882 454 871 q 433 907 444 893 q 406 929 422 921 q 366 943 391 937 q 310 949 341 949 q 207 927 258 949 q 127 854 157 905 q 205 791 205 854 q 188 746 205 764 q 142 728 170 728 q 97 744 115 728 q 78 794 78 761 q 143 923 78 867 q 314 979 208 979 q 420 967 374 979 q 496 937 467 956 q 544 892 525 918 q 569 842 562 867 q 576 791 576 817 m 360 125 q 371 115 360 125 q 382 74 382 104 q 360 22 382 44 q 309 0 338 0 q 257 22 279 0 q 235 74 235 44 q 257 125 235 104 q 309 147 279 147 q 360 125 338 147 z "},"@":{"ha":1080,"x_min":78,"x_max":1002,"o":"m 1002 469 q 1000 396 1002 429 q 992 328 998 363 q 977 267 987 293 q 951 220 966 241 q 913 189 936 199 q 860 178 890 178 q 772 202 814 178 q 721 277 730 227 q 641 204 689 231 q 538 178 593 178 q 345 266 428 178 q 262 482 262 354 q 345 698 262 610 q 538 786 428 786 q 728 679 650 786 q 739 670 734 671 q 760 668 743 668 l 783 668 q 812 663 807 668 q 817 635 817 659 l 817 300 q 865 208 817 208 q 919 229 898 208 q 950 288 941 249 q 963 366 960 328 q 966 461 966 405 q 940 640 966 558 q 871 778 914 722 q 772 873 828 833 q 657 931 715 913 q 539 949 598 949 q 377 913 455 949 q 240 815 298 877 q 148 667 182 754 q 113 482 113 579 q 168 252 113 358 q 322 80 222 145 q 546 16 422 16 q 924 104 735 16 q 956 109 930 109 l 968 109 q 994 106 987 109 q 1000 94 1000 104 q 922 53 1000 80 q 798 16 844 26 q 547 -16 666 -16 q 357 25 446 -16 q 208 135 269 66 q 113 294 147 204 q 78 482 78 385 q 115 676 78 584 q 214 835 151 768 q 361 940 276 901 q 541 979 447 979 q 674 958 608 979 q 800 893 741 937 q 904 790 859 850 q 975 647 949 730 q 1002 469 1002 564 m 721 364 l 721 600 q 718 628 721 620 q 703 656 715 637 q 625 732 668 709 q 542 755 582 755 q 412 676 465 755 q 358 482 358 597 q 412 288 358 368 q 542 208 467 208 q 571 211 555 208 q 608 223 586 214 q 655 253 631 232 q 701 304 680 274 q 718 335 715 326 q 721 364 721 344 z "},"A":{"ha":1042,"x_min":45,"x_max":996,"o":"m 996 0 l 814 4 q 614 0 664 4 l 614 43 q 729 85 729 43 q 725 104 729 88 l 652 317 l 309 317 l 244 135 q 241 114 241 130 q 269 64 241 85 q 346 43 297 43 l 346 0 l 186 4 l 45 0 l 45 43 q 144 65 105 44 q 200 136 182 86 l 488 966 q 499 988 493 983 q 521 994 505 994 q 538 990 532 994 q 546 982 544 987 q 553 966 549 978 l 852 98 q 886 53 864 64 q 971 43 909 43 l 996 43 l 996 0 m 636 359 l 479 811 l 323 359 l 636 359 z "},"B":{"ha":983,"x_min":50,"x_max":904,"o":"m 904 254 q 881 159 904 205 q 819 78 859 113 q 721 21 779 43 q 595 0 662 0 l 50 0 l 50 43 l 83 43 q 146 45 124 43 q 178 57 168 48 q 191 76 189 66 q 193 109 193 86 l 193 840 q 192 866 193 858 q 185 884 191 875 q 168 897 180 894 q 136 903 156 901 q 83 905 116 905 l 50 905 l 50 949 l 558 949 q 778 878 690 949 q 867 714 867 808 q 802 576 867 637 q 636 496 738 515 q 828 414 751 483 q 904 254 904 345 m 732 714 q 722 775 732 744 q 691 837 711 807 q 634 886 671 867 q 549 905 597 905 l 376 905 q 319 896 330 905 q 309 850 309 886 l 309 509 l 510 509 q 609 528 565 509 q 679 578 653 547 q 718 644 705 609 q 732 714 732 680 m 765 256 q 758 315 765 285 q 736 374 751 345 q 698 427 720 404 q 643 464 676 450 q 570 478 609 478 l 309 478 l 309 98 q 319 52 309 62 q 376 43 330 43 l 550 43 q 644 62 602 43 q 711 113 686 81 q 751 181 737 144 q 765 256 765 218 z "},"C":{"ha":1002,"x_min":78,"x_max":924,"o":"m 924 323 q 898 200 924 262 q 828 86 873 138 q 712 2 783 35 q 561 -31 642 -31 q 377 8 465 -31 q 222 114 288 47 q 117 275 157 180 q 78 475 78 370 q 117 673 78 578 q 222 834 156 767 q 376 940 288 901 q 561 979 465 979 q 634 971 599 979 q 693 952 669 963 q 743 923 717 942 q 782 892 770 903 q 817 860 795 881 l 886 962 q 908 979 897 979 q 921 973 919 979 q 924 946 924 966 l 924 616 q 921 588 924 593 q 901 583 918 583 q 884 587 887 583 q 879 607 881 591 q 775 847 859 758 q 576 936 691 936 q 530 932 555 936 q 469 916 505 928 q 401 885 433 904 q 335 829 368 865 q 277 747 301 793 q 237 629 252 700 q 221 473 221 559 q 237 318 221 389 q 277 201 252 248 q 335 118 301 154 q 401 63 369 83 q 470 32 434 43 q 531 16 506 20 q 578 12 556 12 q 689 34 635 12 q 786 94 743 55 q 857 193 829 132 q 889 325 885 253 q 889 329 889 326 q 890 333 890 332 q 890 336 890 334 q 891 340 891 339 q 892 342 892 340 q 895 345 893 344 q 897 346 896 345 q 901 347 899 347 q 905 347 903 347 q 918 343 914 347 q 923 336 922 340 q 924 323 924 332 z "},"D":{"ha":1061,"x_min":49,"x_max":982,"o":"m 982 467 q 925 231 982 338 q 770 62 867 123 q 557 0 672 0 l 49 0 l 49 43 l 82 43 q 144 45 123 43 q 177 57 166 48 q 190 76 188 66 q 192 109 192 86 l 192 840 q 191 866 192 858 q 184 884 189 875 q 167 897 179 894 q 135 903 155 901 q 82 905 115 905 l 49 905 l 49 949 l 557 949 q 723 910 644 949 q 859 807 802 871 q 949 653 916 742 q 982 467 982 564 m 843 467 q 771 777 843 677 q 518 905 679 905 l 379 905 q 322 896 332 905 q 311 850 311 886 l 311 98 q 322 52 311 62 q 379 43 332 43 l 519 43 q 612 55 569 43 q 686 89 656 68 q 735 126 716 109 q 766 161 753 144 q 824 285 806 214 q 843 467 843 355 z "},"E":{"ha":945,"x_min":46,"x_max":905,"o":"m 905 358 l 847 0 l 46 0 l 46 43 l 79 43 q 142 45 120 43 q 174 57 163 48 q 187 76 185 66 q 189 109 189 86 l 189 836 q 188 862 189 854 q 181 880 186 871 q 164 893 176 890 q 132 899 152 897 q 79 901 112 901 l 46 901 l 46 945 l 828 945 l 867 632 l 832 632 q 819 720 826 684 q 799 787 812 755 q 767 840 786 820 q 720 874 748 859 q 652 895 691 889 q 559 901 613 901 l 380 901 q 323 892 334 901 q 313 846 313 882 l 313 513 l 437 513 q 518 520 488 513 q 563 550 547 528 q 583 598 578 571 q 587 675 587 625 l 623 675 l 623 307 l 587 307 q 585 370 587 346 q 573 415 582 393 q 548 447 565 436 q 505 463 532 457 q 437 469 478 469 l 313 469 l 313 98 q 323 52 313 62 q 380 43 334 43 l 566 43 q 646 47 610 43 q 709 62 682 52 q 758 86 737 73 q 795 121 779 98 q 822 164 811 143 q 842 219 833 185 q 858 283 852 253 q 871 358 863 313 l 905 358 z "},"F":{"ha":907,"x_min":46,"x_max":847,"o":"m 847 632 l 812 632 q 800 719 806 684 q 780 787 793 754 q 750 839 768 820 q 704 874 732 859 q 637 895 675 889 q 547 901 600 901 l 380 901 q 323 892 334 901 q 313 846 313 882 l 313 494 l 432 494 q 498 500 472 494 q 541 517 525 507 q 566 550 557 528 q 577 595 574 572 q 579 657 579 618 l 614 657 l 614 289 l 579 289 q 575 365 579 338 q 556 414 571 392 q 511 444 541 435 q 432 452 482 452 l 313 452 l 313 110 q 314 84 313 92 q 321 66 315 76 q 341 52 327 56 q 380 45 355 48 q 444 43 405 43 l 490 43 l 490 0 q 257 4 440 4 q 46 0 95 4 l 46 43 l 79 43 q 142 45 120 43 q 174 57 163 48 q 187 76 185 66 q 189 109 189 86 l 189 836 q 188 862 189 854 q 181 880 186 871 q 164 893 176 890 q 132 899 152 897 q 79 901 112 901 l 46 901 l 46 945 l 808 945 l 847 632 z "},"G":{"ha":1090,"x_min":78,"x_max":1021,"o":"m 1021 336 q 982 336 996 336 q 956 332 968 335 q 939 326 944 330 q 930 315 934 323 q 926 299 926 307 q 925 275 925 291 l 925 33 q 925 19 925 23 q 923 10 924 15 q 920 3 922 5 q 913 1 918 1 q 869 33 901 1 q 823 87 838 64 q 718 -1 789 29 q 564 -31 646 -31 q 377 9 466 -31 q 222 115 288 48 q 117 276 156 182 q 78 475 78 370 q 117 673 78 579 q 222 834 157 768 q 377 940 288 901 q 561 979 465 979 q 651 968 610 979 q 726 935 692 957 q 777 899 760 913 q 818 860 793 884 l 888 962 q 909 979 899 979 q 923 973 920 979 q 925 946 925 966 l 925 616 q 922 588 925 593 q 903 583 919 583 q 885 587 888 583 q 880 607 882 591 q 775 847 860 758 q 578 936 691 936 q 531 932 556 936 q 471 917 507 929 q 402 885 435 905 q 336 830 370 866 q 277 748 302 795 q 237 631 252 701 q 221 475 221 560 q 237 319 221 389 q 277 202 252 249 q 337 119 302 155 q 404 64 371 83 q 474 32 437 44 q 537 16 511 20 q 586 12 563 12 q 624 15 603 12 q 678 27 644 17 q 737 54 711 37 q 782 103 763 71 q 802 180 802 136 l 802 269 q 795 311 802 298 q 761 330 789 323 q 672 336 734 336 l 628 336 l 628 379 q 851 375 678 375 l 1021 379 l 1021 336 z "},"H":{"ha":1042,"x_min":46,"x_max":994,"o":"m 994 0 q 789 4 945 4 q 585 0 633 4 l 585 43 l 618 43 q 680 45 659 43 q 713 57 702 48 q 726 76 724 66 q 728 109 728 86 l 728 472 l 313 472 l 313 109 q 315 76 313 86 q 328 57 317 66 q 360 45 338 48 q 422 43 382 43 l 456 43 l 456 0 q 250 4 407 4 q 46 0 95 4 l 46 43 l 79 43 q 142 45 120 43 q 174 57 163 48 q 187 76 185 66 q 189 109 189 86 l 189 840 q 188 866 189 858 q 181 884 186 875 q 164 897 176 894 q 132 903 152 901 q 79 905 112 905 l 46 905 l 46 949 q 252 945 95 945 q 456 949 407 945 l 456 905 l 422 905 q 370 903 390 905 q 338 897 350 901 q 320 884 326 894 q 314 866 315 875 q 313 840 313 858 l 313 515 l 728 515 l 728 840 q 726 866 728 858 q 720 884 725 875 q 703 897 715 894 q 670 903 690 901 q 618 905 650 905 l 585 905 l 585 949 q 790 945 633 945 q 994 949 945 945 l 994 905 l 961 905 q 908 903 928 905 q 876 897 888 901 q 859 884 864 894 q 852 866 854 875 q 851 840 851 858 l 851 109 q 853 76 851 86 q 866 57 855 66 q 899 45 877 48 q 961 43 920 43 l 994 43 l 994 0 z "},"I":{"ha":501,"x_min":39,"x_max":463,"o":"m 463 0 q 250 4 414 4 q 39 0 87 4 l 39 43 l 75 43 q 154 50 130 43 q 184 68 178 56 q 189 109 189 80 l 189 840 q 188 867 189 858 q 181 885 186 876 q 163 897 176 894 q 129 903 150 901 q 75 905 109 905 l 39 905 l 39 949 q 252 945 87 945 q 463 949 414 945 l 463 905 l 427 905 q 373 903 393 905 q 339 897 352 901 q 321 885 326 894 q 314 867 315 876 q 313 840 313 858 l 313 109 q 318 68 313 80 q 348 50 323 56 q 427 43 372 43 l 463 43 l 463 0 z "},"J":{"ha":713,"x_min":57,"x_max":646,"o":"m 646 905 q 557 897 575 905 q 539 848 539 889 l 539 232 q 538 171 539 182 q 454 29 526 89 q 279 -31 382 -31 q 122 24 187 -31 q 57 155 57 78 q 82 216 57 197 q 135 236 106 236 q 189 215 166 236 q 212 158 212 194 q 192 103 212 125 q 123 81 172 81 q 166 35 141 53 q 217 10 191 16 q 255 2 243 3 q 277 0 267 0 q 377 57 335 0 q 419 205 419 113 l 419 839 q 418 865 419 857 q 411 883 417 873 q 390 897 404 893 q 350 903 376 900 q 283 905 324 905 l 233 905 l 233 949 q 467 945 286 945 l 646 949 l 646 905 z "},"K":{"ha":1080,"x_min":46,"x_max":1022,"o":"m 1022 0 l 863 4 q 664 0 713 4 l 664 43 q 746 85 746 43 q 725 132 746 100 l 473 504 l 313 351 l 313 109 q 315 76 313 86 q 328 57 317 66 q 360 45 338 48 q 422 43 382 43 l 456 43 l 456 0 q 250 4 407 4 q 46 0 95 4 l 46 43 l 79 43 q 142 45 120 43 q 174 57 163 48 q 187 76 185 66 q 189 109 189 86 l 189 840 q 188 866 189 858 q 181 884 186 875 q 164 897 176 894 q 132 903 152 901 q 79 905 112 905 l 46 905 l 46 949 q 252 945 95 945 q 456 949 407 945 l 456 905 l 422 905 q 370 903 390 905 q 338 897 350 901 q 320 884 326 894 q 314 866 315 875 q 313 840 313 858 l 313 399 l 747 814 q 772 860 772 836 q 770 872 772 866 q 761 887 768 879 q 741 900 755 895 q 708 905 728 905 l 708 949 q 885 945 755 945 q 1003 949 967 945 l 1003 905 q 928 894 964 905 q 865 866 891 883 q 827 840 839 850 q 806 822 814 831 l 555 582 l 876 110 q 934 55 906 66 q 1022 43 962 43 l 1022 0 z "},"L":{"ha":868,"x_min":46,"x_max":808,"o":"m 808 358 l 770 0 l 46 0 l 46 43 l 79 43 q 142 45 120 43 q 174 57 163 48 q 187 76 185 66 q 189 109 189 86 l 189 840 q 188 866 189 858 q 181 884 186 875 q 164 897 176 894 q 132 903 152 901 q 79 905 112 905 l 46 905 l 46 949 q 257 945 95 945 q 490 949 440 945 l 490 905 l 444 905 q 380 903 405 905 q 341 896 355 900 q 321 882 327 892 q 314 865 315 872 q 313 839 313 857 l 313 98 q 323 52 313 62 q 380 43 334 43 l 494 43 q 586 54 545 43 q 654 80 627 64 q 702 123 681 95 q 734 174 723 151 q 754 235 745 196 q 766 295 763 273 q 774 358 769 317 l 808 358 z "},"M":{"ha":1274,"x_min":52,"x_max":1221,"o":"m 1221 0 q 1022 4 1169 4 q 822 0 873 4 l 822 43 l 856 43 q 918 45 897 43 q 950 57 940 48 q 963 76 961 66 q 965 109 965 86 l 965 905 l 964 905 l 623 26 q 613 6 618 12 q 597 0 608 0 q 570 31 581 0 l 235 895 l 233 895 l 233 146 q 234 120 233 130 q 243 94 235 111 q 264 68 250 77 q 307 51 278 58 q 376 43 336 43 l 376 0 l 214 4 l 52 0 l 52 43 q 121 51 92 43 q 164 68 150 58 q 185 94 178 77 q 194 120 193 111 q 195 146 195 130 l 195 840 q 193 866 195 858 q 187 884 192 875 q 170 897 182 894 q 137 903 157 901 q 85 905 117 905 l 52 905 l 52 949 l 286 949 q 319 944 311 949 q 335 918 326 940 l 636 140 l 940 922 q 954 945 947 941 q 986 949 960 949 l 1221 949 l 1221 905 l 1187 905 q 1135 903 1155 905 q 1103 897 1115 901 q 1085 884 1090 894 q 1079 866 1080 875 q 1078 840 1078 858 l 1078 109 q 1080 76 1078 86 q 1093 57 1082 66 q 1125 45 1103 48 q 1187 43 1147 43 l 1221 43 l 1221 0 z "},"N":{"ha":1042,"x_min":46,"x_max":994,"o":"m 994 905 q 934 901 960 905 q 893 887 908 896 q 869 869 878 878 q 856 846 860 860 q 852 824 852 831 q 851 803 851 816 l 851 36 q 851 22 851 25 q 850 12 851 18 q 847 5 849 6 q 842 2 845 3 q 832 0 838 0 q 821 3 825 0 q 808 18 817 5 l 241 851 q 228 868 235 861 l 228 146 q 229 120 228 130 q 237 94 230 111 q 259 68 245 77 q 301 51 273 58 q 371 43 330 43 l 371 0 l 208 4 l 46 0 l 46 43 q 116 51 87 43 q 158 68 144 58 q 180 94 172 77 q 188 120 187 111 q 189 146 189 130 l 189 871 q 184 895 189 890 q 155 903 179 899 q 86 905 113 905 l 46 905 l 46 949 l 282 949 q 307 946 302 949 q 322 930 313 943 l 812 210 l 812 803 q 812 824 812 816 q 807 846 811 831 q 794 869 804 860 q 770 887 785 878 q 730 901 755 896 q 669 905 704 905 l 669 949 l 832 945 l 994 949 l 994 905 z "},"O":{"ha":1080,"x_min":78,"x_max":1002,"o":"m 1002 471 q 965 274 1002 368 q 865 115 928 181 q 718 9 803 48 q 539 -31 633 -31 q 363 8 448 -31 q 215 113 278 47 q 115 273 153 179 q 78 471 78 366 q 115 670 78 576 q 215 832 153 765 q 362 940 277 900 q 539 979 447 979 q 718 939 633 979 q 865 831 803 899 q 965 669 928 764 q 1002 471 1002 575 m 859 490 q 837 673 859 592 q 781 804 814 755 q 704 887 747 854 q 619 932 660 920 q 539 945 578 945 q 485 939 513 945 q 426 917 457 932 q 366 879 394 902 q 310 820 337 857 q 264 738 283 783 q 233 629 244 692 q 221 490 221 565 q 242 301 221 386 q 295 162 262 216 q 371 72 328 109 q 456 21 414 36 q 541 5 498 5 q 623 20 581 5 q 707 71 664 35 q 784 160 751 106 q 838 299 817 214 q 859 490 859 385 z "},"P":{"ha":945,"x_min":49,"x_max":867,"o":"m 867 690 q 823 564 867 623 q 706 472 779 506 q 550 439 633 439 l 315 439 l 315 109 q 317 76 315 86 q 330 57 319 66 q 363 45 341 48 q 425 43 385 43 l 458 43 l 458 0 q 253 4 410 4 q 49 0 98 4 l 49 43 l 82 43 q 144 45 123 43 q 177 57 166 48 q 190 76 188 66 q 192 109 192 86 l 192 840 q 191 866 192 858 q 184 884 189 875 q 167 897 179 894 q 135 903 155 901 q 82 905 115 905 l 49 905 l 49 949 l 539 949 q 773 872 679 949 q 867 690 867 795 m 724 690 q 723 724 724 711 q 718 762 722 737 q 706 804 714 787 q 682 842 699 821 q 643 875 666 863 q 584 897 621 888 q 503 905 548 905 l 379 905 q 322 896 332 905 q 311 850 311 886 l 311 475 l 503 475 q 584 484 548 475 q 643 506 621 493 q 682 539 666 518 q 706 578 699 561 q 718 620 714 595 q 723 657 722 645 q 724 690 724 670 z "},"Q":{"ha":1080,"x_min":78,"x_max":1010,"o":"m 1010 -14 q 1006 -67 1010 -39 q 991 -134 1002 -96 q 962 -200 980 -171 q 913 -249 945 -229 q 842 -269 882 -269 q 777 -254 804 -269 q 733 -217 749 -239 q 704 -158 716 -194 q 686 -89 692 -123 q 672 -12 679 -56 q 672 -9 672 -10 q 541 -31 603 -31 q 362 9 447 -31 q 214 115 277 48 q 115 274 152 181 q 78 471 78 368 q 115 670 78 576 q 215 832 153 765 q 362 940 277 900 q 539 979 447 979 q 718 939 633 979 q 865 831 803 899 q 965 669 928 764 q 1002 471 1002 575 q 923 191 1002 316 q 720 9 845 66 q 776 -94 746 -61 q 852 -126 806 -126 q 937 -95 900 -126 q 979 -9 973 -64 q 981 3 980 -1 q 985 12 982 7 q 994 16 989 16 q 1005 11 1002 16 q 1009 1 1008 5 q 1010 -14 1010 -4 m 863 471 q 842 655 863 572 q 788 791 821 739 q 711 879 755 844 q 625 930 668 915 q 539 945 582 945 q 456 930 498 945 q 371 881 414 916 q 293 794 327 846 q 238 658 259 742 q 216 471 216 574 q 234 304 216 380 q 276 183 251 229 q 334 101 300 136 q 393 49 367 65 q 447 22 420 33 q 428 89 428 60 q 460 170 428 134 q 542 205 492 205 q 635 166 598 205 q 699 58 672 126 q 863 471 863 179 m 663 36 q 622 139 650 103 q 542 175 595 175 q 481 149 504 175 q 458 89 458 122 q 461 66 458 79 q 473 39 465 54 q 498 14 481 24 q 541 4 516 4 q 663 36 606 4 z "},"R":{"ha":1022,"x_min":49,"x_max":1017,"o":"m 1017 122 q 1011 81 1017 104 q 992 32 1005 58 q 951 -13 979 5 q 885 -31 923 -31 q 710 28 777 -31 q 662 104 671 64 q 653 227 653 145 q 645 342 653 307 q 600 412 637 378 q 471 460 551 460 l 311 460 l 311 109 q 313 76 311 86 q 326 57 315 66 q 359 45 337 48 q 421 43 380 43 l 454 43 l 454 0 q 252 4 404 4 q 49 0 99 4 l 49 43 l 82 43 q 144 45 123 43 q 177 57 166 48 q 190 76 188 66 q 192 109 192 86 l 192 840 q 191 866 192 858 q 184 884 189 875 q 167 897 179 894 q 135 903 155 901 q 82 905 115 905 l 49 905 l 49 949 l 485 949 q 668 914 585 949 q 800 822 752 880 q 847 699 847 765 q 779 559 847 620 q 604 472 710 498 q 774 311 742 425 l 791 200 q 801 139 798 159 q 810 92 804 119 q 823 51 817 64 q 839 24 829 38 q 861 5 848 10 q 890 0 873 0 q 950 28 923 0 q 982 123 977 57 q 982 126 982 124 q 983 130 983 129 q 984 133 983 131 q 984 137 984 136 q 986 139 985 138 q 988 142 987 141 q 990 144 989 143 q 994 145 992 145 q 999 146 996 146 q 1017 122 1017 146 m 704 699 q 694 773 704 741 q 671 828 685 806 q 632 864 656 849 q 587 887 608 880 q 533 900 566 895 q 479 905 501 904 q 424 905 458 905 q 342 903 355 905 q 320 893 327 901 q 312 878 313 886 q 311 850 311 869 l 311 490 l 465 490 q 569 503 524 490 q 638 536 613 516 q 679 584 663 555 q 699 640 694 613 q 704 699 704 667 z "},"S":{"ha":772,"x_min":78,"x_max":693,"o":"m 693 258 q 615 55 693 140 q 419 -31 538 -31 q 267 -2 334 -31 q 164 66 201 26 l 114 -12 q 103 -27 106 -24 q 93 -31 100 -31 q 80 -24 82 -31 q 78 3 78 -18 l 78 281 q 79 302 78 296 q 83 311 79 307 q 96 315 87 315 q 113 301 111 315 q 116 256 113 275 q 125 205 118 237 q 152 144 133 174 q 199 87 170 114 q 280 38 233 56 q 359 16 328 20 q 418 12 389 12 q 553 72 501 12 q 604 211 604 132 q 561 339 604 286 q 520 378 543 363 q 483 398 496 394 q 443 410 469 403 q 260 456 273 452 q 128 554 178 484 q 78 710 78 624 q 156 900 78 821 q 349 979 234 979 q 428 971 392 979 q 492 944 464 962 q 535 915 521 926 q 571 882 549 903 l 619 961 q 629 976 626 973 q 640 979 633 979 q 653 973 651 979 q 656 946 656 966 l 656 667 q 653 639 656 645 q 637 633 650 633 q 629 634 632 633 q 624 639 625 635 q 622 643 622 642 q 621 650 621 644 q 617 676 618 665 q 610 711 615 688 q 598 753 604 735 q 581 796 592 771 q 555 840 569 821 q 521 878 542 859 q 476 911 500 898 q 420 932 452 924 q 350 940 387 940 q 219 886 271 940 q 167 758 167 833 q 205 647 167 696 q 307 582 243 597 l 485 539 q 633 439 574 518 q 693 258 693 361 z "},"T":{"ha":1002,"x_min":50,"x_max":951,"o":"m 951 628 l 917 628 q 909 704 913 674 q 899 764 905 734 q 884 812 892 794 q 863 846 876 829 q 833 871 849 863 q 791 886 817 880 q 737 895 766 893 q 667 897 707 897 q 587 895 603 897 q 570 884 575 892 q 563 867 564 876 q 562 842 562 859 l 562 110 q 563 91 562 97 q 566 76 563 85 q 574 63 568 67 q 589 55 579 60 q 615 47 600 50 q 654 44 631 45 q 708 43 677 43 l 764 43 l 764 0 q 500 4 707 4 q 237 0 294 4 l 237 43 l 293 43 q 347 44 324 43 q 386 47 370 45 q 412 55 401 50 q 427 63 422 60 q 435 76 433 67 q 438 91 438 85 q 439 110 439 97 l 439 842 q 438 869 439 861 q 430 885 437 878 q 410 895 424 892 q 335 897 396 897 q 265 895 294 897 q 210 886 235 893 q 169 871 185 880 q 139 846 153 863 q 117 812 125 829 q 103 764 109 794 q 93 704 96 734 q 85 628 89 674 l 50 628 l 77 940 l 925 940 l 951 628 z "},"U":{"ha":1042,"x_min":46,"x_max":994,"o":"m 994 905 q 924 898 953 905 q 882 881 896 890 q 861 855 868 872 q 852 827 853 838 q 851 798 851 817 l 851 353 q 847 257 851 285 q 743 53 829 136 q 539 -31 656 -31 q 365 15 446 -31 q 237 141 285 60 q 189 317 189 221 l 189 840 q 188 866 189 858 q 181 884 186 875 q 164 897 176 894 q 132 903 152 901 q 79 905 112 905 l 46 905 l 46 949 q 252 945 95 945 q 456 949 407 945 l 456 905 l 422 905 q 370 903 390 905 q 338 897 350 901 q 320 884 326 894 q 314 866 315 875 q 313 840 313 858 l 313 311 q 322 212 313 257 q 347 137 332 167 q 382 83 361 106 q 424 47 404 60 q 468 26 445 34 q 508 15 491 18 q 542 12 526 12 q 640 33 592 12 q 725 92 687 54 q 785 190 762 130 q 808 321 808 250 l 808 803 q 808 824 808 816 q 803 846 807 831 q 790 869 800 860 q 766 887 781 878 q 726 901 751 896 q 665 905 700 905 l 665 949 l 831 945 l 994 949 l 994 905 z "},"V":{"ha":1042,"x_min":26,"x_max":1014,"o":"m 1014 905 q 913 880 948 905 q 863 812 879 856 l 553 -4 q 542 -25 547 -20 q 519 -31 536 -31 q 498 -25 505 -31 q 485 0 492 -19 l 163 852 q 125 898 149 890 q 26 905 100 905 l 26 949 l 203 945 q 401 949 351 945 l 401 905 q 288 865 288 905 q 296 840 288 860 l 561 139 l 815 808 q 822 836 822 829 q 797 884 822 863 q 721 905 771 905 l 721 949 l 879 945 q 1014 949 949 945 l 1014 905 z "},"W":{"ha":1428,"x_min":25,"x_max":1401,"o":"m 1401 905 q 1359 902 1378 905 q 1321 889 1341 898 q 1287 860 1302 880 q 1263 812 1272 841 l 997 -3 q 992 -19 994 -14 q 985 -27 990 -23 q 970 -31 979 -31 q 956 -26 961 -31 q 948 -17 950 -21 q 943 -4 946 -13 l 713 703 l 484 -3 q 478 -19 480 -14 q 471 -27 476 -23 q 456 -31 465 -31 q 441 -26 447 -31 q 434 -17 436 -21 q 429 -4 432 -13 l 151 847 q 143 869 146 862 q 134 885 140 877 q 121 896 127 893 q 100 901 115 899 q 70 905 86 904 q 25 905 53 905 l 25 949 l 195 945 q 392 949 342 945 l 392 905 q 275 864 275 905 q 278 846 275 854 l 501 163 l 694 758 l 664 856 q 655 874 661 867 q 646 888 650 882 q 632 897 642 893 q 617 902 623 900 q 595 904 611 903 q 570 905 579 905 q 539 905 562 905 l 539 949 l 708 945 q 905 949 855 945 l 905 905 q 789 864 789 905 q 793 843 789 859 l 1015 163 l 1223 804 q 1231 832 1231 827 q 1201 881 1231 858 q 1109 905 1172 905 l 1109 949 l 1275 945 q 1401 949 1339 945 l 1401 905 z "},"X":{"ha":1042,"x_min":33,"x_max":1008,"o":"m 1008 0 l 828 4 q 625 0 674 4 l 625 43 q 691 57 667 43 q 715 85 715 71 l 708 100 l 489 432 l 292 140 q 278 107 278 118 q 300 64 278 84 q 366 43 322 43 l 366 0 q 187 4 315 4 l 33 0 l 33 43 q 106 50 73 43 q 159 66 140 58 q 196 91 178 75 q 219 114 214 107 q 235 135 224 121 l 463 471 l 207 857 q 161 896 187 886 q 78 905 136 905 l 52 905 l 52 949 l 232 945 q 435 949 386 945 l 435 905 q 369 891 393 905 q 345 864 345 878 q 354 843 345 857 l 533 575 l 692 810 q 695 815 692 811 q 698 820 697 819 q 700 823 699 821 q 702 826 701 825 q 703 829 702 827 q 703 833 703 831 q 704 837 703 835 q 704 842 704 839 q 681 886 704 867 q 618 905 658 905 l 618 949 q 796 945 673 945 l 950 949 l 950 905 q 821 880 866 905 q 749 815 777 856 l 558 536 l 851 93 q 899 52 872 62 q 982 43 926 43 l 1008 43 l 1008 0 z "},"Y":{"ha":1042,"x_min":16,"x_max":1025,"o":"m 1025 905 q 847 815 902 905 l 579 379 l 579 111 q 581 77 579 87 q 594 57 583 66 q 628 45 606 48 q 690 43 650 43 l 722 43 l 722 0 q 519 4 672 4 q 317 0 367 4 l 317 43 l 350 43 q 412 45 391 43 q 445 57 434 48 q 458 76 456 66 q 460 109 460 86 l 460 379 l 168 854 q 145 884 155 876 q 111 899 136 893 q 40 905 86 905 l 16 905 l 16 949 l 196 945 q 401 949 351 945 l 401 905 q 328 898 351 905 q 304 871 304 891 q 314 847 304 861 l 566 437 l 794 810 q 808 851 808 831 q 789 890 808 874 q 729 905 769 905 l 729 949 l 889 945 q 1025 949 960 945 l 1025 905 z "},"Z":{"ha":848,"x_min":78,"x_max":778,"o":"m 778 371 l 754 0 l 114 0 q 84 3 90 0 q 78 24 78 7 q 87 52 78 36 l 628 905 l 410 905 q 294 892 343 905 q 216 856 245 878 q 168 798 186 834 q 142 725 149 762 q 131 636 134 688 l 96 636 l 111 949 l 733 949 q 751 948 746 949 q 762 946 756 948 q 768 939 767 944 q 770 926 770 935 q 760 900 770 917 l 221 47 l 449 47 q 546 56 503 47 q 618 77 588 64 q 669 115 648 91 q 704 162 691 138 q 725 223 717 186 q 737 292 734 260 q 743 371 741 324 l 778 371 z "},"[":{"ha":386,"x_min":164,"x_max":354,"o":"m 354 -347 l 164 -347 l 164 1042 l 354 1042 l 354 986 l 220 986 l 220 -292 l 354 -292 l 354 -347 z "},"\\":{"ha":694,"x_min":78,"x_max":615,"o":"m 615 -319 q 607 -339 615 -331 q 587 -347 599 -347 q 572 -342 578 -347 q 563 -332 566 -337 q 557 -317 560 -327 l 85 989 l 78 1014 q 86 1034 78 1025 q 106 1042 94 1042 q 121 1037 115 1042 q 130 1026 127 1031 q 136 1011 133 1021 l 608 -294 l 615 -319 z "},"]":{"ha":386,"x_min":31,"x_max":221,"o":"m 221 -347 l 31 -347 l 31 -292 l 165 -292 l 165 986 l 31 986 l 31 1042 l 221 1042 l 221 -347 z "},"^":{"ha":772,"x_min":-7,"x_max":779,"o":"m 779 811 l 762 781 l 385 951 l 8 781 l -7 811 l 386 1034 l 779 811 z "},"_":{"ha":1042,"x_min":0,"x_max":1042,"o":"m 1042 -192 l 0 -192 l 0 -155 l 1042 -155 l 1042 -192 z "},"`":{"ha":694,"x_min":175,"x_max":433,"o":"m 433 733 l 410 708 l 199 878 q 175 920 175 896 q 191 954 175 939 q 225 970 206 970 q 267 946 251 970 l 433 733 z "},"a":{"ha":694,"x_min":58,"x_max":685,"o":"m 685 123 q 672 56 685 84 q 638 15 659 28 q 602 -3 618 2 q 571 -8 585 -8 q 496 26 525 -8 q 463 106 467 60 q 394 19 441 54 q 281 -16 346 -16 q 209 -8 245 -16 q 137 16 172 0 q 80 62 102 32 q 58 132 58 92 q 91 231 58 183 q 197 313 124 279 q 290 343 237 332 q 372 357 342 355 q 453 363 401 360 l 453 414 q 440 493 453 458 q 405 549 427 528 q 358 581 383 570 q 306 591 332 591 q 223 576 266 591 q 155 528 180 561 q 193 520 178 527 q 215 502 208 513 q 224 481 222 490 q 227 464 227 472 q 209 418 227 437 q 163 400 191 400 q 117 418 135 400 q 98 465 98 435 q 160 578 98 533 q 309 623 222 623 q 498 546 422 623 q 534 491 522 522 q 547 441 545 461 q 549 382 549 420 l 549 104 q 550 91 549 100 q 557 67 552 81 q 573 44 562 54 q 600 35 585 35 q 615 37 608 35 q 631 48 622 40 q 645 76 640 56 q 650 123 650 95 l 650 201 l 685 201 l 685 123 m 453 195 l 453 334 q 335 317 387 332 q 252 282 283 302 q 201 234 221 261 q 173 183 180 208 q 165 134 165 159 q 202 49 165 83 q 290 16 239 16 q 331 21 310 16 q 375 41 353 27 q 414 74 397 54 q 442 125 431 94 q 453 195 453 157 z "},"b":{"ha":772,"x_min":39,"x_max":724,"o":"m 724 300 q 681 139 724 212 q 567 25 638 66 q 414 -16 496 -16 q 346 -5 378 -16 q 291 24 313 6 q 256 56 269 41 q 232 86 242 71 l 182 0 l 147 0 l 147 828 q 144 869 147 855 q 129 892 141 883 q 97 903 117 901 q 39 905 77 905 l 39 949 l 239 964 l 239 524 q 429 614 319 614 q 575 572 507 614 q 683 458 643 531 q 724 300 724 386 m 608 301 q 568 494 608 431 q 422 583 513 583 q 377 578 400 583 q 318 552 353 573 q 258 494 283 530 q 245 471 247 478 q 243 444 243 465 l 243 158 q 245 130 243 138 q 262 100 248 121 q 408 16 317 16 q 500 41 460 16 q 566 104 540 67 q 608 301 608 171 z "},"c":{"ha":616,"x_min":47,"x_max":576,"o":"m 576 165 q 571 141 576 159 q 548 96 565 123 q 508 44 532 68 q 441 2 484 20 q 346 -16 398 -16 q 197 26 266 -16 q 88 140 129 67 q 47 300 47 213 q 86 459 47 385 q 194 578 125 533 q 349 623 264 623 q 451 605 404 623 q 530 553 499 588 q 561 473 561 519 q 543 426 561 443 q 497 408 525 408 q 451 427 469 408 q 433 472 433 445 q 436 490 433 481 q 444 509 438 498 q 465 528 450 520 q 498 536 479 535 q 457 566 481 554 q 409 581 433 577 q 373 586 385 585 q 350 587 360 587 q 302 580 326 587 q 252 552 278 572 q 207 501 227 532 q 175 419 188 470 q 163 302 163 368 q 176 187 163 238 q 210 106 189 136 q 258 55 231 75 q 309 27 285 35 q 358 20 334 20 q 541 165 495 20 q 544 173 542 170 q 549 177 545 175 q 558 179 552 179 q 576 165 576 179 z "},"d":{"ha":772,"x_min":47,"x_max":732,"o":"m 732 0 l 528 -16 l 528 77 q 450 11 498 37 q 342 -16 403 -16 q 196 26 264 -16 q 88 140 128 67 q 47 298 47 212 q 91 459 47 386 q 204 573 134 532 q 357 614 275 614 q 532 528 463 614 l 532 828 q 529 869 532 856 q 514 892 526 882 q 482 903 501 901 q 424 905 463 905 l 424 949 l 624 964 l 624 121 q 631 70 624 85 q 660 48 638 54 q 732 43 681 43 l 732 0 m 528 164 l 528 449 q 526 476 528 469 q 513 500 524 483 q 363 583 456 583 q 271 557 311 583 q 205 494 231 532 q 163 297 163 428 q 203 104 163 168 q 349 16 258 16 q 439 40 395 16 q 513 113 483 64 q 526 137 524 130 q 528 164 528 144 z "},"e":{"ha":616,"x_min":39,"x_max":576,"o":"m 576 165 q 569 136 576 156 q 543 90 562 117 q 500 40 525 64 q 433 1 475 17 q 345 -16 392 -16 q 229 9 285 -16 q 132 75 174 33 q 64 178 90 117 q 39 306 39 238 q 77 464 39 391 q 182 580 115 537 q 328 623 248 623 q 439 600 390 623 q 517 537 488 576 q 562 451 547 498 q 576 350 576 404 q 571 325 576 329 q 542 321 566 321 l 154 321 q 196 113 154 180 q 262 45 222 71 q 353 20 303 20 q 373 21 363 20 q 410 29 384 22 q 458 50 436 37 q 503 93 479 64 q 541 163 527 123 q 544 173 542 170 q 549 179 545 176 q 558 182 552 182 q 576 165 576 182 m 485 350 q 483 396 485 372 q 470 458 480 421 q 445 523 460 494 q 399 571 429 551 q 328 591 368 591 q 292 587 311 591 q 249 566 273 582 q 205 525 224 550 q 172 454 186 500 q 155 350 157 409 l 485 350 z "},"f":{"ha":425,"x_min":46,"x_max":496,"o":"m 496 882 q 480 838 496 855 q 435 821 464 821 q 391 838 408 821 q 375 880 375 855 q 388 919 375 904 q 416 939 401 934 q 371 949 394 949 q 282 897 321 949 q 243 760 243 846 l 243 599 l 406 599 l 406 555 l 248 555 l 248 109 q 248 86 248 94 q 252 70 249 79 q 261 57 255 60 q 280 49 268 53 q 309 44 292 45 q 353 43 327 43 l 382 43 l 382 0 q 205 4 326 4 l 47 0 l 47 43 q 83 43 72 43 q 109 44 94 43 q 130 48 124 45 q 142 55 135 51 q 151 66 149 59 q 154 82 153 73 q 155 106 155 92 l 155 555 l 46 555 l 46 599 l 155 599 l 155 758 q 175 854 155 811 q 227 924 195 898 q 296 965 259 951 q 371 979 334 979 q 460 950 425 979 q 496 882 496 922 z "},"g":{"ha":694,"x_min":39,"x_max":673,"o":"m 673 561 q 660 530 673 540 q 633 519 647 519 q 605 531 616 519 q 593 559 593 542 q 615 597 593 590 l 602 599 q 476 545 534 599 q 518 484 503 520 q 533 410 533 448 q 468 267 533 328 q 309 207 404 207 q 171 250 232 207 q 147 184 147 222 q 168 123 147 150 q 221 92 189 96 q 325 90 231 90 q 411 89 381 90 q 485 79 441 87 q 564 52 529 70 q 633 -19 612 25 q 654 -107 654 -63 q 611 -201 654 -160 q 498 -264 568 -243 q 346 -286 429 -286 q 192 -263 262 -286 q 80 -199 121 -240 q 39 -110 39 -159 q 73 -27 39 -66 q 167 29 106 12 q 121 83 137 49 q 106 153 106 117 q 119 217 106 186 q 149 268 132 249 q 102 330 121 292 q 83 411 83 368 q 149 553 83 493 q 309 614 214 614 q 456 564 392 614 q 603 629 523 629 q 656 607 639 629 q 673 561 673 585 m 429 411 q 429 435 429 425 q 425 469 428 446 q 414 509 422 492 q 394 544 406 526 q 359 572 381 562 q 309 582 337 582 q 247 564 272 582 q 210 526 222 546 q 187 410 187 490 q 188 385 187 396 q 192 352 189 374 q 203 312 195 329 q 223 276 211 294 q 258 249 236 258 q 309 239 280 239 q 356 250 334 239 q 389 272 378 261 q 407 294 399 283 q 429 411 429 331 m 582 -110 q 572 -65 582 -85 q 549 -34 562 -46 q 511 -13 536 -22 q 466 0 486 -4 q 413 7 447 5 q 361 9 380 9 q 307 9 342 9 l 225 9 q 145 -28 178 6 q 111 -110 111 -62 q 178 -211 111 -168 q 347 -254 245 -254 q 514 -211 447 -254 q 582 -110 582 -168 z "},"h":{"ha":772,"x_min":45,"x_max":743,"o":"m 743 0 l 587 4 l 431 0 l 431 43 q 472 43 459 43 q 500 45 484 43 q 520 51 515 47 q 531 62 526 54 q 538 79 537 69 q 539 106 539 90 l 539 429 q 535 487 539 463 q 520 535 531 512 q 489 571 510 559 q 436 583 467 583 q 306 523 363 583 q 249 361 249 463 l 249 106 q 250 82 249 92 q 254 66 252 73 q 262 55 256 59 q 275 48 269 51 q 295 44 280 45 q 321 43 310 43 q 357 43 332 43 l 357 0 l 201 4 l 45 0 l 45 43 q 80 43 69 43 q 106 44 92 43 q 127 48 121 45 q 139 55 132 51 q 148 66 146 59 q 151 82 150 73 q 153 106 153 92 l 153 828 q 150 869 153 856 q 135 892 147 882 q 103 903 122 901 q 45 905 83 905 l 45 949 l 244 964 l 244 481 l 245 481 q 270 523 255 503 q 310 566 286 544 q 369 601 334 587 q 446 614 404 614 q 537 598 500 614 q 591 562 574 583 q 628 488 621 527 q 635 350 635 449 l 635 85 q 638 67 635 75 q 648 56 641 60 q 662 48 655 51 q 684 44 669 45 q 710 43 699 43 q 743 43 721 43 l 743 0 z "},"i":{"ha":386,"x_min":46,"x_max":343,"o":"m 343 0 q 199 4 201 4 l 46 0 l 46 43 q 82 43 71 43 q 108 44 93 43 q 128 48 123 45 q 140 55 134 51 q 149 66 147 59 q 153 82 151 73 q 154 106 154 92 l 154 479 q 137 543 154 530 q 52 555 119 555 l 52 599 l 245 614 l 245 104 q 251 63 245 75 q 276 47 257 52 q 343 43 296 43 l 343 0 m 245 890 q 256 879 245 890 q 267 839 267 867 q 246 788 267 810 q 192 765 225 765 q 140 788 161 765 q 118 839 118 810 q 139 890 118 867 q 193 913 159 913 q 245 890 224 913 z "},"j":{"ha":425,"x_min":-56,"x_max":292,"o":"m 292 -69 q 236 -224 292 -163 q 102 -285 181 -285 q -9 -255 38 -285 q -56 -174 -56 -225 q -38 -128 -56 -146 q 8 -110 -20 -110 q 54 -128 37 -110 q 72 -174 72 -146 q 57 -215 72 -199 q 24 -236 43 -231 q 98 -254 60 -254 q 151 -235 130 -254 q 183 -185 173 -216 q 196 -127 193 -155 q 200 -72 200 -100 l 200 478 q 197 519 200 505 q 180 542 194 533 q 145 553 167 551 q 81 555 123 555 l 81 599 l 292 614 l 292 -69 m 292 839 q 271 788 292 811 q 216 765 250 765 q 164 788 186 765 q 143 839 143 810 q 164 890 143 867 q 218 913 184 913 q 270 890 249 913 q 292 839 292 867 z "},"k":{"ha":733,"x_min":39,"x_max":710,"o":"m 710 0 q 589 4 650 4 l 439 0 l 439 43 q 489 75 489 43 q 460 134 489 91 q 353 285 431 177 q 323 325 334 311 l 235 249 l 235 106 q 236 79 235 90 q 242 62 237 69 q 253 51 248 54 q 274 45 258 47 q 302 43 290 43 q 343 43 315 43 l 343 0 l 191 4 l 39 0 l 39 43 q 80 43 67 43 q 108 45 92 43 q 129 51 123 47 q 139 62 134 54 q 146 79 145 69 q 147 106 147 90 l 147 828 q 144 869 147 855 q 129 892 141 883 q 97 903 117 901 q 39 905 77 905 l 39 949 l 239 964 l 239 297 l 435 467 q 465 521 465 493 q 455 545 465 535 q 425 555 444 555 l 425 599 q 581 595 484 595 q 677 599 637 595 l 677 555 q 638 551 655 554 q 582 531 621 549 q 503 481 543 513 q 437 425 485 467 q 390 380 390 384 q 392 375 390 378 q 396 369 393 372 q 399 366 398 366 l 575 117 q 605 81 591 95 q 630 59 619 66 q 656 47 641 51 q 681 43 671 44 q 710 43 690 43 l 710 0 z "},"l":{"ha":386,"x_min":46,"x_max":354,"o":"m 354 0 l 200 4 l 46 0 l 46 43 q 82 43 71 43 q 108 44 93 43 q 128 48 123 45 q 140 55 134 51 q 149 66 147 59 q 153 82 151 73 q 154 106 154 92 l 154 828 q 151 869 154 856 q 136 892 149 882 q 104 903 123 901 q 46 905 85 905 l 46 949 l 245 964 l 245 106 q 247 79 245 90 q 253 62 248 69 q 264 51 259 54 q 285 45 269 47 q 313 43 300 43 q 354 43 326 43 l 354 0 z "},"m":{"ha":1156,"x_min":45,"x_max":1129,"o":"m 1129 0 l 974 4 l 817 0 l 817 43 q 858 43 845 43 q 886 45 870 43 q 906 51 901 47 q 917 62 911 54 q 924 79 923 69 q 925 106 925 90 l 925 429 q 921 487 925 463 q 906 535 917 512 q 874 571 896 559 q 822 583 853 583 q 692 523 749 583 q 635 361 635 463 l 635 106 q 636 79 635 90 q 643 62 637 69 q 653 51 648 54 q 674 45 659 47 q 702 43 690 43 q 743 43 715 43 l 743 0 l 587 4 l 431 0 l 431 43 q 472 43 459 43 q 500 45 484 43 q 520 51 515 47 q 531 62 526 54 q 538 79 537 69 q 539 106 539 90 l 539 429 q 535 487 539 463 q 520 535 531 512 q 489 571 510 559 q 436 583 467 583 q 306 523 363 583 q 249 361 249 463 l 249 106 q 250 82 249 92 q 254 66 252 73 q 262 55 256 59 q 275 48 269 51 q 295 44 280 45 q 321 43 310 43 q 357 43 332 43 l 357 0 l 201 4 l 45 0 l 45 43 q 80 43 69 43 q 106 44 92 43 q 127 48 121 45 q 139 55 132 51 q 148 66 146 59 q 151 82 150 73 q 153 106 153 92 l 153 478 q 150 519 153 506 q 135 542 147 532 q 103 553 122 551 q 45 555 83 555 l 45 599 l 240 614 l 240 468 q 446 614 305 614 q 631 478 608 614 q 656 522 641 501 q 696 565 672 543 q 755 601 720 587 q 832 614 791 614 q 924 598 887 614 q 978 562 960 583 q 1014 489 1008 527 q 1021 350 1021 450 l 1021 85 q 1024 67 1021 75 q 1034 56 1027 60 q 1048 48 1041 51 q 1070 44 1055 45 q 1096 43 1084 43 q 1129 43 1107 43 l 1129 0 z "},"n":{"ha":772,"x_min":45,"x_max":743,"o":"m 743 0 l 587 4 l 431 0 l 431 43 q 472 43 459 43 q 500 45 484 43 q 520 51 515 47 q 531 62 526 54 q 538 79 537 69 q 539 106 539 90 l 539 429 q 535 487 539 463 q 520 535 531 512 q 489 571 510 559 q 436 583 467 583 q 306 523 363 583 q 249 361 249 463 l 249 106 q 250 82 249 92 q 254 66 252 73 q 262 55 256 59 q 275 48 269 51 q 295 44 280 45 q 321 43 310 43 q 357 43 332 43 l 357 0 l 201 4 l 45 0 l 45 43 q 80 43 69 43 q 106 44 92 43 q 127 48 121 45 q 139 55 132 51 q 148 66 146 59 q 151 82 150 73 q 153 106 153 92 l 153 478 q 150 519 153 506 q 135 542 147 532 q 103 553 122 551 q 45 555 83 555 l 45 599 l 240 614 l 240 468 q 446 614 305 614 q 537 598 500 614 q 591 562 574 583 q 628 488 621 527 q 635 350 635 449 l 635 85 q 638 67 635 75 q 648 56 641 60 q 662 48 655 51 q 684 44 669 45 q 710 43 699 43 q 743 43 721 43 l 743 0 z "},"o":{"ha":694,"x_min":39,"x_max":654,"o":"m 654 297 q 613 139 654 211 q 500 25 571 66 q 346 -16 429 -16 q 195 25 265 -16 q 81 137 124 65 q 39 297 39 210 q 79 458 39 383 q 191 577 119 532 q 347 623 262 623 q 501 578 430 623 q 613 459 572 534 q 654 297 654 385 m 539 309 q 538 371 539 346 q 528 434 536 395 q 503 501 519 473 q 434 568 476 545 q 346 591 393 591 q 257 568 301 591 q 187 498 214 544 q 164 432 172 470 q 155 371 156 394 q 154 309 154 347 q 189 113 154 175 q 258 43 216 66 q 347 20 300 20 q 442 47 399 20 q 509 122 486 75 q 539 309 539 183 z "},"p":{"ha":772,"x_min":39,"x_max":724,"o":"m 724 300 q 681 139 724 212 q 567 25 638 66 q 414 -16 496 -16 q 325 5 366 -16 q 266 47 284 26 q 243 82 248 68 l 243 69 l 243 -164 q 244 -188 243 -178 q 248 -204 246 -197 q 257 -215 250 -211 q 269 -222 264 -219 q 290 -225 274 -224 q 316 -226 305 -226 q 351 -227 326 -227 l 351 -269 l 195 -265 l 39 -269 l 39 -227 q 74 -226 64 -227 q 100 -225 85 -226 q 121 -222 116 -224 q 133 -215 126 -219 q 142 -204 140 -211 q 145 -188 144 -197 q 147 -164 147 -178 l 147 486 q 140 532 147 519 q 112 550 133 545 q 39 555 90 555 l 39 599 l 239 614 l 239 522 q 267 550 254 538 q 304 579 280 562 q 362 605 329 595 q 433 614 395 614 q 577 572 510 614 q 684 458 644 531 q 724 300 724 386 m 608 300 q 554 498 608 416 q 422 579 499 579 q 321 550 369 579 q 243 468 273 520 l 243 158 q 245 129 243 137 q 262 100 248 121 q 408 16 317 16 q 548 96 488 16 q 608 300 608 177 z "},"q":{"ha":733,"x_min":47,"x_max":732,"o":"m 732 -269 l 575 -265 l 419 -269 l 419 -227 q 455 -226 444 -227 q 481 -225 465 -226 q 502 -222 496 -224 q 514 -215 507 -219 q 523 -204 521 -211 q 526 -188 524 -197 q 528 -164 528 -178 l 528 85 q 343 -16 451 -16 q 135 77 222 -16 q 47 298 47 169 q 91 459 47 386 q 204 573 134 532 q 354 614 274 614 q 427 600 393 614 q 483 565 460 587 q 518 524 505 543 q 541 488 532 506 l 593 614 l 624 614 l 624 -164 q 625 -191 624 -180 q 632 -208 626 -201 q 642 -219 637 -216 q 663 -224 647 -222 q 691 -226 679 -226 q 732 -227 703 -227 l 732 -269 m 532 189 l 532 385 q 525 433 532 408 q 504 485 518 459 q 470 532 490 511 q 423 566 451 553 q 363 579 395 579 q 223 499 283 579 q 163 298 163 419 q 217 97 163 179 q 349 16 272 16 q 476 72 424 16 q 532 189 532 132 z "},"r":{"ha":544,"x_min":39,"x_max":505,"o":"m 505 529 q 487 483 505 498 q 446 468 468 468 q 404 484 421 468 q 386 528 386 500 q 393 557 386 544 q 408 575 401 570 q 418 582 414 581 q 403 583 415 583 q 314 546 352 583 q 257 451 276 509 q 239 322 239 393 l 239 109 q 243 68 239 79 q 271 50 248 56 q 345 43 294 43 l 374 43 l 374 0 q 197 4 318 4 l 39 0 l 39 43 q 80 43 67 43 q 108 45 92 43 q 129 51 123 47 q 139 62 134 54 q 146 79 145 69 q 147 106 147 90 l 147 478 q 144 519 147 505 q 129 542 141 533 q 97 553 117 551 q 39 555 77 555 l 39 599 l 232 614 l 232 461 q 253 511 241 487 q 286 559 266 534 q 337 599 307 584 q 403 614 367 614 q 476 589 447 614 q 505 529 505 564 z "},"s":{"ha":547,"x_min":46,"x_max":500,"o":"m 500 178 q 445 40 500 96 q 277 -16 389 -16 q 123 45 186 -16 q 106 26 113 33 q 98 16 100 18 q 96 12 96 13 q 71 -12 75 -8 q 61 -16 66 -16 q 48 -9 50 -16 q 46 18 46 -3 l 46 201 q 47 222 46 217 q 51 232 47 228 q 64 236 55 236 q 77 232 73 236 q 83 212 80 227 q 150 66 105 117 q 277 16 194 16 q 394 51 355 16 q 433 142 433 85 q 421 193 433 170 q 392 228 408 216 q 352 251 376 241 q 316 263 329 260 q 289 269 303 267 q 172 297 207 286 q 106 334 137 309 q 46 452 46 382 q 57 512 46 483 q 93 566 68 541 q 162 607 117 592 q 268 623 208 623 q 399 583 345 623 q 422 606 414 595 q 450 623 441 623 q 463 616 461 623 q 465 589 465 610 l 465 449 q 463 421 465 427 q 447 415 460 415 q 431 428 432 416 q 429 451 430 442 q 424 479 428 460 q 414 512 420 499 q 395 543 408 526 q 366 571 382 560 q 325 589 350 581 q 268 596 299 596 q 149 565 186 596 q 113 490 113 534 q 116 463 113 475 q 129 440 120 450 q 146 423 138 431 q 169 409 154 416 q 195 398 184 402 q 224 389 205 394 q 253 382 244 385 q 283 376 262 380 q 342 364 321 370 q 391 345 363 359 q 441 310 420 331 q 500 178 500 252 z "},"t":{"ha":540,"x_min":26,"x_max":461,"o":"m 461 172 q 448 84 461 125 q 402 14 435 43 q 323 -16 370 -16 q 285 -13 304 -16 q 239 1 266 -10 q 193 32 212 13 q 159 87 173 51 q 144 172 144 123 l 144 555 l 26 555 l 26 586 q 112 614 75 588 q 167 680 148 640 q 196 765 186 721 q 205 854 205 808 l 240 854 l 240 599 l 439 599 l 439 555 l 240 555 l 240 170 q 241 144 240 157 q 247 107 241 132 q 260 65 252 82 q 288 34 269 47 q 334 20 307 20 q 400 60 374 20 q 427 175 427 100 l 427 252 l 461 252 l 461 172 z "},"u":{"ha":772,"x_min":45,"x_max":743,"o":"m 743 0 l 543 -16 l 543 110 q 364 -16 485 -16 q 261 0 304 -16 q 198 35 219 15 q 167 92 178 54 q 154 152 156 129 q 153 220 153 176 l 153 428 q 153 469 153 458 q 151 499 153 481 q 148 523 149 518 q 139 537 146 528 q 127 548 132 547 q 107 552 121 549 q 81 555 93 555 q 45 555 68 555 l 45 599 l 249 614 l 249 153 q 250 110 249 126 q 258 74 252 94 q 278 42 265 54 q 314 23 290 31 q 371 16 337 16 q 493 77 446 16 q 539 231 539 138 l 539 478 q 536 519 539 505 q 521 542 533 533 q 489 553 509 551 q 431 555 469 555 l 431 599 l 635 614 l 635 121 q 653 56 635 69 q 743 43 671 43 l 743 0 z "},"v":{"ha":733,"x_min":26,"x_max":705,"o":"m 705 555 q 649 546 673 555 q 611 519 625 536 q 591 491 597 503 q 578 463 585 480 l 396 11 q 390 -2 393 2 q 381 -11 387 -7 q 367 -16 376 -16 q 349 -11 354 -16 q 338 11 345 -5 l 138 504 q 119 537 127 528 q 91 551 111 546 q 26 555 71 555 l 26 599 q 161 595 89 595 l 313 599 l 313 555 q 233 519 233 555 q 241 496 233 514 l 397 109 l 539 463 q 547 496 547 486 q 532 537 547 519 q 481 555 516 555 l 481 599 l 602 595 q 705 599 657 595 l 705 555 z "},"w":{"ha":1002,"x_min":25,"x_max":977,"o":"m 977 555 q 860 467 891 553 l 697 11 q 694 3 694 4 q 690 -4 693 1 q 685 -11 688 -9 q 679 -14 683 -12 q 669 -16 675 -16 q 652 -9 657 -16 q 642 11 646 -3 l 500 406 l 359 12 q 353 -4 355 0 q 346 -12 351 -9 q 332 -16 340 -16 q 314 -9 319 -16 q 302 16 309 -2 l 127 507 q 97 548 115 540 q 25 555 79 555 l 25 599 l 154 595 l 306 599 l 306 555 q 280 555 290 555 q 255 551 271 554 q 232 539 240 548 q 224 518 224 531 q 231 493 224 510 l 363 122 l 482 458 q 450 534 458 525 q 422 551 441 547 q 363 555 404 555 l 363 599 q 486 595 425 595 l 631 599 l 631 555 q 605 555 615 555 q 580 551 595 554 q 557 539 565 548 q 549 518 549 531 q 555 492 549 513 l 693 104 l 819 460 q 827 489 827 480 q 805 536 827 519 q 746 555 784 554 l 746 599 l 875 595 q 977 599 930 595 l 977 555 z "},"x":{"ha":733,"x_min":17,"x_max":717,"o":"m 717 0 q 583 4 654 4 l 433 0 l 433 43 q 471 55 458 43 q 484 78 484 66 q 479 89 484 81 q 466 108 475 96 q 454 123 456 120 l 349 262 q 292 195 307 213 q 256 150 277 177 q 230 111 235 123 q 224 86 224 98 q 264 43 224 48 l 264 0 l 132 4 q 17 0 71 4 l 17 43 q 195 126 126 43 q 325 292 216 153 l 187 471 q 159 506 168 496 q 137 529 151 517 q 117 545 123 542 q 95 552 111 548 q 65 555 78 555 q 24 555 52 555 l 24 599 q 155 595 79 595 l 306 599 l 306 555 q 271 545 284 554 q 257 521 257 536 q 269 496 257 509 l 378 355 l 464 464 q 485 513 485 489 q 444 555 485 551 l 444 599 q 578 595 499 595 q 692 599 637 595 l 692 555 q 526 484 585 553 q 399 326 497 452 l 585 86 q 632 50 608 58 q 717 43 657 43 l 717 0 z "},"y":{"ha":733,"x_min":26,"x_max":705,"o":"m 705 555 q 576 467 613 555 l 332 -126 q 258 -240 302 -195 q 154 -285 214 -285 q 64 -252 102 -285 q 26 -172 26 -219 q 44 -128 26 -143 q 85 -113 62 -113 q 126 -129 109 -113 q 143 -171 143 -144 q 131 -209 143 -191 q 89 -229 118 -226 q 154 -254 115 -254 q 202 -243 180 -254 q 239 -217 224 -231 q 270 -175 254 -202 q 293 -130 285 -148 q 313 -82 300 -113 l 347 0 l 139 507 q 129 528 134 519 q 115 542 124 536 q 101 550 106 547 q 80 554 95 553 q 57 555 66 555 q 26 555 48 555 l 26 599 q 161 595 89 595 l 313 599 l 313 555 q 289 555 298 555 q 265 551 279 554 q 242 540 250 548 q 235 519 235 532 q 243 494 235 515 l 397 121 l 538 463 q 546 496 546 483 q 529 538 546 522 q 481 555 512 555 l 481 599 l 602 595 q 705 599 657 595 l 705 555 z "},"z":{"ha":616,"x_min":39,"x_max":557,"o":"m 557 260 l 533 0 l 75 0 q 54 1 60 0 q 43 6 47 1 q 39 20 39 10 q 52 45 39 28 l 439 568 l 281 568 q 188 559 223 568 q 133 524 153 549 q 104 466 113 499 q 93 375 96 432 l 58 375 l 74 599 l 518 599 q 547 596 540 599 q 554 581 554 593 q 542 557 554 572 l 155 35 l 319 35 q 401 43 368 35 q 457 66 435 51 q 492 110 479 81 q 512 173 505 139 q 522 260 518 207 l 557 260 z "},"{":{"ha":694,"x_min":100,"x_max":593,"o":"m 593 -332 q 587 -345 593 -342 q 566 -347 581 -347 q 468 -335 524 -347 q 372 -294 412 -322 q 311 -223 323 -259 q 300 -115 300 -187 l 300 160 q 281 244 300 209 q 232 297 262 279 q 176 322 202 315 q 122 332 149 330 q 110 333 113 332 q 103 338 106 334 q 100 347 100 341 q 119 363 100 363 q 192 378 159 366 q 237 400 224 391 q 264 425 249 410 q 295 483 290 453 q 300 616 300 513 l 300 871 q 380 993 302 944 q 566 1042 459 1042 q 581 1041 576 1042 q 589 1037 585 1040 q 593 1026 593 1034 q 581 1011 593 1014 q 520 1003 546 1009 q 475 986 494 997 q 449 968 457 975 q 427 947 440 961 q 398 894 404 923 q 393 782 393 865 l 393 532 q 392 502 393 514 q 382 465 391 490 q 358 421 374 439 q 309 381 342 402 q 229 347 276 361 q 390 204 370 307 q 393 78 393 187 l 393 -131 q 397 -197 393 -182 q 452 -277 408 -241 q 571 -317 496 -312 q 581 -318 578 -317 q 587 -319 583 -318 q 592 -324 591 -321 q 593 -332 593 -327 z "},"|":{"ha":386,"x_min":165,"x_max":221,"o":"m 221 -301 q 220 -317 221 -311 q 218 -331 220 -323 q 210 -343 216 -339 q 193 -347 203 -347 q 177 -343 183 -347 q 169 -331 171 -339 q 166 -317 167 -323 q 165 -301 165 -311 l 165 996 q 166 1011 165 1006 q 169 1025 167 1017 q 177 1038 171 1034 q 193 1042 183 1042 q 210 1038 203 1042 q 218 1025 216 1034 q 220 1011 220 1017 q 221 996 221 1006 l 221 -301 z "},"}":{"ha":694,"x_min":100,"x_max":593,"o":"m 593 347 q 574 332 593 332 q 501 316 534 329 q 456 294 469 304 q 429 269 444 284 q 398 212 404 241 q 393 78 393 182 l 393 -176 q 313 -298 391 -250 q 127 -347 234 -347 q 114 -347 119 -347 q 104 -342 109 -346 q 100 -332 100 -339 q 113 -317 100 -319 q 173 -309 147 -315 q 218 -292 199 -302 q 244 -274 236 -281 q 267 -253 253 -267 q 295 -199 290 -229 q 300 -87 300 -170 l 300 163 q 301 193 300 180 q 311 230 302 205 q 335 274 319 255 q 384 313 351 292 q 464 347 417 334 q 302 490 323 388 q 300 616 300 504 l 300 825 q 296 892 300 876 q 241 971 285 936 q 122 1011 197 1006 q 101 1019 104 1013 q 100 1026 100 1021 q 104 1037 100 1034 q 114 1041 109 1040 q 127 1042 119 1042 q 225 1029 170 1042 q 321 989 281 1016 q 382 918 370 954 q 393 810 393 882 l 393 534 q 412 450 393 486 q 461 397 431 415 q 517 372 491 380 q 571 363 544 365 q 583 361 580 362 q 590 357 587 360 q 593 347 593 354 z "},"~":{"ha":772,"x_min":0,"x_max":771,"o":"m 771 403 l 696 342 q 616 293 666 317 q 515 268 560 268 q 463 276 490 268 q 419 292 436 283 q 376 315 401 300 q 328 342 343 334 q 285 358 312 350 q 232 367 258 367 q 20 268 138 367 l 0 292 l 75 353 q 154 401 106 378 q 256 427 210 427 q 308 419 281 427 q 352 402 335 411 q 395 379 370 394 q 444 352 428 360 q 486 336 459 345 q 539 328 513 328 q 751 427 633 328 l 771 403 z "},"":{"ha":694,"x_min":0,"x_max":0,"o":""},"":{"ha":386,"x_min":119,"x_max":267,"o":"m 245 672 q 256 661 245 672 q 267 621 267 650 q 245 569 267 591 q 193 547 223 547 q 141 569 163 547 q 119 621 119 591 q 141 672 119 650 q 193 694 163 694 q 245 672 223 694 m 267 -229 q 244 -281 267 -262 q 193 -300 222 -300 q 142 -281 164 -300 q 119 -229 119 -262 l 174 404 q 179 428 174 422 q 193 435 183 435 q 205 431 201 435 q 211 421 210 427 q 212 403 212 416 l 265 -214 l 267 -229 z "},"":{"ha":616,"x_min":47,"x_max":576,"o":"m 576 165 q 571 142 576 159 q 550 98 566 125 q 512 48 534 72 q 449 5 489 24 q 359 -16 408 -14 l 359 -41 q 354 -56 359 -50 q 339 -62 348 -62 q 325 -56 331 -62 q 318 -41 318 -50 l 318 -14 q 126 86 205 -3 q 47 300 47 175 q 124 515 47 423 q 318 621 201 608 l 318 640 q 325 655 318 648 q 339 661 331 661 q 354 655 348 661 q 359 640 359 648 l 359 623 q 501 579 441 619 q 561 473 561 538 q 543 426 561 443 q 497 408 525 408 q 451 427 469 408 q 433 472 433 445 q 436 490 433 481 q 444 509 438 498 q 465 528 450 520 q 498 536 479 535 q 359 587 454 583 l 359 20 q 405 25 383 20 q 454 44 427 31 q 504 90 481 58 q 541 165 526 121 q 544 173 542 170 q 549 177 545 175 q 558 179 552 179 q 576 165 576 179 m 318 25 l 318 585 q 275 568 296 580 q 234 535 254 557 q 197 482 213 513 q 172 405 182 452 q 163 302 163 359 q 177 184 163 236 q 214 100 191 132 q 264 51 238 68 q 318 25 290 33 z "},"":{"ha":1042,"x_min":86,"x_max":956,"o":"m 956 200 q 942 81 956 135 q 894 -11 928 27 q 810 -49 860 -49 q 751 -41 781 -49 q 701 -24 722 -33 q 649 6 681 -16 q 606 38 618 28 q 558 78 593 48 q 514 115 522 109 q 481 48 508 77 q 413 2 454 19 q 325 -22 372 -14 q 227 -31 278 -31 q 127 12 168 -31 q 86 114 86 54 q 146 220 86 180 q 286 260 205 260 q 419 218 353 260 q 399 350 415 264 q 380 454 383 435 l 165 454 l 165 496 l 374 496 q 366 599 366 562 q 377 704 366 652 q 410 799 388 755 q 463 877 432 843 q 535 929 493 910 q 624 949 576 949 q 784 887 718 949 q 851 737 851 826 q 832 692 851 711 q 787 673 813 673 q 743 692 762 673 q 724 737 724 711 q 743 782 724 763 q 787 802 762 802 q 795 801 790 802 q 803 800 801 800 q 733 882 782 850 q 624 913 684 913 q 558 894 587 913 q 511 846 529 876 q 483 774 494 816 q 467 689 471 732 q 463 599 463 647 q 469 496 463 551 l 686 496 l 686 454 l 475 454 q 491 359 479 429 q 510 240 504 290 q 515 144 515 191 q 572 99 552 114 q 624 63 591 84 q 688 33 657 42 q 753 24 720 24 q 871 76 823 24 q 920 200 920 127 l 956 200 m 422 160 l 421 183 q 286 224 353 224 q 171 195 219 224 q 122 114 122 166 q 153 38 122 70 q 227 5 183 5 q 364 49 306 5 q 422 160 422 92 z "},"":{"ha":1080,"x_min":195,"x_max":884,"o":"m 875 35 q 874 31 875 35 q 867 21 873 28 q 853 13 860 14 q 838 15 846 11 q 826 23 831 19 q 815 33 822 26 l 711 136 q 541 75 636 75 q 368 136 446 75 l 265 33 q 254 23 258 26 q 242 15 250 19 q 227 13 235 11 q 212 21 220 14 q 219 64 195 39 q 224 69 220 66 l 227 72 l 329 176 q 268 347 268 252 q 329 519 268 441 l 227 623 q 218 631 220 629 q 210 641 215 634 q 204 652 205 648 q 205 663 203 656 q 212 675 207 669 q 227 683 220 682 q 242 681 235 685 q 254 673 250 677 q 265 663 258 669 l 370 558 q 541 619 445 619 q 711 558 633 619 l 814 661 q 825 672 821 668 q 837 680 829 675 q 852 682 844 684 q 867 673 859 680 q 860 630 884 656 q 855 625 859 629 l 852 623 l 750 519 q 811 347 811 444 q 751 176 811 250 l 854 72 q 865 60 862 64 q 873 49 869 56 q 875 35 877 42 m 693 194 q 724 226 693 194 q 755 347 755 258 q 693 500 755 437 q 541 564 630 564 q 387 500 451 564 q 323 347 323 437 q 387 194 323 258 q 541 131 451 131 q 693 194 630 131 z "},"":{"ha":1042,"x_min":16,"x_max":1025,"o":"m 1025 905 q 847 815 902 905 l 636 471 l 833 471 l 833 429 l 610 429 l 579 379 l 579 265 l 833 265 l 833 224 l 579 224 l 579 111 q 581 77 579 87 q 594 57 583 66 q 628 45 606 48 q 690 43 650 43 l 722 43 l 722 0 q 519 4 672 4 q 317 0 367 4 l 317 43 l 350 43 q 412 45 391 43 q 445 57 434 48 q 458 76 456 66 q 460 109 460 86 l 460 224 l 208 224 l 208 265 l 460 265 l 460 379 l 429 429 l 208 429 l 208 471 l 403 471 l 168 854 q 145 884 155 876 q 111 899 136 893 q 40 905 86 905 l 16 905 l 16 949 l 196 945 q 401 949 351 945 l 401 905 q 328 898 351 905 q 304 871 304 891 q 314 847 304 861 l 545 471 l 586 471 l 794 810 q 808 851 808 831 q 789 890 808 874 q 729 905 769 905 l 729 949 l 889 945 q 1025 949 960 945 l 1025 905 z "},"":{"ha":386,"x_min":165,"x_max":221,"o":"m 221 476 q 213 461 221 467 q 193 456 204 456 q 174 461 182 456 q 165 476 165 467 l 165 996 q 166 1011 165 1006 q 169 1025 167 1017 q 177 1038 171 1034 q 193 1042 183 1042 q 210 1038 203 1042 q 218 1025 216 1034 q 220 1011 220 1017 q 221 996 221 1006 l 221 476 m 221 -301 q 220 -317 221 -311 q 218 -331 220 -323 q 210 -343 216 -339 q 193 -347 203 -347 q 177 -343 183 -347 q 169 -331 171 -339 q 166 -317 167 -323 q 165 -301 165 -311 l 165 218 q 174 233 165 227 q 193 239 182 239 q 213 233 204 239 q 221 218 221 227 l 221 -301 z "},"":{"ha":672,"x_min":52,"x_max":621,"o":"m 621 269 q 509 107 621 176 q 566 -54 566 34 q 499 -227 566 -155 q 336 -298 433 -298 q 228 -262 276 -298 q 156 -166 180 -225 q 131 -40 131 -108 q 150 5 131 -14 q 195 24 169 24 q 239 5 220 24 q 258 -40 258 -14 q 239 -85 258 -66 q 195 -104 220 -104 q 175 -102 186 -104 q 236 -197 193 -160 q 336 -235 279 -235 q 441 -181 400 -235 q 482 -54 482 -127 q 353 115 482 44 l 229 184 q 101 290 151 229 q 52 425 52 351 q 164 586 52 519 q 107 749 107 661 q 174 921 107 850 q 336 993 240 993 q 445 956 397 993 q 517 861 492 920 q 542 734 542 802 q 523 690 542 709 q 478 671 504 671 q 433 690 452 671 q 414 734 414 709 q 433 780 414 760 q 478 799 452 799 q 497 796 486 799 q 437 892 479 854 q 336 929 394 929 q 232 876 273 929 q 191 749 191 822 q 227 653 191 696 q 319 579 262 610 l 443 510 q 571 405 522 466 q 621 269 621 344 m 513 269 q 396 425 513 359 l 272 494 q 191 555 227 519 q 160 425 160 519 q 277 269 160 335 l 400 200 q 482 138 449 171 q 513 269 513 176 z "},"":{"ha":694,"x_min":157,"x_max":539,"o":"m 272 886 q 282 876 272 886 q 292 840 292 866 q 273 794 292 814 q 224 774 254 774 q 176 794 196 774 q 157 840 157 814 q 176 885 157 865 q 225 905 195 905 q 272 886 252 905 m 539 840 q 520 794 539 814 q 471 774 501 774 q 424 794 443 774 q 404 840 404 814 q 423 885 404 865 q 472 905 441 905 q 519 885 499 905 q 539 840 539 865 z "},"":{"ha":948,"x_min":0,"x_max":949,"o":"m 949 475 q 885 236 949 346 q 712 63 821 127 q 475 0 603 0 q 290 38 378 0 q 139 139 202 75 q 38 290 75 202 q 0 475 0 378 q 63 712 0 603 q 236 885 127 821 q 475 949 346 949 q 659 911 571 949 q 810 810 747 873 q 911 659 873 747 q 949 475 949 571 m 893 475 q 860 637 893 559 q 771 771 827 715 q 637 860 715 827 q 475 893 559 893 q 312 860 389 893 q 178 771 234 827 q 89 637 122 715 q 56 475 56 559 q 89 312 56 389 q 178 178 122 234 q 312 89 234 122 q 475 56 389 56 q 637 89 559 56 q 771 178 715 122 q 860 312 827 234 q 893 475 893 389 m 679 392 q 623 258 679 319 q 481 196 568 196 q 293 277 372 196 q 214 475 214 357 q 293 671 214 590 q 481 753 372 753 q 544 741 514 753 q 587 718 574 728 q 621 688 600 707 l 660 743 q 671 753 665 753 q 677 749 676 753 q 679 734 679 745 l 679 553 q 679 541 679 544 q 676 536 678 538 q 668 534 673 534 q 662 535 664 534 q 658 537 659 535 q 657 541 657 540 q 656 547 656 543 q 598 680 644 631 q 489 729 552 729 q 450 725 471 729 q 400 705 429 721 q 348 663 370 688 q 309 588 326 637 q 293 473 293 538 q 309 360 293 409 q 348 286 326 311 q 400 245 371 260 q 450 225 430 229 q 489 221 471 221 q 606 268 555 221 q 661 392 656 314 q 662 399 661 397 q 664 402 662 401 q 669 404 665 404 q 679 392 679 404 z "},"":{"ha":623,"x_min":49,"x_max":575,"o":"m 575 631 q 567 591 575 608 q 549 564 559 574 q 524 549 538 555 q 499 541 510 543 q 479 539 489 539 q 416 563 441 539 q 389 618 392 587 q 331 557 371 581 q 236 533 291 533 q 175 538 205 533 q 115 555 144 544 q 67 587 85 566 q 49 636 49 608 q 77 706 49 672 q 165 762 104 739 q 243 784 199 776 q 312 794 287 792 q 380 798 337 795 l 380 833 q 343 926 380 895 q 257 958 305 958 q 188 948 224 958 q 131 914 153 937 q 163 908 150 913 q 181 895 176 903 q 189 881 186 887 q 191 869 191 875 q 176 836 191 849 q 136 823 161 823 q 98 836 113 823 q 83 869 83 848 q 135 948 83 916 q 258 979 186 979 q 419 926 354 979 q 454 877 447 902 q 461 811 461 851 l 461 616 q 463 607 461 613 q 468 591 464 601 q 481 575 471 582 q 504 568 490 568 q 521 571 513 568 q 537 590 529 574 q 546 631 546 605 l 546 685 l 575 685 l 575 631 m 554 478 q 548 467 554 472 q 533 463 541 463 l 90 463 q 76 467 82 463 q 69 478 69 472 q 76 488 69 484 q 90 492 82 492 l 533 492 q 548 488 541 492 q 554 478 554 484 m 380 681 l 380 778 q 281 766 325 777 q 212 742 238 756 q 169 708 186 727 q 145 672 152 689 q 139 637 139 655 q 170 578 139 602 q 244 554 200 554 q 303 566 273 554 q 356 607 332 577 q 380 681 380 637 z "},"":{"ha":772,"x_min":154,"x_max":618,"o":"m 385 17 q 381 5 386 11 q 371 0 377 0 l 368 0 q 355 9 358 0 q 158 326 292 190 q 154 336 154 328 q 158 346 154 342 q 355 663 292 480 q 368 671 357 671 l 371 671 q 381 666 377 671 q 385 654 385 661 q 254 336 345 486 q 385 17 345 188 m 616 17 q 613 5 618 11 q 603 0 609 0 l 600 0 q 587 9 590 0 q 390 326 524 190 q 386 336 386 328 q 390 346 386 342 q 587 663 524 480 q 600 671 589 671 l 603 671 q 613 666 609 671 q 616 654 617 661 q 486 336 576 486 q 616 17 576 188 z "},"":{"ha":1080,"x_min":78,"x_max":1002,"o":"m 1002 212 q 994 193 1002 201 q 974 184 985 184 q 954 193 962 184 q 946 212 946 201 l 946 454 l 106 454 q 86 463 94 454 q 78 482 78 471 q 86 502 78 494 q 106 510 94 510 l 974 510 q 994 502 985 510 q 1002 482 1002 494 l 1002 212 z "},"":{"ha":462,"x_min":16,"x_max":383,"o":"m 383 260 l 16 260 l 16 340 l 383 340 l 383 260 z "},"":{"ha":948,"x_min":0,"x_max":949,"o":"m 949 475 q 885 236 949 346 q 712 63 821 127 q 475 0 603 0 q 290 38 378 0 q 139 139 202 75 q 38 290 75 202 q 0 475 0 378 q 63 712 0 603 q 236 885 127 821 q 475 949 346 949 q 659 911 571 949 q 810 810 747 873 q 911 659 873 747 q 949 475 949 571 m 893 475 q 860 637 893 559 q 771 771 827 715 q 637 860 715 827 q 475 893 559 893 q 312 860 389 893 q 178 771 234 827 q 89 637 122 715 q 56 475 56 559 q 89 312 56 389 q 178 178 122 234 q 312 89 234 122 q 475 56 389 56 q 637 89 559 56 q 771 178 715 122 q 860 312 827 234 q 893 475 893 389 m 762 289 q 757 257 762 275 q 734 222 752 239 q 689 204 716 204 q 593 237 629 204 q 570 269 578 251 q 562 301 563 287 q 561 346 561 315 q 560 391 561 377 q 552 420 559 404 q 532 449 546 435 q 461 475 506 475 l 374 475 l 374 282 q 383 252 374 259 q 433 245 392 245 l 453 245 l 453 222 l 340 224 l 229 222 l 229 245 l 248 245 q 298 252 289 245 q 307 282 307 259 l 307 685 q 298 714 307 707 q 248 721 289 721 l 229 721 l 229 745 l 469 745 q 610 704 553 745 q 668 607 668 663 q 630 530 668 564 q 534 482 592 496 q 628 393 611 453 l 637 332 q 657 247 647 271 q 692 222 667 222 q 725 238 710 222 q 743 290 741 254 q 751 301 743 301 q 762 289 762 301 m 590 607 q 580 661 590 639 q 556 695 570 684 q 518 713 543 707 q 478 720 494 719 q 435 721 462 721 q 390 720 397 721 q 378 714 382 718 q 374 705 374 709 q 374 690 374 701 l 374 492 l 458 492 q 590 607 590 492 z "},"":{"ha":694,"x_min":97,"x_max":599,"o":"m 599 818 l 97 818 l 97 861 l 599 861 l 599 818 z "},"":{"ha":521,"x_min":68,"x_max":453,"o":"m 453 755 q 397 620 453 676 q 261 564 340 564 q 124 620 181 564 q 68 755 68 676 q 124 892 68 836 q 261 949 180 949 q 397 892 340 949 q 453 755 453 836 m 397 755 q 357 853 397 813 q 261 893 317 893 q 163 853 203 893 q 123 755 123 813 q 163 659 123 699 q 261 619 203 619 q 357 659 317 619 q 397 755 397 699 z "},"":{"ha":1080,"x_min":78,"x_max":1002,"o":"m 998 44 q 1000 41 998 44 q 1002 28 1002 38 q 998 12 1002 18 q 985 3 994 5 q 971 1 977 1 q 956 0 966 0 l 123 0 q 111 0 115 0 q 99 2 106 1 q 88 6 92 3 q 81 14 84 9 q 78 28 78 20 q 86 47 78 41 q 102 55 94 54 q 123 56 110 56 l 513 56 l 513 435 l 123 435 q 111 435 115 435 q 99 437 106 435 q 88 441 92 438 q 81 449 84 444 q 78 463 78 454 q 86 482 78 475 q 102 489 94 488 q 123 490 110 490 l 513 490 l 513 879 q 513 895 513 889 q 516 909 514 901 q 524 921 518 917 q 541 925 530 925 q 557 921 551 925 q 565 909 563 917 q 568 895 567 901 q 568 879 568 889 l 568 490 l 956 490 q 971 490 966 490 q 985 487 977 489 q 998 479 994 485 q 1002 463 1002 473 q 998 446 1002 452 q 985 438 994 440 q 971 435 977 436 q 956 435 966 435 l 568 435 l 568 56 l 956 56 q 971 55 966 56 q 985 52 977 54 q 998 44 994 50 z "},"":{"ha":498,"x_min":50,"x_max":449,"o":"m 449 570 l 421 425 l 50 425 q 52 445 50 440 q 61 456 53 449 l 253 633 q 358 818 358 733 q 323 914 358 873 q 224 954 288 954 q 143 932 180 954 q 89 869 106 909 l 102 869 q 141 857 127 869 q 155 827 155 844 q 138 793 155 804 q 103 782 121 782 q 96 782 100 782 q 83 785 92 783 q 68 792 75 787 q 56 806 61 797 q 50 829 50 816 q 103 933 50 888 q 237 979 155 979 q 389 934 328 979 q 449 818 449 888 q 444 784 449 800 q 434 754 439 767 q 412 723 429 741 q 384 693 395 705 q 343 659 373 682 q 295 621 313 635 q 233 575 277 608 l 126 489 l 307 489 q 401 496 395 489 q 424 570 414 510 l 449 570 z "},"":{"ha":498,"x_min":41,"x_max":457,"o":"m 457 567 q 396 454 457 502 q 244 407 334 407 q 101 444 160 407 q 41 538 41 481 q 59 574 41 562 q 98 586 76 586 q 137 573 121 586 q 154 539 154 561 q 135 503 154 515 q 87 493 115 490 q 157 445 112 460 q 241 429 201 429 q 277 435 260 429 q 313 455 295 441 q 343 498 332 469 q 354 567 354 527 q 324 668 354 631 q 235 705 294 705 l 192 705 q 172 707 177 705 q 167 715 167 709 q 179 724 168 723 l 182 725 q 221 728 205 725 q 310 771 278 728 q 338 865 338 809 q 309 937 338 916 q 241 958 280 958 q 168 946 206 958 q 109 907 130 935 q 171 865 171 907 q 157 835 171 847 q 119 823 143 823 q 83 835 98 823 q 69 867 69 846 q 120 947 69 914 q 245 979 170 979 q 375 947 320 979 q 431 865 431 915 q 392 775 431 816 q 290 718 353 735 q 412 662 367 705 q 457 567 457 620 z "},"":{"ha":694,"x_min":261,"x_max":519,"o":"m 519 920 q 496 878 519 896 l 285 708 l 261 733 l 428 946 q 469 970 444 970 q 504 954 488 970 q 519 920 519 939 z "},"":{"ha":772,"x_min":45,"x_max":742,"o":"m 742 0 l 541 -16 l 541 104 l 539 104 q 363 -16 483 -16 q 250 3 298 -16 l 250 -161 q 251 -181 250 -173 q 252 -196 252 -189 q 257 -207 253 -203 q 263 -215 261 -212 q 274 -221 266 -219 q 287 -224 282 -222 q 306 -226 292 -225 q 329 -227 320 -227 q 358 -227 338 -227 l 358 -269 l 201 -265 l 45 -269 l 45 -227 q 74 -227 65 -227 q 97 -226 83 -227 q 116 -224 111 -225 q 129 -221 121 -222 q 139 -215 137 -219 q 146 -207 142 -212 q 151 -196 150 -203 q 152 -181 151 -189 q 153 -161 153 -173 l 153 473 q 150 516 153 503 q 135 540 147 530 q 104 552 123 549 q 45 554 84 554 l 45 597 l 250 612 l 250 154 q 252 112 250 127 q 259 75 253 96 q 278 43 266 54 q 313 24 290 32 q 370 16 336 16 q 491 77 446 16 q 536 232 536 138 l 536 473 q 529 527 536 511 q 501 548 522 542 q 428 554 479 554 l 428 597 l 633 612 l 633 123 q 641 70 633 85 q 669 49 648 55 q 742 43 690 43 l 742 0 z "},"":{"ha":848,"x_min":78,"x_max":808,"o":"m 804 952 q 806 949 804 952 q 808 936 808 946 q 804 920 808 926 q 792 911 800 913 q 778 909 784 909 q 762 908 772 908 l 693 908 l 693 -224 q 693 -236 693 -232 q 691 -248 692 -241 q 687 -259 690 -255 q 679 -266 684 -263 q 665 -269 673 -269 q 646 -261 652 -269 q 638 -245 640 -253 q 637 -224 637 -237 l 637 908 l 541 908 l 541 -224 q 540 -236 541 -232 q 538 -248 540 -241 q 534 -259 537 -255 q 526 -266 532 -263 q 513 -269 521 -269 q 493 -261 500 -269 q 486 -245 487 -253 q 485 -224 485 -237 l 485 319 q 374 334 430 321 q 265 374 319 347 q 170 436 211 400 q 103 526 129 473 q 78 643 78 580 q 124 803 78 729 q 250 920 170 877 q 425 964 330 964 l 762 964 q 778 963 772 964 q 792 960 784 962 q 804 952 800 958 z "},"":{"ha":1080,"x_min":467,"x_max":614,"o":"m 592 527 q 603 516 592 527 q 614 475 614 505 q 592 423 614 445 q 541 401 570 401 q 489 423 511 401 q 467 475 467 445 q 489 527 467 505 q 541 549 511 549 q 592 527 570 549 z "},"":{"ha":616,"x_min":123,"x_max":494,"o":"m 494 -184 q 487 -215 494 -201 q 463 -238 479 -229 q 429 -255 446 -248 q 383 -266 412 -262 q 332 -273 354 -271 q 275 -276 311 -275 q 218 -278 239 -277 q 160 -278 197 -278 l 123 -278 l 123 -241 l 142 -241 q 196 -241 177 -241 q 249 -239 216 -241 q 300 -234 281 -238 q 339 -224 319 -231 q 369 -208 359 -218 q 378 -184 378 -198 q 272 -127 378 -127 l 272 7 l 345 7 l 345 -92 q 451 -115 407 -92 q 494 -184 494 -139 z "},"":{"ha":508,"x_min":89,"x_max":419,"o":"m 419 425 q 257 428 383 428 q 94 425 130 428 l 94 450 l 126 450 q 191 455 170 450 q 215 466 211 459 q 220 490 220 473 l 220 922 q 89 900 168 900 l 89 926 q 271 979 208 926 q 291 976 288 979 q 294 958 294 973 l 294 490 q 299 466 294 473 q 323 454 303 458 q 387 450 342 450 l 419 450 l 419 425 z "},"":{"ha":582,"x_min":33,"x_max":550,"o":"m 550 753 q 474 597 550 661 q 290 533 397 533 q 110 596 186 533 q 33 753 33 660 q 109 912 33 844 q 292 979 184 979 q 474 912 398 979 q 550 753 550 846 m 529 478 q 523 467 529 472 q 509 463 517 463 l 75 463 q 60 467 66 463 q 54 478 54 472 q 60 488 54 484 q 75 492 66 492 l 509 492 q 523 488 517 492 q 529 478 529 484 m 453 760 q 422 895 453 853 q 365 942 400 926 q 290 958 330 958 q 216 942 253 958 q 157 893 179 925 q 129 760 129 850 q 158 623 129 665 q 292 558 204 558 q 371 577 335 558 q 427 629 408 597 q 453 760 453 672 z "},"":{"ha":772,"x_min":153,"x_max":618,"o":"m 618 336 q 614 326 618 330 q 416 9 479 190 q 404 0 414 0 l 401 0 q 390 5 394 0 q 387 17 385 11 q 518 336 425 186 q 387 654 425 487 q 390 666 385 661 q 401 671 394 671 l 404 671 q 416 663 414 671 q 614 346 479 480 q 618 336 618 338 m 386 336 q 382 326 386 330 q 184 9 248 190 q 172 0 182 0 l 170 0 q 158 5 162 0 q 155 17 153 11 q 286 336 193 186 q 155 654 193 487 q 158 666 153 661 q 170 671 162 671 l 172 671 q 184 663 182 671 q 382 346 248 480 q 386 336 386 338 z "},"":{"ha":1145,"x_min":89,"x_max":1057,"o":"m 419 425 q 257 428 383 428 q 94 425 130 428 l 94 450 l 126 450 q 191 455 170 450 q 215 466 211 459 q 220 490 220 473 l 220 922 q 89 900 168 900 l 89 926 q 271 979 208 926 q 291 976 288 979 q 294 958 294 973 l 294 490 q 299 466 294 473 q 323 454 303 458 q 387 450 342 450 l 419 450 l 419 425 m 1057 138 l 957 138 l 957 65 q 960 41 957 47 q 980 30 964 34 q 1034 26 996 26 l 1054 26 l 1054 0 q 918 3 1013 3 q 783 0 823 3 l 783 26 l 804 26 q 857 30 841 26 q 877 41 873 34 q 880 65 880 47 l 880 138 l 614 138 l 614 164 l 921 554 q 940 564 929 564 q 955 560 952 564 q 957 543 957 557 l 957 164 l 1057 164 l 1057 138 m 936 921 q 932 907 936 913 l 376 12 q 353 0 367 0 q 333 8 341 0 q 325 28 325 16 q 329 43 325 35 l 885 936 q 908 949 891 949 q 928 941 920 949 q 936 921 936 932 m 886 164 l 886 473 l 642 164 l 886 164 z "},"":{"ha":1145,"x_min":89,"x_max":1057,"o":"m 419 425 q 257 428 383 428 q 94 425 130 428 l 94 450 l 126 450 q 191 455 170 450 q 215 466 211 459 q 220 490 220 473 l 220 922 q 89 900 168 900 l 89 926 q 271 979 208 926 q 291 976 288 979 q 294 958 294 973 l 294 490 q 299 466 294 473 q 323 454 303 458 q 387 450 342 450 l 419 450 l 419 425 m 1057 144 l 1029 0 l 659 0 q 660 20 659 16 q 669 31 661 24 l 861 210 q 965 393 965 308 q 931 489 965 449 q 832 529 897 529 q 750 507 787 529 q 697 444 713 484 l 710 444 q 748 432 734 444 q 762 401 762 419 q 745 368 762 379 q 711 357 728 357 q 705 357 709 357 q 692 360 701 357 q 676 367 683 362 q 664 381 669 372 q 659 404 659 391 q 711 509 659 463 q 844 555 764 555 q 997 510 937 555 q 1057 393 1057 465 q 1048 346 1057 368 q 1027 306 1040 323 q 983 260 1015 288 q 924 213 950 233 q 840 150 899 193 l 734 64 l 916 64 q 1010 71 1003 64 q 1032 144 1019 82 l 1057 144 m 878 921 q 873 907 878 913 l 318 12 q 296 0 311 0 q 276 8 283 0 q 268 28 268 16 q 272 43 268 35 l 827 936 q 850 949 836 949 q 870 941 862 949 q 878 921 878 933 z "},"":{"ha":1145,"x_min":83,"x_max":1057,"o":"m 498 567 q 437 454 498 502 q 286 407 376 407 q 143 444 202 407 q 83 538 83 481 q 101 574 83 562 q 140 586 119 586 q 180 573 163 586 q 196 539 196 561 q 177 503 196 516 q 131 493 157 490 q 199 445 154 460 q 283 429 243 429 q 319 435 302 429 q 355 455 337 441 q 385 498 374 469 q 396 567 396 527 q 366 668 396 631 q 277 705 336 705 l 233 705 q 214 707 219 705 q 208 715 208 709 q 209 719 208 718 q 212 722 210 721 q 215 723 214 723 q 220 724 216 724 q 224 725 223 725 q 262 728 249 725 q 351 771 319 728 q 380 865 380 810 q 351 937 380 916 q 283 958 322 958 q 210 946 249 958 q 151 907 172 935 q 212 865 212 907 q 199 835 212 847 q 163 823 185 823 q 126 835 140 823 q 111 867 111 846 q 162 946 111 913 q 288 979 213 979 q 417 947 361 979 q 472 865 472 915 q 433 775 472 816 q 332 718 394 735 q 453 662 408 705 q 498 567 498 620 m 1057 138 l 957 138 l 957 65 q 960 41 957 47 q 980 30 964 34 q 1034 26 996 26 l 1054 26 l 1054 0 q 918 3 1013 3 q 783 0 823 3 l 783 26 l 804 26 q 857 30 841 26 q 877 41 873 34 q 880 65 880 47 l 880 138 l 614 138 l 614 164 l 921 554 q 940 564 929 564 q 955 560 952 564 q 957 543 957 557 l 957 164 l 1057 164 l 1057 138 m 936 921 q 932 907 936 913 l 376 12 q 353 0 367 0 q 333 8 341 0 q 325 28 325 16 q 329 43 325 35 l 885 936 q 908 949 891 949 q 928 941 920 949 q 936 921 936 932 m 886 164 l 886 473 l 642 164 l 886 164 z "},"":{"ha":655,"x_min":78,"x_max":576,"o":"m 576 -100 q 499 -233 576 -182 q 309 -285 421 -285 q 195 -267 243 -285 q 123 -220 147 -250 q 89 -160 99 -191 q 78 -97 78 -130 q 85 -42 78 -66 q 105 2 92 -17 q 126 29 118 20 q 149 50 134 37 q 218 126 189 85 q 261 201 247 168 q 282 275 275 235 q 291 334 290 315 q 292 379 292 353 l 292 401 q 294 429 292 422 q 309 435 296 435 q 326 418 325 435 l 326 385 q 307 198 326 284 q 229 28 288 111 q 210 -2 216 9 q 199 -40 204 -14 q 193 -107 193 -67 q 194 -142 193 -130 q 198 -175 195 -155 q 208 -207 201 -195 q 229 -231 216 -218 q 262 -249 241 -243 q 313 -254 283 -254 q 435 -231 374 -254 q 525 -160 496 -208 q 469 -144 490 -164 q 449 -97 449 -125 q 467 -52 449 -70 q 513 -33 484 -33 q 558 -50 539 -33 q 576 -100 576 -66 m 360 672 q 371 661 360 672 q 382 621 382 650 q 360 569 382 591 q 309 547 338 547 q 257 569 279 547 q 235 621 235 591 q 257 672 235 650 q 309 694 279 694 q 360 672 338 694 z "},"":{"ha":1042,"x_min":45,"x_max":996,"o":"m 996 0 l 814 4 q 614 0 664 4 l 614 43 q 729 85 729 43 q 725 104 729 88 l 652 317 l 309 317 l 244 135 q 241 114 241 130 q 269 64 241 85 q 346 43 297 43 l 346 0 l 186 4 l 45 0 l 45 43 q 144 65 105 44 q 200 136 182 86 l 488 966 q 499 988 493 983 q 521 994 505 994 q 538 990 532 994 q 546 982 544 987 q 553 966 549 978 l 852 98 q 886 53 864 64 q 971 43 909 43 l 996 43 l 996 0 m 636 359 l 479 811 l 323 359 l 636 359 m 616 1065 l 597 1036 l 361 1166 q 330 1204 334 1178 q 341 1245 326 1227 q 379 1263 356 1263 q 415 1246 398 1263 l 616 1065 z "},"":{"ha":1042,"x_min":45,"x_max":996,"o":"m 996 0 l 814 4 q 614 0 664 4 l 614 43 q 729 85 729 43 q 725 104 729 88 l 652 317 l 309 317 l 244 135 q 241 114 241 130 q 269 64 241 85 q 346 43 297 43 l 346 0 l 186 4 l 45 0 l 45 43 q 144 65 105 44 q 200 136 182 86 l 488 966 q 499 988 493 983 q 521 994 505 994 q 538 990 532 994 q 546 982 544 987 q 553 966 549 978 l 852 98 q 886 53 864 64 q 971 43 909 43 l 996 43 l 996 0 m 636 359 l 479 811 l 323 359 l 636 359 m 711 1204 q 681 1166 707 1178 l 444 1036 l 425 1065 l 627 1246 q 663 1263 644 1263 q 701 1245 686 1263 q 711 1204 715 1227 z "},"":{"ha":1042,"x_min":45,"x_max":996,"o":"m 996 0 l 814 4 q 614 0 664 4 l 614 43 q 729 85 729 43 q 725 104 729 88 l 652 317 l 309 317 l 244 135 q 241 114 241 130 q 269 64 241 85 q 346 43 297 43 l 346 0 l 186 4 l 45 0 l 45 43 q 144 65 105 44 q 200 136 182 86 l 488 966 q 499 988 493 983 q 521 994 505 994 q 538 990 532 994 q 546 982 544 987 q 553 966 549 978 l 852 98 q 886 53 864 64 q 971 43 909 43 l 996 43 l 996 0 m 636 359 l 479 811 l 323 359 l 636 359 m 730 1044 l 714 1022 l 519 1114 l 325 1022 l 311 1044 l 521 1207 l 730 1044 z "},"":{"ha":1042,"x_min":45,"x_max":996,"o":"m 996 0 l 814 4 q 614 0 664 4 l 614 43 q 729 85 729 43 q 725 104 729 88 l 652 317 l 309 317 l 244 135 q 241 114 241 130 q 269 64 241 85 q 346 43 297 43 l 346 0 l 186 4 l 45 0 l 45 43 q 144 65 105 44 q 200 136 182 86 l 488 966 q 499 988 493 983 q 521 994 505 994 q 538 990 532 994 q 546 982 544 987 q 553 966 549 978 l 852 98 q 886 53 864 64 q 971 43 909 43 l 996 43 l 996 0 m 636 359 l 479 811 l 323 359 l 636 359 m 753 1131 q 706 1079 719 1093 q 672 1048 692 1065 q 637 1027 652 1031 q 603 1022 623 1022 q 517 1054 570 1022 q 508 1059 516 1054 q 497 1065 499 1064 q 487 1071 495 1066 q 474 1077 478 1076 q 463 1081 471 1078 q 451 1086 456 1084 q 439 1088 446 1087 q 427 1089 433 1089 q 371 1072 399 1089 q 328 1039 342 1055 l 313 1022 l 290 1043 q 337 1094 324 1080 q 371 1125 351 1108 q 406 1147 391 1142 q 440 1152 420 1152 q 526 1120 473 1152 q 535 1115 527 1120 q 546 1108 544 1109 q 556 1103 548 1107 q 569 1097 565 1098 q 580 1092 572 1095 q 592 1088 587 1089 q 604 1085 597 1086 q 616 1084 610 1084 q 651 1091 633 1084 q 683 1108 669 1098 q 708 1128 696 1118 q 724 1145 719 1138 l 730 1152 l 753 1131 z "},"":{"ha":1042,"x_min":45,"x_max":996,"o":"m 996 0 l 814 4 q 614 0 664 4 l 614 43 q 729 85 729 43 q 725 104 729 88 l 652 317 l 309 317 l 244 135 q 241 114 241 130 q 269 64 241 85 q 346 43 297 43 l 346 0 l 186 4 l 45 0 l 45 43 q 144 65 105 44 q 200 136 182 86 l 488 966 q 499 988 493 983 q 521 994 505 994 q 538 990 532 994 q 546 982 544 987 q 553 966 549 978 l 852 98 q 886 53 864 64 q 971 43 909 43 l 996 43 l 996 0 m 636 359 l 479 811 l 323 359 l 636 359 m 423 1135 q 433 1125 423 1135 q 443 1089 443 1115 q 424 1043 443 1063 q 375 1022 406 1022 q 328 1042 348 1022 q 309 1089 309 1063 q 327 1134 309 1114 q 376 1154 346 1154 q 423 1135 404 1154 m 715 1135 q 725 1125 715 1135 q 734 1089 734 1115 q 716 1043 734 1063 q 667 1022 697 1022 q 620 1042 640 1022 q 600 1089 600 1063 q 619 1134 600 1114 q 668 1154 637 1154 q 715 1135 695 1154 z "},"":{"ha":1042,"x_min":45,"x_max":996,"o":"m 996 0 l 814 4 q 614 0 664 4 l 614 43 q 729 85 729 43 q 725 104 729 88 l 652 317 l 309 317 l 244 135 q 241 114 241 130 q 269 64 241 85 q 346 43 297 43 l 346 0 l 186 4 l 45 0 l 45 43 q 144 65 105 44 q 200 136 182 86 l 488 966 q 499 988 493 983 q 521 994 505 994 q 538 990 532 994 q 546 982 544 987 q 553 966 549 978 l 852 98 q 886 53 864 64 q 971 43 909 43 l 996 43 l 996 0 m 636 359 l 479 811 l 323 359 l 636 359 m 608 1117 q 521 1197 608 1197 q 433 1117 433 1197 q 521 1036 433 1036 q 608 1117 608 1036 m 654 1118 q 616 1030 654 1067 q 519 994 577 994 q 427 1030 466 994 q 387 1118 387 1066 q 426 1202 387 1166 q 522 1239 464 1239 q 616 1203 578 1239 q 654 1118 654 1167 z "},"":{"ha":1254,"x_min":45,"x_max":1214,"o":"m 1214 358 l 1156 0 l 471 0 l 471 43 q 561 52 543 43 q 578 106 578 61 l 578 435 l 354 435 l 250 143 q 243 113 243 123 q 270 64 243 85 q 346 43 297 43 l 346 0 l 186 4 q 45 0 136 4 l 45 43 q 149 67 113 43 q 201 136 185 92 l 476 904 q 448 905 467 904 q 421 905 430 905 l 358 905 l 358 949 l 1136 949 l 1175 636 l 1140 636 q 1129 711 1135 681 q 1116 772 1124 741 q 1096 822 1107 803 q 1066 859 1084 841 q 1024 885 1048 876 q 968 900 1000 895 q 893 905 935 905 l 761 905 q 704 896 714 905 q 693 850 693 886 l 693 478 l 811 478 q 889 486 860 478 q 932 516 918 494 q 950 565 946 538 q 954 640 954 591 l 989 640 l 989 272 l 954 272 q 953 325 954 304 q 946 366 951 345 q 932 397 941 386 q 906 418 922 409 q 867 431 890 427 q 811 435 844 435 l 693 435 l 693 98 q 704 52 693 62 q 761 43 714 43 l 893 43 q 971 47 937 43 q 1031 63 1005 52 q 1077 88 1058 75 q 1111 124 1096 101 q 1135 168 1125 146 q 1153 222 1145 189 q 1166 285 1161 256 q 1179 357 1172 313 l 1179 358 l 1214 358 m 578 478 l 578 839 q 577 858 578 851 q 571 877 576 865 q 554 893 566 888 q 521 900 541 899 l 370 478 l 578 478 z "},"":{"ha":1002,"x_min":78,"x_max":924,"o":"m 924 323 q 900 205 924 265 q 835 95 877 145 q 728 10 793 44 q 587 -29 663 -24 l 587 -92 q 693 -115 650 -92 q 737 -184 737 -139 q 730 -215 737 -201 q 706 -238 722 -229 q 672 -255 689 -248 q 626 -266 654 -262 q 575 -273 597 -271 q 518 -276 553 -275 q 461 -278 482 -277 q 403 -278 440 -278 l 367 -278 l 367 -241 l 385 -241 q 439 -241 420 -241 q 491 -239 458 -241 q 543 -234 524 -238 q 582 -224 562 -231 q 611 -208 602 -218 q 621 -184 621 -198 q 515 -127 621 -127 l 515 -28 q 347 23 427 -19 q 207 131 267 65 q 113 286 148 196 q 78 475 78 376 q 117 673 78 578 q 222 834 156 767 q 376 940 288 901 q 561 979 465 979 q 634 971 599 979 q 693 952 669 963 q 743 923 717 942 q 782 892 770 903 q 817 860 795 881 l 886 962 q 908 979 897 979 q 921 973 919 979 q 924 946 924 966 l 924 616 q 921 588 924 593 q 901 583 918 583 q 884 587 887 583 q 879 607 881 591 q 775 847 859 758 q 576 936 691 936 q 530 932 555 936 q 469 916 505 928 q 401 885 433 904 q 335 829 368 865 q 277 747 301 793 q 237 629 252 700 q 221 473 221 559 q 237 318 221 389 q 277 201 252 248 q 335 118 301 154 q 401 63 369 83 q 470 32 434 43 q 531 16 506 20 q 578 12 556 12 q 689 34 635 12 q 786 94 743 55 q 857 193 829 132 q 889 325 885 253 q 889 329 889 326 q 890 333 890 332 q 890 336 890 334 q 891 340 891 339 q 892 342 892 340 q 895 345 893 344 q 897 346 896 345 q 901 347 899 347 q 905 347 903 347 q 918 343 914 347 q 923 336 922 340 q 924 323 924 332 z "},"":{"ha":945,"x_min":46,"x_max":905,"o":"m 905 358 l 847 0 l 46 0 l 46 43 l 79 43 q 142 45 120 43 q 174 57 163 48 q 187 76 185 66 q 189 109 189 86 l 189 836 q 188 862 189 854 q 181 880 186 871 q 164 893 176 890 q 132 899 152 897 q 79 901 112 901 l 46 901 l 46 945 l 828 945 l 867 632 l 832 632 q 819 720 826 684 q 799 787 812 755 q 767 840 786 820 q 720 874 748 859 q 652 895 691 889 q 559 901 613 901 l 380 901 q 323 892 334 901 q 313 846 313 882 l 313 513 l 437 513 q 518 520 488 513 q 563 550 547 528 q 583 598 578 571 q 587 675 587 625 l 623 675 l 623 307 l 587 307 q 585 370 587 346 q 573 415 582 393 q 548 447 565 436 q 505 463 532 457 q 437 469 478 469 l 313 469 l 313 98 q 323 52 313 62 q 380 43 334 43 l 566 43 q 646 47 610 43 q 709 62 682 52 q 758 86 737 73 q 795 121 779 98 q 822 164 811 143 q 842 219 833 185 q 858 283 852 253 q 871 358 863 313 l 905 358 m 568 1065 l 549 1036 l 313 1166 q 282 1204 286 1178 q 293 1245 278 1227 q 330 1263 307 1263 q 367 1246 350 1263 l 568 1065 z "},"":{"ha":945,"x_min":46,"x_max":905,"o":"m 905 358 l 847 0 l 46 0 l 46 43 l 79 43 q 142 45 120 43 q 174 57 163 48 q 187 76 185 66 q 189 109 189 86 l 189 836 q 188 862 189 854 q 181 880 186 871 q 164 893 176 890 q 132 899 152 897 q 79 901 112 901 l 46 901 l 46 945 l 828 945 l 867 632 l 832 632 q 819 720 826 684 q 799 787 812 755 q 767 840 786 820 q 720 874 748 859 q 652 895 691 889 q 559 901 613 901 l 380 901 q 323 892 334 901 q 313 846 313 882 l 313 513 l 437 513 q 518 520 488 513 q 563 550 547 528 q 583 598 578 571 q 587 675 587 625 l 623 675 l 623 307 l 587 307 q 585 370 587 346 q 573 415 582 393 q 548 447 565 436 q 505 463 532 457 q 437 469 478 469 l 313 469 l 313 98 q 323 52 313 62 q 380 43 334 43 l 566 43 q 646 47 610 43 q 709 62 682 52 q 758 86 737 73 q 795 121 779 98 q 822 164 811 143 q 842 219 833 185 q 858 283 852 253 q 871 358 863 313 l 905 358 m 663 1204 q 632 1166 659 1178 l 396 1036 l 376 1065 l 578 1246 q 614 1263 595 1263 q 652 1245 637 1263 q 663 1204 667 1227 z "},"":{"ha":945,"x_min":46,"x_max":905,"o":"m 905 358 l 847 0 l 46 0 l 46 43 l 79 43 q 142 45 120 43 q 174 57 163 48 q 187 76 185 66 q 189 109 189 86 l 189 836 q 188 862 189 854 q 181 880 186 871 q 164 893 176 890 q 132 899 152 897 q 79 901 112 901 l 46 901 l 46 945 l 828 945 l 867 632 l 832 632 q 819 720 826 684 q 799 787 812 755 q 767 840 786 820 q 720 874 748 859 q 652 895 691 889 q 559 901 613 901 l 380 901 q 323 892 334 901 q 313 846 313 882 l 313 513 l 437 513 q 518 520 488 513 q 563 550 547 528 q 583 598 578 571 q 587 675 587 625 l 623 675 l 623 307 l 587 307 q 585 370 587 346 q 573 415 582 393 q 548 447 565 436 q 505 463 532 457 q 437 469 478 469 l 313 469 l 313 98 q 323 52 313 62 q 380 43 334 43 l 566 43 q 646 47 610 43 q 709 62 682 52 q 758 86 737 73 q 795 121 779 98 q 822 164 811 143 q 842 219 833 185 q 858 283 852 253 q 871 358 863 313 l 905 358 m 682 1044 l 665 1022 l 471 1114 l 277 1022 l 262 1044 l 472 1207 l 682 1044 z "},"":{"ha":945,"x_min":46,"x_max":905,"o":"m 905 358 l 847 0 l 46 0 l 46 43 l 79 43 q 142 45 120 43 q 174 57 163 48 q 187 76 185 66 q 189 109 189 86 l 189 836 q 188 862 189 854 q 181 880 186 871 q 164 893 176 890 q 132 899 152 897 q 79 901 112 901 l 46 901 l 46 945 l 828 945 l 867 632 l 832 632 q 819 720 826 684 q 799 787 812 755 q 767 840 786 820 q 720 874 748 859 q 652 895 691 889 q 559 901 613 901 l 380 901 q 323 892 334 901 q 313 846 313 882 l 313 513 l 437 513 q 518 520 488 513 q 563 550 547 528 q 583 598 578 571 q 587 675 587 625 l 623 675 l 623 307 l 587 307 q 585 370 587 346 q 573 415 582 393 q 548 447 565 436 q 505 463 532 457 q 437 469 478 469 l 313 469 l 313 98 q 323 52 313 62 q 380 43 334 43 l 566 43 q 646 47 610 43 q 709 62 682 52 q 758 86 737 73 q 795 121 779 98 q 822 164 811 143 q 842 219 833 185 q 858 283 852 253 q 871 358 863 313 l 905 358 m 375 1135 q 385 1125 375 1135 q 395 1089 395 1115 q 376 1043 395 1063 q 326 1022 357 1022 q 279 1042 299 1022 q 260 1089 260 1063 q 278 1134 260 1114 q 328 1154 297 1154 q 375 1135 355 1154 m 667 1135 q 676 1125 667 1135 q 686 1089 686 1115 q 667 1043 686 1063 q 618 1022 648 1022 q 571 1042 591 1022 q 551 1089 551 1063 q 570 1134 551 1114 q 619 1154 589 1154 q 667 1135 647 1154 z "},"":{"ha":501,"x_min":39,"x_max":463,"o":"m 463 0 q 250 4 414 4 q 39 0 87 4 l 39 43 l 75 43 q 154 50 130 43 q 184 68 178 56 q 189 109 189 80 l 189 840 q 188 867 189 858 q 181 885 186 876 q 163 897 176 894 q 129 903 150 901 q 75 905 109 905 l 39 905 l 39 949 q 252 945 87 945 q 463 949 414 945 l 463 905 l 427 905 q 373 903 393 905 q 339 897 352 901 q 321 885 326 894 q 314 867 315 876 q 313 840 313 858 l 313 109 q 318 68 313 80 q 348 50 323 56 q 427 43 372 43 l 463 43 l 463 0 m 347 1065 l 328 1036 l 92 1166 q 61 1204 65 1178 q 72 1245 57 1227 q 110 1263 87 1263 q 146 1246 129 1263 l 347 1065 z "},"":{"ha":501,"x_min":39,"x_max":463,"o":"m 463 0 q 250 4 414 4 q 39 0 87 4 l 39 43 l 75 43 q 154 50 130 43 q 184 68 178 56 q 189 109 189 80 l 189 840 q 188 867 189 858 q 181 885 186 876 q 163 897 176 894 q 129 903 150 901 q 75 905 109 905 l 39 905 l 39 949 q 252 945 87 945 q 463 949 414 945 l 463 905 l 427 905 q 373 903 393 905 q 339 897 352 901 q 321 885 326 894 q 314 867 315 876 q 313 840 313 858 l 313 109 q 318 68 313 80 q 348 50 323 56 q 427 43 372 43 l 463 43 l 463 0 m 441 1204 q 411 1166 437 1178 l 175 1036 l 155 1065 l 357 1246 q 393 1263 374 1263 q 431 1245 416 1263 q 441 1204 446 1227 z "},"":{"ha":501,"x_min":39,"x_max":463,"o":"m 463 0 q 250 4 414 4 q 39 0 87 4 l 39 43 l 75 43 q 154 50 130 43 q 184 68 178 56 q 189 109 189 80 l 189 840 q 188 867 189 858 q 181 885 186 876 q 163 897 176 894 q 129 903 150 901 q 75 905 109 905 l 39 905 l 39 949 q 252 945 87 945 q 463 949 414 945 l 463 905 l 427 905 q 373 903 393 905 q 339 897 352 901 q 321 885 326 894 q 314 867 315 876 q 313 840 313 858 l 313 109 q 318 68 313 80 q 348 50 323 56 q 427 43 372 43 l 463 43 l 463 0 m 461 1044 l 444 1022 l 250 1114 l 56 1022 l 41 1044 l 252 1207 l 461 1044 z "},"":{"ha":501,"x_min":39,"x_max":465,"o":"m 463 0 q 250 4 414 4 q 39 0 87 4 l 39 43 l 75 43 q 154 50 130 43 q 184 68 178 56 q 189 109 189 80 l 189 840 q 188 867 189 858 q 181 885 186 876 q 163 897 176 894 q 129 903 150 901 q 75 905 109 905 l 39 905 l 39 949 q 252 945 87 945 q 463 949 414 945 l 463 905 l 427 905 q 373 903 393 905 q 339 897 352 901 q 321 885 326 894 q 314 867 315 876 q 313 840 313 858 l 313 109 q 318 68 313 80 q 348 50 323 56 q 427 43 372 43 l 463 43 l 463 0 m 154 1135 q 164 1125 154 1135 q 174 1089 174 1115 q 155 1043 174 1063 q 106 1022 136 1022 q 58 1042 78 1022 q 39 1089 39 1063 q 58 1134 39 1114 q 107 1154 77 1154 q 154 1135 134 1154 m 446 1135 q 455 1125 446 1135 q 465 1089 465 1115 q 447 1043 465 1063 q 397 1022 428 1022 q 350 1042 370 1022 q 330 1089 330 1063 q 349 1134 330 1114 q 399 1154 368 1154 q 446 1135 426 1154 z "},"":{"ha":1061,"x_min":49,"x_max":982,"o":"m 982 467 q 925 231 982 338 q 770 62 867 123 q 557 0 672 0 l 49 0 l 49 43 l 82 43 q 144 45 123 43 q 177 57 166 48 q 190 76 188 66 q 192 109 192 86 l 192 454 l 49 454 l 49 496 l 192 496 l 192 840 q 191 866 192 858 q 184 884 189 875 q 167 897 179 894 q 135 903 155 901 q 82 905 115 905 l 49 905 l 49 949 l 557 949 q 723 910 644 949 q 859 807 802 871 q 949 653 916 742 q 982 467 982 564 m 843 467 q 771 777 843 677 q 518 905 679 905 l 379 905 q 322 896 332 905 q 311 850 311 886 l 311 496 l 530 496 l 530 454 l 311 454 l 311 98 q 322 52 311 62 q 379 43 332 43 l 519 43 q 612 55 569 43 q 686 89 656 68 q 735 126 716 109 q 766 161 753 144 q 824 285 806 214 q 843 467 843 355 z "},"":{"ha":1042,"x_min":46,"x_max":994,"o":"m 994 905 q 934 901 960 905 q 893 887 908 896 q 869 869 878 878 q 856 846 860 860 q 852 824 852 831 q 851 803 851 816 l 851 36 q 851 22 851 25 q 850 12 851 18 q 847 5 849 6 q 842 2 845 3 q 832 0 838 0 q 821 3 825 0 q 808 18 817 5 l 241 851 q 228 868 235 861 l 228 146 q 229 120 228 130 q 237 94 230 111 q 259 68 245 77 q 301 51 273 58 q 371 43 330 43 l 371 0 l 208 4 l 46 0 l 46 43 q 116 51 87 43 q 158 68 144 58 q 180 94 172 77 q 188 120 187 111 q 189 146 189 130 l 189 871 q 184 895 189 890 q 155 903 179 899 q 86 905 113 905 l 46 905 l 46 949 l 282 949 q 307 946 302 949 q 322 930 313 943 l 812 210 l 812 803 q 812 824 812 816 q 807 846 811 831 q 794 869 804 860 q 770 887 785 878 q 730 901 755 896 q 669 905 704 905 l 669 949 l 832 945 l 994 949 l 994 905 m 753 1131 q 706 1079 719 1093 q 672 1048 692 1065 q 637 1027 652 1031 q 603 1022 623 1022 q 517 1054 570 1022 q 508 1059 516 1054 q 497 1065 499 1064 q 487 1071 495 1066 q 474 1077 478 1076 q 463 1081 471 1078 q 451 1086 456 1084 q 439 1088 446 1087 q 427 1089 433 1089 q 371 1072 399 1089 q 328 1039 342 1055 l 313 1022 l 290 1043 q 337 1094 324 1080 q 371 1125 351 1108 q 406 1147 391 1142 q 440 1152 420 1152 q 526 1120 473 1152 q 535 1115 527 1120 q 546 1108 544 1109 q 556 1103 548 1107 q 569 1097 565 1098 q 580 1092 572 1095 q 592 1088 587 1089 q 604 1085 597 1086 q 616 1084 610 1084 q 651 1091 633 1084 q 683 1108 669 1098 q 708 1128 696 1118 q 724 1145 719 1138 l 730 1152 l 753 1131 z "},"":{"ha":1080,"x_min":78,"x_max":1002,"o":"m 1002 471 q 965 274 1002 368 q 865 115 928 181 q 718 9 803 48 q 539 -31 633 -31 q 363 8 448 -31 q 215 113 278 47 q 115 273 153 179 q 78 471 78 366 q 115 670 78 576 q 215 832 153 765 q 362 940 277 900 q 539 979 447 979 q 718 939 633 979 q 865 831 803 899 q 965 669 928 764 q 1002 471 1002 575 m 859 490 q 837 673 859 592 q 781 804 814 755 q 704 887 747 854 q 619 932 660 920 q 539 945 578 945 q 485 939 513 945 q 426 917 457 932 q 366 879 394 902 q 310 820 337 857 q 264 738 283 783 q 233 629 244 692 q 221 490 221 565 q 242 301 221 386 q 295 162 262 216 q 371 72 328 109 q 456 21 414 36 q 541 5 498 5 q 623 20 581 5 q 707 71 664 35 q 784 160 751 106 q 838 299 817 214 q 859 490 859 385 m 636 1065 l 616 1036 l 380 1166 q 350 1204 354 1178 q 361 1245 346 1227 q 399 1263 376 1263 q 435 1246 418 1263 l 636 1065 z "},"":{"ha":1080,"x_min":78,"x_max":1002,"o":"m 1002 471 q 965 274 1002 368 q 865 115 928 181 q 718 9 803 48 q 539 -31 633 -31 q 363 8 448 -31 q 215 113 278 47 q 115 273 153 179 q 78 471 78 366 q 115 670 78 576 q 215 832 153 765 q 362 940 277 900 q 539 979 447 979 q 718 939 633 979 q 865 831 803 899 q 965 669 928 764 q 1002 471 1002 575 m 859 490 q 837 673 859 592 q 781 804 814 755 q 704 887 747 854 q 619 932 660 920 q 539 945 578 945 q 485 939 513 945 q 426 917 457 932 q 366 879 394 902 q 310 820 337 857 q 264 738 283 783 q 233 629 244 692 q 221 490 221 565 q 242 301 221 386 q 295 162 262 216 q 371 72 328 109 q 456 21 414 36 q 541 5 498 5 q 623 20 581 5 q 707 71 664 35 q 784 160 751 106 q 838 299 817 214 q 859 490 859 385 m 730 1204 q 700 1166 726 1178 l 464 1036 l 444 1065 l 646 1246 q 682 1263 663 1263 q 720 1245 705 1263 q 730 1204 734 1227 z "},"":{"ha":1080,"x_min":78,"x_max":1002,"o":"m 1002 471 q 965 274 1002 368 q 865 115 928 181 q 718 9 803 48 q 539 -31 633 -31 q 363 8 448 -31 q 215 113 278 47 q 115 273 153 179 q 78 471 78 366 q 115 670 78 576 q 215 832 153 765 q 362 940 277 900 q 539 979 447 979 q 718 939 633 979 q 865 831 803 899 q 965 669 928 764 q 1002 471 1002 575 m 859 490 q 837 673 859 592 q 781 804 814 755 q 704 887 747 854 q 619 932 660 920 q 539 945 578 945 q 485 939 513 945 q 426 917 457 932 q 366 879 394 902 q 310 820 337 857 q 264 738 283 783 q 233 629 244 692 q 221 490 221 565 q 242 301 221 386 q 295 162 262 216 q 371 72 328 109 q 456 21 414 36 q 541 5 498 5 q 623 20 581 5 q 707 71 664 35 q 784 160 751 106 q 838 299 817 214 q 859 490 859 385 m 750 1044 l 733 1022 l 539 1114 l 345 1022 l 330 1044 l 541 1207 l 750 1044 z "},"":{"ha":1080,"x_min":78,"x_max":1002,"o":"m 1002 471 q 965 274 1002 368 q 865 115 928 181 q 718 9 803 48 q 539 -31 633 -31 q 363 8 448 -31 q 215 113 278 47 q 115 273 153 179 q 78 471 78 366 q 115 670 78 576 q 215 832 153 765 q 362 940 277 900 q 539 979 447 979 q 718 939 633 979 q 865 831 803 899 q 965 669 928 764 q 1002 471 1002 575 m 859 490 q 837 673 859 592 q 781 804 814 755 q 704 887 747 854 q 619 932 660 920 q 539 945 578 945 q 485 939 513 945 q 426 917 457 932 q 366 879 394 902 q 310 820 337 857 q 264 738 283 783 q 233 629 244 692 q 221 490 221 565 q 242 301 221 386 q 295 162 262 216 q 371 72 328 109 q 456 21 414 36 q 541 5 498 5 q 623 20 581 5 q 707 71 664 35 q 784 160 751 106 q 838 299 817 214 q 859 490 859 385 m 772 1131 q 725 1079 739 1093 q 692 1048 712 1065 q 657 1027 672 1031 q 623 1022 642 1022 q 536 1054 589 1022 q 446 1089 475 1089 q 390 1072 418 1089 q 347 1039 361 1055 l 332 1022 l 310 1043 q 357 1094 344 1080 q 390 1125 370 1108 q 425 1147 410 1142 q 460 1152 440 1152 q 546 1120 493 1152 q 555 1115 547 1120 q 566 1108 564 1109 q 576 1103 568 1107 q 588 1097 585 1098 q 600 1092 592 1095 q 612 1088 607 1089 q 624 1085 617 1086 q 636 1084 630 1084 q 671 1091 653 1084 q 703 1108 689 1098 q 727 1128 716 1118 q 745 1145 739 1138 l 750 1152 l 772 1131 z "},"":{"ha":1080,"x_min":78,"x_max":1002,"o":"m 1002 471 q 965 274 1002 368 q 865 115 928 181 q 718 9 803 48 q 539 -31 633 -31 q 363 8 448 -31 q 215 113 278 47 q 115 273 153 179 q 78 471 78 366 q 115 670 78 576 q 215 832 153 765 q 362 940 277 900 q 539 979 447 979 q 718 939 633 979 q 865 831 803 899 q 965 669 928 764 q 1002 471 1002 575 m 859 490 q 837 673 859 592 q 781 804 814 755 q 704 887 747 854 q 619 932 660 920 q 539 945 578 945 q 485 939 513 945 q 426 917 457 932 q 366 879 394 902 q 310 820 337 857 q 264 738 283 783 q 233 629 244 692 q 221 490 221 565 q 242 301 221 386 q 295 162 262 216 q 371 72 328 109 q 456 21 414 36 q 541 5 498 5 q 623 20 581 5 q 707 71 664 35 q 784 160 751 106 q 838 299 817 214 q 859 490 859 385 m 443 1135 q 453 1125 443 1135 q 463 1089 463 1115 q 444 1043 463 1063 q 395 1022 425 1022 q 347 1042 367 1022 q 328 1089 328 1063 q 347 1134 328 1114 q 396 1154 366 1154 q 443 1135 423 1154 m 734 1135 q 744 1125 734 1135 q 754 1089 754 1115 q 735 1043 754 1063 q 686 1022 717 1022 q 639 1042 659 1022 q 619 1089 619 1063 q 638 1134 619 1114 q 688 1154 657 1154 q 734 1135 715 1154 z "},"":{"ha":1080,"x_min":195,"x_max":884,"o":"m 875 35 q 874 31 875 35 q 867 21 873 28 q 853 13 860 14 q 838 15 846 11 q 826 23 831 19 q 815 33 822 26 l 541 309 l 265 33 q 254 23 258 26 q 242 15 250 19 q 227 13 235 11 q 212 21 220 14 q 219 64 195 39 q 224 69 220 66 l 227 72 l 501 347 l 227 623 q 218 631 220 629 q 210 641 215 634 q 204 652 205 648 q 205 663 203 656 q 212 675 207 669 q 227 683 220 682 q 242 681 235 685 q 254 673 250 677 q 265 663 258 669 l 541 387 l 814 661 q 825 672 821 668 q 837 680 829 675 q 852 682 844 684 q 867 673 859 680 q 860 630 884 656 q 855 625 859 629 l 852 623 l 579 347 l 854 72 q 865 60 862 64 q 873 49 869 56 q 875 35 877 42 z "},"":{"ha":1080,"x_min":78,"x_max":1002,"o":"m 1002 471 q 965 274 1002 368 q 865 115 928 181 q 718 9 803 48 q 539 -31 633 -31 q 278 56 401 -31 l 183 -78 l 155 -58 l 167 -43 l 250 81 q 197 136 223 104 q 142 216 171 168 q 96 331 113 264 q 78 471 78 397 q 115 670 78 576 q 215 832 153 765 q 362 940 277 900 q 539 979 447 979 q 626 971 585 979 q 704 945 667 962 q 753 921 741 928 q 790 899 765 914 l 800 892 l 895 1026 l 924 1007 l 828 867 q 1002 471 1002 705 m 770 843 q 539 949 669 949 q 392 909 463 949 q 273 794 320 869 q 201 471 201 679 q 223 269 201 347 q 286 135 245 192 l 770 843 m 878 471 q 791 814 878 699 l 310 106 q 415 27 355 55 q 541 0 475 0 q 683 37 615 0 q 798 139 751 74 q 878 471 878 254 z "},"":{"ha":1042,"x_min":46,"x_max":994,"o":"m 994 905 q 924 898 953 905 q 882 881 896 890 q 861 855 868 872 q 852 827 853 838 q 851 798 851 817 l 851 353 q 847 257 851 285 q 743 53 829 136 q 539 -31 656 -31 q 365 15 446 -31 q 237 141 285 60 q 189 317 189 221 l 189 840 q 188 866 189 858 q 181 884 186 875 q 164 897 176 894 q 132 903 152 901 q 79 905 112 905 l 46 905 l 46 949 q 252 945 95 945 q 456 949 407 945 l 456 905 l 422 905 q 370 903 390 905 q 338 897 350 901 q 320 884 326 894 q 314 866 315 875 q 313 840 313 858 l 313 311 q 322 212 313 257 q 347 137 332 167 q 382 83 361 106 q 424 47 404 60 q 468 26 445 34 q 508 15 491 18 q 542 12 526 12 q 640 33 592 12 q 725 92 687 54 q 785 190 762 130 q 808 321 808 250 l 808 803 q 808 824 808 816 q 803 846 807 831 q 790 869 800 860 q 766 887 781 878 q 726 901 751 896 q 665 905 700 905 l 665 949 l 831 945 l 994 949 l 994 905 m 648 1065 l 629 1036 l 393 1166 q 363 1204 367 1178 q 373 1245 359 1227 q 411 1263 388 1263 q 447 1246 430 1263 l 648 1065 z "},"":{"ha":1042,"x_min":46,"x_max":994,"o":"m 994 905 q 924 898 953 905 q 882 881 896 890 q 861 855 868 872 q 852 827 853 838 q 851 798 851 817 l 851 353 q 847 257 851 285 q 743 53 829 136 q 539 -31 656 -31 q 365 15 446 -31 q 237 141 285 60 q 189 317 189 221 l 189 840 q 188 866 189 858 q 181 884 186 875 q 164 897 176 894 q 132 903 152 901 q 79 905 112 905 l 46 905 l 46 949 q 252 945 95 945 q 456 949 407 945 l 456 905 l 422 905 q 370 903 390 905 q 338 897 350 901 q 320 884 326 894 q 314 866 315 875 q 313 840 313 858 l 313 311 q 322 212 313 257 q 347 137 332 167 q 382 83 361 106 q 424 47 404 60 q 468 26 445 34 q 508 15 491 18 q 542 12 526 12 q 640 33 592 12 q 725 92 687 54 q 785 190 762 130 q 808 321 808 250 l 808 803 q 808 824 808 816 q 803 846 807 831 q 790 869 800 860 q 766 887 781 878 q 726 901 751 896 q 665 905 700 905 l 665 949 l 831 945 l 994 949 l 994 905 m 743 1204 q 713 1166 739 1178 l 476 1036 l 457 1065 l 659 1246 q 694 1263 675 1263 q 732 1245 718 1263 q 743 1204 747 1227 z "},"":{"ha":1042,"x_min":46,"x_max":994,"o":"m 994 905 q 924 898 953 905 q 882 881 896 890 q 861 855 868 872 q 852 827 853 838 q 851 798 851 817 l 851 353 q 847 257 851 285 q 743 53 829 136 q 539 -31 656 -31 q 365 15 446 -31 q 237 141 285 60 q 189 317 189 221 l 189 840 q 188 866 189 858 q 181 884 186 875 q 164 897 176 894 q 132 903 152 901 q 79 905 112 905 l 46 905 l 46 949 q 252 945 95 945 q 456 949 407 945 l 456 905 l 422 905 q 370 903 390 905 q 338 897 350 901 q 320 884 326 894 q 314 866 315 875 q 313 840 313 858 l 313 311 q 322 212 313 257 q 347 137 332 167 q 382 83 361 106 q 424 47 404 60 q 468 26 445 34 q 508 15 491 18 q 542 12 526 12 q 640 33 592 12 q 725 92 687 54 q 785 190 762 130 q 808 321 808 250 l 808 803 q 808 824 808 816 q 803 846 807 831 q 790 869 800 860 q 766 887 781 878 q 726 901 751 896 q 665 905 700 905 l 665 949 l 831 945 l 994 949 l 994 905 m 762 1044 l 746 1022 l 551 1114 l 357 1022 l 343 1044 l 553 1207 l 762 1044 z "},"":{"ha":1042,"x_min":46,"x_max":994,"o":"m 994 905 q 924 898 953 905 q 882 881 896 890 q 861 855 868 872 q 852 827 853 838 q 851 798 851 817 l 851 353 q 847 257 851 285 q 743 53 829 136 q 539 -31 656 -31 q 365 15 446 -31 q 237 141 285 60 q 189 317 189 221 l 189 840 q 188 866 189 858 q 181 884 186 875 q 164 897 176 894 q 132 903 152 901 q 79 905 112 905 l 46 905 l 46 949 q 252 945 95 945 q 456 949 407 945 l 456 905 l 422 905 q 370 903 390 905 q 338 897 350 901 q 320 884 326 894 q 314 866 315 875 q 313 840 313 858 l 313 311 q 322 212 313 257 q 347 137 332 167 q 382 83 361 106 q 424 47 404 60 q 468 26 445 34 q 508 15 491 18 q 542 12 526 12 q 640 33 592 12 q 725 92 687 54 q 785 190 762 130 q 808 321 808 250 l 808 803 q 808 824 808 816 q 803 846 807 831 q 790 869 800 860 q 766 887 781 878 q 726 901 751 896 q 665 905 700 905 l 665 949 l 831 945 l 994 949 l 994 905 m 455 1135 q 465 1125 455 1135 q 475 1089 475 1115 q 456 1043 475 1063 q 407 1022 437 1022 q 360 1042 380 1022 q 340 1089 340 1063 q 359 1134 340 1114 q 408 1154 378 1154 q 455 1135 435 1154 m 747 1135 q 756 1125 747 1135 q 766 1089 766 1115 q 748 1043 766 1063 q 699 1022 729 1022 q 652 1042 671 1022 q 632 1089 632 1063 q 651 1134 632 1114 q 700 1154 669 1154 q 747 1135 727 1154 z "},"":{"ha":1042,"x_min":16,"x_max":1025,"o":"m 1025 905 q 847 815 902 905 l 579 379 l 579 111 q 581 77 579 87 q 594 57 583 66 q 628 45 606 48 q 690 43 650 43 l 722 43 l 722 0 q 519 4 672 4 q 317 0 367 4 l 317 43 l 350 43 q 412 45 391 43 q 445 57 434 48 q 458 76 456 66 q 460 109 460 86 l 460 379 l 168 854 q 145 884 155 876 q 111 899 136 893 q 40 905 86 905 l 16 905 l 16 949 l 196 945 q 401 949 351 945 l 401 905 q 328 898 351 905 q 304 871 304 891 q 314 847 304 861 l 566 437 l 794 810 q 808 851 808 831 q 789 890 808 874 q 729 905 769 905 l 729 949 l 889 945 q 1025 949 960 945 l 1025 905 m 711 1204 q 681 1166 707 1178 l 444 1036 l 425 1065 l 627 1246 q 663 1263 644 1263 q 701 1245 686 1263 q 711 1204 715 1227 z "},"":{"ha":945,"x_min":39,"x_max":867,"o":"m 867 471 q 823 345 867 403 q 706 253 779 286 q 550 220 633 220 l 313 220 l 313 109 q 318 68 313 80 q 348 50 323 56 q 427 43 372 43 l 463 43 l 463 0 q 250 4 414 4 q 39 0 87 4 l 39 43 l 75 43 q 154 50 130 43 q 184 68 178 56 q 189 109 189 80 l 189 840 q 188 867 189 858 q 181 885 186 876 q 163 897 176 894 q 129 903 150 901 q 75 905 109 905 l 39 905 l 39 949 q 252 945 87 945 q 463 949 414 945 l 463 905 l 427 905 q 373 903 393 905 q 339 897 352 901 q 321 885 326 894 q 314 867 315 876 q 313 840 313 858 l 313 729 l 539 729 q 773 652 679 729 q 867 471 867 575 m 724 475 q 723 500 724 491 q 721 529 723 510 q 715 561 719 548 q 704 592 712 574 q 686 623 696 610 q 658 649 675 635 q 620 671 641 663 q 568 685 598 680 q 503 690 538 690 l 379 690 q 322 681 332 690 q 311 635 311 671 l 311 260 l 503 260 q 584 269 548 260 q 643 291 621 278 q 682 324 666 303 q 706 362 699 345 q 718 404 714 379 q 723 442 722 429 q 724 475 724 454 z "},"":{"ha":694,"x_min":39,"x_max":654,"o":"m 654 241 q 618 107 654 167 q 527 16 582 47 q 411 -16 471 -16 q 316 16 353 -16 q 279 90 279 47 q 294 128 279 115 q 329 142 309 142 q 365 128 350 142 q 379 92 379 114 q 366 57 379 69 q 338 41 353 44 q 407 16 365 16 q 452 26 429 16 q 498 60 475 37 q 535 130 521 83 q 550 240 550 177 q 538 351 550 298 q 502 453 526 404 q 433 532 477 501 q 329 568 388 564 q 320 573 323 569 q 317 580 317 576 l 317 583 q 320 593 317 589 q 328 597 324 596 q 339 599 331 598 q 469 658 426 606 q 511 783 511 710 q 499 860 511 827 q 466 912 486 894 q 423 940 446 930 q 378 949 401 949 q 352 946 366 949 q 317 933 338 943 q 279 905 296 922 q 251 854 263 888 q 239 775 239 820 l 239 0 q 175 4 214 4 l 39 0 l 39 43 q 80 43 67 43 q 108 45 92 43 q 129 51 123 47 q 139 62 134 54 q 146 79 145 69 q 147 106 147 90 l 147 555 l 39 555 l 39 599 l 147 599 l 147 772 q 168 863 147 823 q 222 928 189 904 q 296 966 256 953 q 378 979 336 979 q 547 921 479 979 q 615 782 615 862 q 567 663 615 718 q 431 582 519 607 q 541 512 494 555 q 610 420 587 469 q 644 328 633 372 q 654 241 654 283 z "},"":{"ha":694,"x_min":58,"x_max":685,"o":"m 685 123 q 672 56 685 84 q 638 15 659 28 q 602 -3 618 2 q 571 -8 585 -8 q 496 26 525 -8 q 463 106 467 60 q 394 19 441 54 q 281 -16 346 -16 q 209 -8 245 -16 q 137 16 172 0 q 80 62 102 32 q 58 132 58 92 q 91 231 58 183 q 197 313 124 279 q 290 343 237 332 q 372 357 342 355 q 453 363 401 360 l 453 414 q 440 493 453 458 q 405 549 427 528 q 358 581 383 570 q 306 591 332 591 q 223 576 266 591 q 155 528 180 561 q 193 520 178 527 q 215 502 208 513 q 224 481 222 490 q 227 464 227 472 q 209 418 227 437 q 163 400 191 400 q 117 418 135 400 q 98 465 98 435 q 160 578 98 533 q 309 623 222 623 q 498 546 422 623 q 534 491 522 522 q 547 441 545 461 q 549 382 549 420 l 549 104 q 550 91 549 100 q 557 67 552 81 q 573 44 562 54 q 600 35 585 35 q 615 37 608 35 q 631 48 622 40 q 645 76 640 56 q 650 123 650 95 l 650 201 l 685 201 l 685 123 m 453 195 l 453 334 q 335 317 387 332 q 252 282 283 302 q 201 234 221 261 q 173 183 180 208 q 165 134 165 159 q 202 49 165 83 q 290 16 239 16 q 331 21 310 16 q 375 41 353 27 q 414 74 397 54 q 442 125 431 94 q 453 195 453 157 m 433 733 l 410 708 l 199 878 q 175 920 175 896 q 191 954 175 939 q 225 970 206 970 q 267 946 251 970 l 433 733 z "},"":{"ha":694,"x_min":58,"x_max":685,"o":"m 685 123 q 672 56 685 84 q 638 15 659 28 q 602 -3 618 2 q 571 -8 585 -8 q 496 26 525 -8 q 463 106 467 60 q 394 19 441 54 q 281 -16 346 -16 q 209 -8 245 -16 q 137 16 172 0 q 80 62 102 32 q 58 132 58 92 q 91 231 58 183 q 197 313 124 279 q 290 343 237 332 q 372 357 342 355 q 453 363 401 360 l 453 414 q 440 493 453 458 q 405 549 427 528 q 358 581 383 570 q 306 591 332 591 q 223 576 266 591 q 155 528 180 561 q 193 520 178 527 q 215 502 208 513 q 224 481 222 490 q 227 464 227 472 q 209 418 227 437 q 163 400 191 400 q 117 418 135 400 q 98 465 98 435 q 160 578 98 533 q 309 623 222 623 q 498 546 422 623 q 534 491 522 522 q 547 441 545 461 q 549 382 549 420 l 549 104 q 550 91 549 100 q 557 67 552 81 q 573 44 562 54 q 600 35 585 35 q 615 37 608 35 q 631 48 622 40 q 645 76 640 56 q 650 123 650 95 l 650 201 l 685 201 l 685 123 m 453 195 l 453 334 q 335 317 387 332 q 252 282 283 302 q 201 234 221 261 q 173 183 180 208 q 165 134 165 159 q 202 49 165 83 q 290 16 239 16 q 331 21 310 16 q 375 41 353 27 q 414 74 397 54 q 442 125 431 94 q 453 195 453 157 m 519 920 q 496 878 519 896 l 285 708 l 261 733 l 428 946 q 469 970 444 970 q 504 954 488 970 q 519 920 519 939 z "},"":{"ha":694,"x_min":58,"x_max":685,"o":"m 685 123 q 672 56 685 84 q 638 15 659 28 q 602 -3 618 2 q 571 -8 585 -8 q 496 26 525 -8 q 463 106 467 60 q 394 19 441 54 q 281 -16 346 -16 q 209 -8 245 -16 q 137 16 172 0 q 80 62 102 32 q 58 132 58 92 q 91 231 58 183 q 197 313 124 279 q 290 343 237 332 q 372 357 342 355 q 453 363 401 360 l 453 414 q 440 493 453 458 q 405 549 427 528 q 358 581 383 570 q 306 591 332 591 q 223 576 266 591 q 155 528 180 561 q 193 520 178 527 q 215 502 208 513 q 224 481 222 490 q 227 464 227 472 q 209 418 227 437 q 163 400 191 400 q 117 418 135 400 q 98 465 98 435 q 160 578 98 533 q 309 623 222 623 q 498 546 422 623 q 534 491 522 522 q 547 441 545 461 q 549 382 549 420 l 549 104 q 550 91 549 100 q 557 67 552 81 q 573 44 562 54 q 600 35 585 35 q 615 37 608 35 q 631 48 622 40 q 645 76 640 56 q 650 123 650 95 l 650 201 l 685 201 l 685 123 m 453 195 l 453 334 q 335 317 387 332 q 252 282 283 302 q 201 234 221 261 q 173 183 180 208 q 165 134 165 159 q 202 49 165 83 q 290 16 239 16 q 331 21 310 16 q 375 41 353 27 q 414 74 397 54 q 442 125 431 94 q 453 195 453 157 m 558 736 l 541 717 l 347 867 l 154 717 l 136 736 l 347 961 l 558 736 z "},"":{"ha":694,"x_min":58,"x_max":685,"o":"m 685 123 q 672 56 685 84 q 638 15 659 28 q 602 -3 618 2 q 571 -8 585 -8 q 496 26 525 -8 q 463 106 467 60 q 394 19 441 54 q 281 -16 346 -16 q 209 -8 245 -16 q 137 16 172 0 q 80 62 102 32 q 58 132 58 92 q 91 231 58 183 q 197 313 124 279 q 290 343 237 332 q 372 357 342 355 q 453 363 401 360 l 453 414 q 440 493 453 458 q 405 549 427 528 q 358 581 383 570 q 306 591 332 591 q 223 576 266 591 q 155 528 180 561 q 193 520 178 527 q 215 502 208 513 q 224 481 222 490 q 227 464 227 472 q 209 418 227 437 q 163 400 191 400 q 117 418 135 400 q 98 465 98 435 q 160 578 98 533 q 309 623 222 623 q 498 546 422 623 q 534 491 522 522 q 547 441 545 461 q 549 382 549 420 l 549 104 q 550 91 549 100 q 557 67 552 81 q 573 44 562 54 q 600 35 585 35 q 615 37 608 35 q 631 48 622 40 q 645 76 640 56 q 650 123 650 95 l 650 201 l 685 201 l 685 123 m 453 195 l 453 334 q 335 317 387 332 q 252 282 283 302 q 201 234 221 261 q 173 183 180 208 q 165 134 165 159 q 202 49 165 83 q 290 16 239 16 q 331 21 310 16 q 375 41 353 27 q 414 74 397 54 q 442 125 431 94 q 453 195 453 157 m 579 884 q 532 832 545 846 q 499 802 519 819 q 464 780 479 785 q 429 775 449 775 q 343 807 396 775 q 253 842 283 842 q 197 825 226 842 q 154 792 169 808 l 139 775 l 117 796 q 203 883 176 863 q 267 904 230 904 q 353 872 300 904 q 443 838 413 838 q 498 854 470 838 q 542 887 527 871 l 557 904 l 579 884 z "},"":{"ha":694,"x_min":58,"x_max":685,"o":"m 685 123 q 672 56 685 84 q 638 15 659 28 q 602 -3 618 2 q 571 -8 585 -8 q 496 26 525 -8 q 463 106 467 60 q 394 19 441 54 q 281 -16 346 -16 q 209 -8 245 -16 q 137 16 172 0 q 80 62 102 32 q 58 132 58 92 q 91 231 58 183 q 197 313 124 279 q 290 343 237 332 q 372 357 342 355 q 453 363 401 360 l 453 414 q 440 493 453 458 q 405 549 427 528 q 358 581 383 570 q 306 591 332 591 q 223 576 266 591 q 155 528 180 561 q 193 520 178 527 q 215 502 208 513 q 224 481 222 490 q 227 464 227 472 q 209 418 227 437 q 163 400 191 400 q 117 418 135 400 q 98 465 98 435 q 160 578 98 533 q 309 623 222 623 q 498 546 422 623 q 534 491 522 522 q 547 441 545 461 q 549 382 549 420 l 549 104 q 550 91 549 100 q 557 67 552 81 q 573 44 562 54 q 600 35 585 35 q 615 37 608 35 q 631 48 622 40 q 645 76 640 56 q 650 123 650 95 l 650 201 l 685 201 l 685 123 m 453 195 l 453 334 q 335 317 387 332 q 252 282 283 302 q 201 234 221 261 q 173 183 180 208 q 165 134 165 159 q 202 49 165 83 q 290 16 239 16 q 331 21 310 16 q 375 41 353 27 q 414 74 397 54 q 442 125 431 94 q 453 195 453 157 m 272 886 q 282 876 272 886 q 292 840 292 866 q 273 794 292 814 q 224 774 254 774 q 176 794 196 774 q 157 840 157 814 q 176 885 157 865 q 225 905 195 905 q 272 886 252 905 m 539 840 q 520 794 539 814 q 471 774 501 774 q 424 794 443 774 q 404 840 404 814 q 423 885 404 865 q 472 905 441 905 q 519 885 499 905 q 539 840 539 865 z "},"":{"ha":694,"x_min":58,"x_max":685,"o":"m 685 123 q 672 56 685 84 q 638 15 659 28 q 602 -3 618 2 q 571 -8 585 -8 q 496 26 525 -8 q 463 106 467 60 q 394 19 441 54 q 281 -16 346 -16 q 209 -8 245 -16 q 137 16 172 0 q 80 62 102 32 q 58 132 58 92 q 91 231 58 183 q 197 313 124 279 q 290 343 237 332 q 372 357 342 355 q 453 363 401 360 l 453 414 q 440 493 453 458 q 405 549 427 528 q 358 581 383 570 q 306 591 332 591 q 223 576 266 591 q 155 528 180 561 q 193 520 178 527 q 215 502 208 513 q 224 481 222 490 q 227 464 227 472 q 209 418 227 437 q 163 400 191 400 q 117 418 135 400 q 98 465 98 435 q 160 578 98 533 q 309 623 222 623 q 498 546 422 623 q 534 491 522 522 q 547 441 545 461 q 549 382 549 420 l 549 104 q 550 91 549 100 q 557 67 552 81 q 573 44 562 54 q 600 35 585 35 q 615 37 608 35 q 631 48 622 40 q 645 76 640 56 q 650 123 650 95 l 650 201 l 685 201 l 685 123 m 453 195 l 453 334 q 335 317 387 332 q 252 282 283 302 q 201 234 221 261 q 173 183 180 208 q 165 134 165 159 q 202 49 165 83 q 290 16 239 16 q 331 21 310 16 q 375 41 353 27 q 414 74 397 54 q 442 125 431 94 q 453 195 453 157 m 435 857 q 347 937 435 937 q 260 857 260 937 q 347 777 260 777 q 435 857 435 777 m 481 859 q 442 771 481 807 q 346 734 404 734 q 253 770 292 734 q 214 859 214 806 q 252 943 214 906 q 349 979 290 979 q 443 943 404 979 q 481 859 481 907 z "},"":{"ha":1002,"x_min":62,"x_max":962,"o":"m 962 165 q 955 136 962 156 q 931 90 948 117 q 891 40 915 64 q 829 1 867 17 q 747 -16 791 -16 q 704 -12 727 -16 q 648 4 681 -7 q 579 42 614 15 q 515 109 544 69 q 427 20 489 55 q 283 -16 365 -16 q 209 -8 245 -16 q 139 14 173 -1 q 83 59 104 30 q 62 127 62 88 q 172 287 62 227 q 453 347 282 347 l 453 414 q 409 545 453 498 q 306 591 364 591 q 222 575 264 591 q 155 528 180 559 q 193 520 178 527 q 215 502 208 513 q 224 481 222 490 q 227 464 227 472 q 209 418 227 437 q 163 400 191 400 q 117 418 135 400 q 98 465 98 435 q 161 578 98 533 q 309 623 223 623 q 433 594 376 623 q 521 515 491 565 q 730 623 610 623 q 901 546 840 623 q 962 350 962 470 q 957 325 962 329 q 928 321 951 321 l 549 321 q 559 210 549 259 q 586 129 570 160 q 625 76 602 98 q 666 43 648 54 q 707 27 685 33 q 737 20 728 21 q 753 20 745 20 q 861 59 814 20 q 924 154 907 98 q 932 177 929 172 q 945 182 936 182 q 962 165 962 182 m 871 350 q 869 381 869 370 q 864 421 868 392 q 856 468 861 450 q 840 513 850 487 q 814 554 829 538 q 778 580 800 569 q 729 591 756 591 q 692 586 711 591 q 648 564 673 581 q 604 523 624 548 q 569 453 585 498 q 550 350 554 408 l 871 350 m 469 183 q 465 214 469 198 q 453 318 453 256 q 337 302 389 316 q 256 270 286 289 q 205 225 225 250 q 177 176 184 199 q 170 127 170 152 q 205 47 170 79 q 290 16 241 16 q 417 66 364 16 q 469 183 469 116 z "},"":{"ha":616,"x_min":47,"x_max":576,"o":"m 576 165 q 571 144 576 160 q 552 102 566 127 q 516 53 537 77 q 458 11 495 30 q 375 -14 420 -9 l 375 -92 q 481 -115 437 -92 q 525 -184 525 -139 q 517 -215 525 -201 q 493 -238 510 -229 q 459 -255 477 -248 q 413 -266 442 -262 q 363 -273 385 -271 q 306 -276 341 -275 q 249 -278 270 -277 q 191 -278 228 -278 l 154 -278 l 154 -241 l 172 -241 q 227 -241 208 -241 q 279 -239 246 -241 q 331 -234 312 -238 q 370 -224 349 -231 q 399 -208 390 -218 q 408 -184 408 -198 q 302 -127 408 -127 l 302 -12 q 121 92 194 5 q 47 300 47 180 q 86 459 47 385 q 194 578 125 533 q 349 623 264 623 q 451 605 404 623 q 530 553 499 588 q 561 473 561 519 q 543 426 561 443 q 497 408 525 408 q 451 427 469 408 q 433 472 433 445 q 436 490 433 481 q 444 509 438 498 q 465 528 450 520 q 498 536 479 535 q 457 566 481 554 q 409 581 433 577 q 373 586 385 585 q 350 587 360 587 q 302 580 326 587 q 252 552 278 572 q 207 501 227 532 q 175 419 188 470 q 163 302 163 368 q 176 187 163 238 q 210 106 189 136 q 258 55 231 75 q 309 27 285 35 q 358 20 334 20 q 541 165 495 20 q 544 173 542 170 q 549 177 545 175 q 558 179 552 179 q 576 165 576 179 z "},"":{"ha":616,"x_min":39,"x_max":576,"o":"m 576 165 q 569 136 576 156 q 543 90 562 117 q 500 40 525 64 q 433 1 475 17 q 345 -16 392 -16 q 229 9 285 -16 q 132 75 174 33 q 64 178 90 117 q 39 306 39 238 q 77 464 39 391 q 182 580 115 537 q 328 623 248 623 q 439 600 390 623 q 517 537 488 576 q 562 451 547 498 q 576 350 576 404 q 571 325 576 329 q 542 321 566 321 l 154 321 q 196 113 154 180 q 262 45 222 71 q 353 20 303 20 q 373 21 363 20 q 410 29 384 22 q 458 50 436 37 q 503 93 479 64 q 541 163 527 123 q 544 173 542 170 q 549 179 545 176 q 558 182 552 182 q 576 165 576 182 m 485 350 q 483 396 485 372 q 470 458 480 421 q 445 523 460 494 q 399 571 429 551 q 328 591 368 591 q 292 587 311 591 q 249 566 273 582 q 205 525 224 550 q 172 454 186 500 q 155 350 157 409 l 485 350 m 395 733 l 371 708 l 160 878 q 136 920 136 896 q 152 954 136 939 q 186 970 167 970 q 228 946 212 970 l 395 733 z "},"":{"ha":616,"x_min":39,"x_max":576,"o":"m 576 165 q 569 136 576 156 q 543 90 562 117 q 500 40 525 64 q 433 1 475 17 q 345 -16 392 -16 q 229 9 285 -16 q 132 75 174 33 q 64 178 90 117 q 39 306 39 238 q 77 464 39 391 q 182 580 115 537 q 328 623 248 623 q 439 600 390 623 q 517 537 488 576 q 562 451 547 498 q 576 350 576 404 q 571 325 576 329 q 542 321 566 321 l 154 321 q 196 113 154 180 q 262 45 222 71 q 353 20 303 20 q 373 21 363 20 q 410 29 384 22 q 458 50 436 37 q 503 93 479 64 q 541 163 527 123 q 544 173 542 170 q 549 179 545 176 q 558 182 552 182 q 576 165 576 182 m 485 350 q 483 396 485 372 q 470 458 480 421 q 445 523 460 494 q 399 571 429 551 q 328 591 368 591 q 292 587 311 591 q 249 566 273 582 q 205 525 224 550 q 172 454 186 500 q 155 350 157 409 l 485 350 m 481 920 q 457 878 481 896 l 245 708 l 222 733 l 389 946 q 431 970 404 970 q 465 954 450 970 q 481 920 481 939 z "},"":{"ha":616,"x_min":39,"x_max":576,"o":"m 576 165 q 569 136 576 156 q 543 90 562 117 q 500 40 525 64 q 433 1 475 17 q 345 -16 392 -16 q 229 9 285 -16 q 132 75 174 33 q 64 178 90 117 q 39 306 39 238 q 77 464 39 391 q 182 580 115 537 q 328 623 248 623 q 439 600 390 623 q 517 537 488 576 q 562 451 547 498 q 576 350 576 404 q 571 325 576 329 q 542 321 566 321 l 154 321 q 196 113 154 180 q 262 45 222 71 q 353 20 303 20 q 373 21 363 20 q 410 29 384 22 q 458 50 436 37 q 503 93 479 64 q 541 163 527 123 q 544 173 542 170 q 549 179 545 176 q 558 182 552 182 q 576 165 576 182 m 485 350 q 483 396 485 372 q 470 458 480 421 q 445 523 460 494 q 399 571 429 551 q 328 591 368 591 q 292 587 311 591 q 249 566 273 582 q 205 525 224 550 q 172 454 186 500 q 155 350 157 409 l 485 350 m 519 736 l 501 717 l 309 867 l 115 717 l 97 736 l 309 961 l 519 736 z "},"":{"ha":616,"x_min":39,"x_max":576,"o":"m 576 165 q 569 136 576 156 q 543 90 562 117 q 500 40 525 64 q 433 1 475 17 q 345 -16 392 -16 q 229 9 285 -16 q 132 75 174 33 q 64 178 90 117 q 39 306 39 238 q 77 464 39 391 q 182 580 115 537 q 328 623 248 623 q 439 600 390 623 q 517 537 488 576 q 562 451 547 498 q 576 350 576 404 q 571 325 576 329 q 542 321 566 321 l 154 321 q 196 113 154 180 q 262 45 222 71 q 353 20 303 20 q 373 21 363 20 q 410 29 384 22 q 458 50 436 37 q 503 93 479 64 q 541 163 527 123 q 544 173 542 170 q 549 179 545 176 q 558 182 552 182 q 576 165 576 182 m 485 350 q 483 396 485 372 q 470 458 480 421 q 445 523 460 494 q 399 571 429 551 q 328 591 368 591 q 292 587 311 591 q 249 566 273 582 q 205 525 224 550 q 172 454 186 500 q 155 350 157 409 l 485 350 m 253 840 q 234 794 253 814 q 184 774 215 774 q 137 794 157 774 q 118 840 118 814 q 137 885 118 865 q 186 905 155 905 q 233 885 213 905 q 253 840 253 865 m 480 886 q 490 876 480 886 q 500 840 500 866 q 481 794 500 814 q 432 774 463 774 q 385 794 404 774 q 366 840 366 814 q 384 885 366 865 q 433 905 403 905 q 480 886 460 905 z "},"":{"ha":386,"x_min":21,"x_max":343,"o":"m 343 0 q 199 4 201 4 l 46 0 l 46 43 q 82 43 71 43 q 108 44 93 43 q 128 48 123 45 q 140 55 134 51 q 149 66 147 59 q 153 82 151 73 q 154 106 154 92 l 154 479 q 137 543 154 530 q 52 555 119 555 l 52 599 l 245 614 l 245 104 q 251 63 245 75 q 276 47 257 52 q 343 43 296 43 l 343 0 m 279 733 l 256 708 l 45 878 q 21 920 21 896 q 36 954 21 939 q 71 970 52 970 q 113 946 97 970 l 279 733 z "},"":{"ha":386,"x_min":46,"x_max":366,"o":"m 343 0 q 199 4 201 4 l 46 0 l 46 43 q 82 43 71 43 q 108 44 93 43 q 128 48 123 45 q 140 55 134 51 q 149 66 147 59 q 153 82 151 73 q 154 106 154 92 l 154 479 q 137 543 154 530 q 52 555 119 555 l 52 599 l 245 614 l 245 104 q 251 63 245 75 q 276 47 257 52 q 343 43 296 43 l 343 0 m 366 920 q 342 878 366 896 l 131 708 l 107 733 l 273 946 q 315 970 289 970 q 350 954 334 970 q 366 920 366 939 z "},"":{"ha":386,"x_min":-18,"x_max":404,"o":"m 343 0 q 199 4 201 4 l 46 0 l 46 43 q 82 43 71 43 q 108 44 93 43 q 128 48 123 45 q 140 55 134 51 q 149 66 147 59 q 153 82 151 73 q 154 106 154 92 l 154 479 q 137 543 154 530 q 52 555 119 555 l 52 599 l 245 614 l 245 104 q 251 63 245 75 q 276 47 257 52 q 343 43 296 43 l 343 0 m 404 736 l 386 717 l 193 867 l 0 717 l -18 736 l 193 961 l 404 736 z "},"":{"ha":386,"x_min":3,"x_max":385,"o":"m 343 0 q 199 4 201 4 l 46 0 l 46 43 q 82 43 71 43 q 108 44 93 43 q 128 48 123 45 q 140 55 134 51 q 149 66 147 59 q 153 82 151 73 q 154 106 154 92 l 154 479 q 137 543 154 530 q 52 555 119 555 l 52 599 l 245 614 l 245 104 q 251 63 245 75 q 276 47 257 52 q 343 43 296 43 l 343 0 m 138 840 q 119 794 138 814 q 69 774 100 774 q 22 794 41 774 q 3 840 3 814 q 21 885 3 865 q 71 905 40 905 q 118 885 98 905 q 138 840 138 865 m 365 886 q 375 876 365 886 q 385 840 385 866 q 366 794 385 814 q 317 774 347 774 q 270 794 289 774 q 250 840 250 814 q 269 885 250 865 q 318 905 288 905 q 365 886 345 905 z "},"":{"ha":694,"x_min":39,"x_max":654,"o":"m 654 297 q 631 176 654 234 q 562 75 607 119 q 346 -16 471 -16 q 195 25 265 -16 q 81 137 124 65 q 39 297 39 210 q 79 458 39 383 q 191 577 119 532 q 347 623 262 623 q 553 538 464 623 q 481 846 541 747 l 380 761 l 354 793 l 456 879 q 313 940 401 940 l 313 982 q 494 913 423 982 l 602 1002 l 628 971 l 524 882 q 654 297 654 718 m 539 309 q 538 371 539 346 q 528 434 536 395 q 503 501 519 473 q 434 568 476 545 q 346 591 393 591 q 257 568 301 591 q 187 498 214 544 q 164 432 172 470 q 155 371 156 394 q 154 309 154 347 q 189 113 154 175 q 258 43 216 66 q 347 20 300 20 q 442 47 399 20 q 509 122 486 75 q 539 309 539 183 z "},"":{"ha":772,"x_min":45,"x_max":743,"o":"m 743 0 l 587 4 l 431 0 l 431 43 q 472 43 459 43 q 500 45 484 43 q 520 51 515 47 q 531 62 526 54 q 538 79 537 69 q 539 106 539 90 l 539 429 q 535 487 539 463 q 520 535 531 512 q 489 571 510 559 q 436 583 467 583 q 306 523 363 583 q 249 361 249 463 l 249 106 q 250 82 249 92 q 254 66 252 73 q 262 55 256 59 q 275 48 269 51 q 295 44 280 45 q 321 43 310 43 q 357 43 332 43 l 357 0 l 201 4 l 45 0 l 45 43 q 80 43 69 43 q 106 44 92 43 q 127 48 121 45 q 139 55 132 51 q 148 66 146 59 q 151 82 150 73 q 153 106 153 92 l 153 478 q 150 519 153 506 q 135 542 147 532 q 103 553 122 551 q 45 555 83 555 l 45 599 l 240 614 l 240 468 q 446 614 305 614 q 537 598 500 614 q 591 562 574 583 q 628 488 621 527 q 635 350 635 449 l 635 85 q 638 67 635 75 q 648 56 641 60 q 662 48 655 51 q 684 44 669 45 q 710 43 699 43 q 743 43 721 43 l 743 0 m 618 884 q 571 832 584 846 q 537 802 557 819 q 503 780 517 785 q 468 775 488 775 q 382 807 435 775 q 292 842 321 842 q 236 825 264 842 q 193 792 208 808 l 178 775 l 155 796 q 216 861 197 843 q 257 891 234 879 q 306 904 280 904 q 392 872 339 904 q 482 838 452 838 q 538 854 509 838 q 581 887 566 871 l 596 904 l 618 884 z "},"":{"ha":694,"x_min":39,"x_max":654,"o":"m 654 297 q 613 139 654 211 q 500 25 571 66 q 346 -16 429 -16 q 195 25 265 -16 q 81 137 124 65 q 39 297 39 210 q 79 458 39 383 q 191 577 119 532 q 347 623 262 623 q 501 578 430 623 q 613 459 572 534 q 654 297 654 385 m 539 309 q 538 371 539 346 q 528 434 536 395 q 503 501 519 473 q 434 568 476 545 q 346 591 393 591 q 257 568 301 591 q 187 498 214 544 q 164 432 172 470 q 155 371 156 394 q 154 309 154 347 q 189 113 154 175 q 258 43 216 66 q 347 20 300 20 q 442 47 399 20 q 509 122 486 75 q 539 309 539 183 m 433 733 l 410 708 l 199 878 q 175 920 175 896 q 191 954 175 939 q 225 970 206 970 q 267 946 251 970 l 433 733 z "},"":{"ha":694,"x_min":39,"x_max":654,"o":"m 654 297 q 613 139 654 211 q 500 25 571 66 q 346 -16 429 -16 q 195 25 265 -16 q 81 137 124 65 q 39 297 39 210 q 79 458 39 383 q 191 577 119 532 q 347 623 262 623 q 501 578 430 623 q 613 459 572 534 q 654 297 654 385 m 539 309 q 538 371 539 346 q 528 434 536 395 q 503 501 519 473 q 434 568 476 545 q 346 591 393 591 q 257 568 301 591 q 187 498 214 544 q 164 432 172 470 q 155 371 156 394 q 154 309 154 347 q 189 113 154 175 q 258 43 216 66 q 347 20 300 20 q 442 47 399 20 q 509 122 486 75 q 539 309 539 183 m 519 920 q 496 878 519 896 l 285 708 l 261 733 l 428 946 q 469 970 444 970 q 504 954 488 970 q 519 920 519 939 z "},"":{"ha":694,"x_min":39,"x_max":654,"o":"m 654 297 q 613 139 654 211 q 500 25 571 66 q 346 -16 429 -16 q 195 25 265 -16 q 81 137 124 65 q 39 297 39 210 q 79 458 39 383 q 191 577 119 532 q 347 623 262 623 q 501 578 430 623 q 613 459 572 534 q 654 297 654 385 m 539 309 q 538 371 539 346 q 528 434 536 395 q 503 501 519 473 q 434 568 476 545 q 346 591 393 591 q 257 568 301 591 q 187 498 214 544 q 164 432 172 470 q 155 371 156 394 q 154 309 154 347 q 189 113 154 175 q 258 43 216 66 q 347 20 300 20 q 442 47 399 20 q 509 122 486 75 q 539 309 539 183 m 558 736 l 541 717 l 347 867 l 154 717 l 136 736 l 347 961 l 558 736 z "},"":{"ha":694,"x_min":39,"x_max":654,"o":"m 654 297 q 613 139 654 211 q 500 25 571 66 q 346 -16 429 -16 q 195 25 265 -16 q 81 137 124 65 q 39 297 39 210 q 79 458 39 383 q 191 577 119 532 q 347 623 262 623 q 501 578 430 623 q 613 459 572 534 q 654 297 654 385 m 539 309 q 538 371 539 346 q 528 434 536 395 q 503 501 519 473 q 434 568 476 545 q 346 591 393 591 q 257 568 301 591 q 187 498 214 544 q 164 432 172 470 q 155 371 156 394 q 154 309 154 347 q 189 113 154 175 q 258 43 216 66 q 347 20 300 20 q 442 47 399 20 q 509 122 486 75 q 539 309 539 183 m 579 884 q 532 832 545 846 q 499 802 519 819 q 464 780 479 785 q 429 775 449 775 q 343 807 396 775 q 253 842 283 842 q 197 825 226 842 q 154 792 169 808 l 139 775 l 117 796 q 203 883 176 863 q 267 904 230 904 q 353 872 300 904 q 443 838 413 838 q 498 854 470 838 q 542 887 527 871 l 557 904 l 579 884 z "},"":{"ha":694,"x_min":39,"x_max":654,"o":"m 654 297 q 613 139 654 211 q 500 25 571 66 q 346 -16 429 -16 q 195 25 265 -16 q 81 137 124 65 q 39 297 39 210 q 79 458 39 383 q 191 577 119 532 q 347 623 262 623 q 501 578 430 623 q 613 459 572 534 q 654 297 654 385 m 539 309 q 538 371 539 346 q 528 434 536 395 q 503 501 519 473 q 434 568 476 545 q 346 591 393 591 q 257 568 301 591 q 187 498 214 544 q 164 432 172 470 q 155 371 156 394 q 154 309 154 347 q 189 113 154 175 q 258 43 216 66 q 347 20 300 20 q 442 47 399 20 q 509 122 486 75 q 539 309 539 183 m 272 886 q 282 876 272 886 q 292 840 292 866 q 273 794 292 814 q 224 774 254 774 q 176 794 196 774 q 157 840 157 814 q 176 885 157 865 q 225 905 195 905 q 272 886 252 905 m 539 840 q 520 794 539 814 q 471 774 501 774 q 424 794 443 774 q 404 840 404 814 q 423 885 404 865 q 472 905 441 905 q 519 885 499 905 q 539 840 539 865 z "},"":{"ha":1080,"x_min":78,"x_max":1002,"o":"m 998 363 q 1000 360 998 363 q 1002 347 1002 357 q 998 331 1002 337 q 985 323 994 325 q 971 320 977 321 q 954 319 965 319 l 125 319 q 112 320 116 319 q 100 321 107 320 q 88 326 92 323 q 81 334 84 328 q 78 347 78 339 q 86 367 78 360 q 102 374 94 373 q 123 375 110 375 l 956 375 q 971 374 966 375 q 985 372 977 374 q 998 363 994 370 m 592 617 q 603 606 592 617 q 614 566 614 595 q 592 514 614 536 q 541 492 570 492 q 489 514 511 492 q 467 566 467 536 q 489 617 467 595 q 541 639 511 639 q 592 617 570 639 m 592 181 q 603 170 592 181 q 614 129 614 159 q 592 77 614 99 q 541 56 570 56 q 489 77 511 56 q 467 129 467 99 q 489 181 467 159 q 541 203 511 203 q 592 181 570 203 z "},"":{"ha":694,"x_min":49,"x_max":644,"o":"m 644 296 q 605 139 644 211 q 496 26 565 68 q 346 -16 427 -16 q 204 22 270 -16 l 110 -142 l 83 -125 l 93 -111 l 179 39 q 84 148 120 80 q 49 296 49 215 q 136 527 49 431 q 347 623 224 623 q 492 581 428 623 l 583 742 l 610 725 l 517 564 q 605 458 566 528 q 644 296 644 388 m 469 545 q 346 591 417 591 q 258 568 302 591 q 184 496 213 545 q 144 297 144 429 q 156 174 144 227 q 203 82 168 122 l 469 545 m 549 297 q 492 519 549 452 l 227 58 q 347 16 276 16 q 436 38 392 16 q 509 104 481 60 q 549 297 549 168 z "},"":{"ha":772,"x_min":45,"x_max":743,"o":"m 743 0 l 543 -16 l 543 110 q 364 -16 485 -16 q 261 0 304 -16 q 198 35 219 15 q 167 92 178 54 q 154 152 156 129 q 153 220 153 176 l 153 428 q 153 469 153 458 q 151 499 153 481 q 148 523 149 518 q 139 537 146 528 q 127 548 132 547 q 107 552 121 549 q 81 555 93 555 q 45 555 68 555 l 45 599 l 249 614 l 249 153 q 250 110 249 126 q 258 74 252 94 q 278 42 265 54 q 314 23 290 31 q 371 16 337 16 q 493 77 446 16 q 539 231 539 138 l 539 478 q 536 519 539 505 q 521 542 533 533 q 489 553 509 551 q 431 555 469 555 l 431 599 l 635 614 l 635 121 q 653 56 635 69 q 743 43 671 43 l 743 0 m 472 733 l 449 708 l 237 878 q 214 920 214 896 q 229 954 214 939 q 264 970 245 970 q 306 946 290 970 l 472 733 z "},"":{"ha":772,"x_min":45,"x_max":743,"o":"m 743 0 l 543 -16 l 543 110 q 364 -16 485 -16 q 261 0 304 -16 q 198 35 219 15 q 167 92 178 54 q 154 152 156 129 q 153 220 153 176 l 153 428 q 153 469 153 458 q 151 499 153 481 q 148 523 149 518 q 139 537 146 528 q 127 548 132 547 q 107 552 121 549 q 81 555 93 555 q 45 555 68 555 l 45 599 l 249 614 l 249 153 q 250 110 249 126 q 258 74 252 94 q 278 42 265 54 q 314 23 290 31 q 371 16 337 16 q 493 77 446 16 q 539 231 539 138 l 539 478 q 536 519 539 505 q 521 542 533 533 q 489 553 509 551 q 431 555 469 555 l 431 599 l 635 614 l 635 121 q 653 56 635 69 q 743 43 671 43 l 743 0 m 558 920 q 534 878 558 896 l 323 708 l 300 733 l 467 946 q 509 970 482 970 q 543 954 528 970 q 558 920 558 939 z "},"":{"ha":772,"x_min":45,"x_max":743,"o":"m 743 0 l 543 -16 l 543 110 q 364 -16 485 -16 q 261 0 304 -16 q 198 35 219 15 q 167 92 178 54 q 154 152 156 129 q 153 220 153 176 l 153 428 q 153 469 153 458 q 151 499 153 481 q 148 523 149 518 q 139 537 146 528 q 127 548 132 547 q 107 552 121 549 q 81 555 93 555 q 45 555 68 555 l 45 599 l 249 614 l 249 153 q 250 110 249 126 q 258 74 252 94 q 278 42 265 54 q 314 23 290 31 q 371 16 337 16 q 493 77 446 16 q 539 231 539 138 l 539 478 q 536 519 539 505 q 521 542 533 533 q 489 553 509 551 q 431 555 469 555 l 431 599 l 635 614 l 635 121 q 653 56 635 69 q 743 43 671 43 l 743 0 m 597 736 l 579 717 l 386 867 l 193 717 l 175 736 l 386 961 l 597 736 z "},"":{"ha":772,"x_min":45,"x_max":743,"o":"m 743 0 l 543 -16 l 543 110 q 364 -16 485 -16 q 261 0 304 -16 q 198 35 219 15 q 167 92 178 54 q 154 152 156 129 q 153 220 153 176 l 153 428 q 153 469 153 458 q 151 499 153 481 q 148 523 149 518 q 139 537 146 528 q 127 548 132 547 q 107 552 121 549 q 81 555 93 555 q 45 555 68 555 l 45 599 l 249 614 l 249 153 q 250 110 249 126 q 258 74 252 94 q 278 42 265 54 q 314 23 290 31 q 371 16 337 16 q 493 77 446 16 q 539 231 539 138 l 539 478 q 536 519 539 505 q 521 542 533 533 q 489 553 509 551 q 431 555 469 555 l 431 599 l 635 614 l 635 121 q 653 56 635 69 q 743 43 671 43 l 743 0 m 311 886 q 320 876 311 886 q 330 840 330 866 q 312 794 330 814 q 262 774 293 774 q 215 794 235 774 q 196 840 196 814 q 215 885 196 865 q 264 905 233 905 q 311 886 291 905 m 558 886 q 568 876 558 886 q 578 840 578 866 q 559 794 578 814 q 510 774 541 774 q 463 794 482 774 q 443 840 443 814 q 462 885 443 865 q 511 905 481 905 q 558 886 538 905 z "},"":{"ha":733,"x_min":26,"x_max":705,"o":"m 705 555 q 576 467 613 555 l 332 -126 q 258 -240 302 -195 q 154 -285 214 -285 q 64 -252 102 -285 q 26 -172 26 -219 q 44 -128 26 -143 q 85 -113 62 -113 q 126 -129 109 -113 q 143 -171 143 -144 q 131 -209 143 -191 q 89 -229 118 -226 q 154 -254 115 -254 q 202 -243 180 -254 q 239 -217 224 -231 q 270 -175 254 -202 q 293 -130 285 -148 q 313 -82 300 -113 l 347 0 l 139 507 q 129 528 134 519 q 115 542 124 536 q 101 550 106 547 q 80 554 95 553 q 57 555 66 555 q 26 555 48 555 l 26 599 q 161 595 89 595 l 313 599 l 313 555 q 289 555 298 555 q 265 551 279 554 q 242 540 250 548 q 235 519 235 532 q 243 494 235 515 l 397 121 l 538 463 q 546 496 546 483 q 529 538 546 522 q 481 555 512 555 l 481 599 l 602 595 q 705 599 657 595 l 705 555 m 539 920 q 515 878 539 896 l 304 708 l 281 733 l 447 946 q 489 970 463 970 q 524 954 508 970 q 539 920 539 939 z "},"":{"ha":772,"x_min":39,"x_max":724,"o":"m 724 300 q 681 139 724 212 q 567 25 638 66 q 414 -16 496 -16 q 325 5 366 -16 q 266 47 284 26 q 243 82 248 68 l 243 69 l 243 -164 q 244 -188 243 -178 q 248 -204 246 -197 q 257 -215 250 -211 q 269 -222 264 -219 q 290 -225 274 -224 q 316 -226 305 -226 q 351 -227 326 -227 l 351 -269 l 195 -265 l 39 -269 l 39 -227 q 74 -226 64 -227 q 100 -225 85 -226 q 121 -222 116 -224 q 133 -215 126 -219 q 142 -204 140 -211 q 145 -188 144 -197 q 147 -164 147 -178 l 147 828 q 144 869 147 855 q 129 892 141 883 q 97 903 117 901 q 39 905 77 905 l 39 949 l 239 964 l 239 522 q 267 550 254 538 q 304 579 280 562 q 362 605 329 595 q 433 614 395 614 q 577 572 510 614 q 684 458 644 531 q 724 300 724 386 m 608 301 q 568 494 608 431 q 422 583 513 583 q 377 578 400 583 q 318 552 353 573 q 258 494 283 530 q 245 471 247 478 q 243 444 243 465 l 243 158 q 245 130 243 138 q 262 100 248 121 q 408 16 317 16 q 500 41 460 16 q 566 104 540 67 q 608 301 608 171 z "},"":{"ha":733,"x_min":26,"x_max":705,"o":"m 705 555 q 576 467 613 555 l 332 -126 q 258 -240 302 -195 q 154 -285 214 -285 q 64 -252 102 -285 q 26 -172 26 -219 q 44 -128 26 -143 q 85 -113 62 -113 q 126 -129 109 -113 q 143 -171 143 -144 q 131 -209 143 -191 q 89 -229 118 -226 q 154 -254 115 -254 q 202 -243 180 -254 q 239 -217 224 -231 q 270 -175 254 -202 q 293 -130 285 -148 q 313 -82 300 -113 l 347 0 l 139 507 q 129 528 134 519 q 115 542 124 536 q 101 550 106 547 q 80 554 95 553 q 57 555 66 555 q 26 555 48 555 l 26 599 q 161 595 89 595 l 313 599 l 313 555 q 289 555 298 555 q 265 551 279 554 q 242 540 250 548 q 235 519 235 532 q 243 494 235 515 l 397 121 l 538 463 q 546 496 546 483 q 529 538 546 522 q 481 555 512 555 l 481 599 l 602 595 q 705 599 657 595 l 705 555 m 311 840 q 292 794 311 814 q 243 774 273 774 q 196 794 215 774 q 176 840 176 814 q 195 885 176 865 q 244 905 214 905 q 291 885 271 905 q 311 840 311 865 m 538 886 q 548 876 538 886 q 558 840 558 866 q 539 794 558 814 q 490 774 521 774 q 443 794 463 774 q 424 840 424 814 q 443 885 424 865 q 492 905 461 905 q 538 886 519 905 z "},"":{"ha":1408,"x_min":97,"x_max":1368,"o":"m 1368 358 l 1310 0 l 772 0 q 665 -16 732 0 q 555 -31 594 -31 q 383 7 467 -31 q 237 111 300 45 q 135 271 174 176 q 97 471 97 365 q 135 673 97 578 q 237 836 174 769 q 383 941 300 902 q 555 979 467 979 q 653 965 592 979 q 772 949 726 949 l 1291 949 l 1329 636 l 1295 636 q 1282 722 1289 688 q 1264 789 1276 755 q 1235 841 1252 822 q 1192 877 1218 861 q 1129 899 1166 892 q 1043 905 1093 905 l 888 905 q 830 896 841 905 q 819 850 819 886 l 819 514 l 970 514 q 1053 522 1022 514 q 1101 551 1084 530 q 1123 600 1118 572 q 1128 676 1128 627 l 1162 676 l 1162 309 l 1128 309 q 1123 385 1128 357 q 1101 434 1118 412 q 1053 463 1084 455 q 970 471 1022 471 l 819 471 l 819 98 q 830 53 819 62 q 888 43 841 43 l 1040 43 q 1142 51 1099 43 q 1215 80 1185 58 q 1263 121 1244 101 q 1295 185 1281 142 q 1316 261 1309 229 q 1333 358 1322 294 l 1368 358 m 714 473 q 707 803 714 736 q 697 860 703 838 q 677 905 691 882 q 634 938 663 927 q 561 949 605 949 q 400 890 474 949 q 281 726 326 831 q 236 492 236 621 q 280 243 236 357 q 398 65 323 130 q 561 0 473 0 q 631 10 604 0 q 675 42 659 20 q 697 88 690 64 q 708 151 704 113 q 714 473 714 223 z "},"":{"ha":1080,"x_min":39,"x_max":1040,"o":"m 1040 165 q 1033 136 1040 156 q 1009 90 1026 117 q 969 40 993 64 q 907 1 945 17 q 825 -16 869 -16 q 689 21 756 -16 q 579 129 623 57 q 478 25 542 66 q 335 -16 414 -16 q 188 26 256 -16 q 79 142 120 68 q 39 304 39 216 q 63 430 39 370 q 127 531 87 490 q 222 598 168 573 q 335 623 277 623 q 474 584 411 623 q 578 482 538 545 q 680 586 618 550 q 808 623 741 623 q 979 546 918 623 q 1040 350 1040 470 q 1035 325 1040 329 q 1006 321 1029 321 l 627 321 q 637 210 627 259 q 664 129 648 160 q 703 76 680 98 q 744 43 726 54 q 785 27 763 33 q 815 20 806 21 q 831 20 823 20 q 939 59 892 20 q 1002 154 985 98 q 1010 177 1007 172 q 1022 182 1013 182 q 1040 165 1040 182 m 949 350 q 947 381 947 370 q 942 421 946 392 q 933 468 939 450 q 918 513 928 487 q 892 554 907 538 q 856 580 878 569 q 807 591 834 591 q 770 586 789 591 q 726 564 751 581 q 682 523 702 548 q 647 453 663 498 q 628 350 632 408 l 949 350 m 530 310 q 521 411 530 366 q 497 484 511 456 q 462 534 482 513 q 424 566 441 555 q 386 583 406 576 q 355 590 366 589 q 336 591 345 591 q 315 590 326 591 q 283 582 303 589 q 247 565 264 576 q 210 533 229 554 q 177 483 191 511 q 155 410 163 454 q 146 310 146 365 q 155 205 146 252 q 178 128 164 158 q 212 76 192 98 q 249 42 231 54 q 286 25 266 31 q 316 17 305 18 q 336 16 327 16 q 361 18 348 16 q 394 28 375 20 q 432 48 414 35 q 468 83 450 60 q 500 136 486 106 q 522 211 513 165 q 530 310 530 256 z "},"":{"ha":1042,"x_min":16,"x_max":1025,"o":"m 1025 905 q 847 815 902 905 l 579 379 l 579 111 q 581 77 579 87 q 594 57 583 66 q 628 45 606 48 q 690 43 650 43 l 722 43 l 722 0 q 519 4 672 4 q 317 0 367 4 l 317 43 l 350 43 q 412 45 391 43 q 445 57 434 48 q 458 76 456 66 q 460 109 460 86 l 460 379 l 168 854 q 145 884 155 876 q 111 899 136 893 q 40 905 86 905 l 16 905 l 16 949 l 196 945 q 401 949 351 945 l 401 905 q 328 898 351 905 q 304 871 304 891 q 314 847 304 861 l 566 437 l 794 810 q 808 851 808 831 q 789 890 808 874 q 729 905 769 905 l 729 949 l 889 945 q 1025 949 960 945 l 1025 905 m 423 1135 q 433 1125 423 1135 q 443 1089 443 1115 q 424 1043 443 1063 q 375 1022 406 1022 q 328 1042 348 1022 q 309 1089 309 1063 q 327 1134 309 1114 q 376 1154 346 1154 q 423 1135 404 1154 m 715 1135 q 725 1125 715 1135 q 734 1089 734 1115 q 716 1043 734 1063 q 667 1022 697 1022 q 620 1042 640 1022 q 600 1089 600 1063 q 619 1134 600 1114 q 668 1154 637 1154 q 715 1135 695 1154 z "},"":{"ha":694,"x_min":136,"x_max":558,"o":"m 558 736 l 541 717 l 347 867 l 154 717 l 136 736 l 347 961 l 558 736 z "},"":{"ha":694,"x_min":117,"x_max":579,"o":"m 579 884 q 532 832 545 846 q 499 802 519 819 q 464 780 479 785 q 429 775 449 775 q 343 807 396 775 q 253 842 283 842 q 197 825 226 842 q 154 792 169 808 l 139 775 l 117 796 q 203 883 176 863 q 267 904 230 904 q 353 872 300 904 q 443 838 413 838 q 498 854 470 838 q 542 887 527 871 l 557 904 l 579 884 z "},"":{"ha":631,"x_min":0,"x_max":0,"o":""},"":{"ha":1263,"x_min":0,"x_max":0,"o":""},"":{"ha":631,"x_min":0,"x_max":0,"o":""},"":{"ha":1263,"x_min":0,"x_max":0,"o":""},"":{"ha":420,"x_min":0,"x_max":0,"o":""},"":{"ha":315,"x_min":0,"x_max":0,"o":""},"":{"ha":210,"x_min":0,"x_max":0,"o":""},"":{"ha":210,"x_min":0,"x_max":0,"o":""},"":{"ha":157,"x_min":0,"x_max":0,"o":""},"":{"ha":252,"x_min":0,"x_max":0,"o":""},"":{"ha":70,"x_min":0,"x_max":0,"o":""},"":{"ha":462,"x_min":16,"x_max":383,"o":"m 383 260 l 16 260 l 16 340 l 383 340 l 383 260 z "},"":{"ha":462,"x_min":16,"x_max":383,"o":"m 383 260 l 16 260 l 16 340 l 383 340 l 383 260 z "},"":{"ha":462,"x_min":16,"x_max":383,"o":"m 383 260 l 16 260 l 16 340 l 383 340 l 383 260 z "},"":{"ha":694,"x_min":0,"x_max":693,"o":"m 693 354 l 0 354 l 0 385 l 693 385 l 693 354 z "},"":{"ha":1389,"x_min":0,"x_max":1388,"o":"m 1388 354 l 0 354 l 0 385 l 1388 385 l 1388 354 z "},"":{"ha":386,"x_min":100,"x_max":267,"o":"m 267 621 q 247 569 267 591 q 193 547 228 547 q 125 588 150 547 q 100 693 100 629 q 112 784 100 739 q 141 859 124 828 q 178 915 159 890 q 211 950 197 939 q 231 962 225 962 q 240 958 236 962 q 244 947 244 954 q 228 924 244 940 q 131 693 131 828 l 134 668 q 138 672 136 669 q 193 694 160 694 q 248 672 229 694 q 267 621 267 650 z "},"":{"ha":386,"x_min":119,"x_max":286,"o":"m 286 818 q 274 727 286 772 q 244 652 262 683 q 208 596 227 621 q 175 561 189 572 q 155 549 161 549 q 146 553 150 549 q 142 564 142 557 q 158 587 142 571 q 256 818 256 684 l 253 843 q 249 839 250 842 q 193 817 227 817 q 139 839 158 817 q 119 890 119 861 q 139 942 119 920 q 193 964 159 964 q 261 923 237 964 q 286 818 286 882 z "},"":{"ha":386,"x_min":110,"x_max":277,"o":"m 277 -1 q 264 -92 277 -47 q 235 -168 252 -136 q 199 -223 218 -199 q 165 -259 180 -247 q 146 -271 151 -271 q 136 -267 140 -271 q 132 -256 132 -262 q 149 -232 132 -248 q 245 -1 245 -136 l 243 24 q 239 20 240 22 q 183 -3 216 -3 q 129 19 148 -3 q 110 71 110 41 q 129 122 110 100 q 183 144 149 144 q 252 104 227 144 q 277 -1 277 63 z "},"":{"ha":655,"x_min":100,"x_max":536,"o":"m 267 621 q 247 569 267 591 q 193 547 228 547 q 125 588 150 547 q 100 693 100 629 q 112 784 100 739 q 141 859 124 828 q 178 915 159 890 q 211 950 197 939 q 231 962 225 962 q 240 958 236 962 q 244 947 244 954 q 228 924 244 940 q 131 693 131 828 l 134 668 q 138 672 136 669 q 193 694 160 694 q 248 672 229 694 q 267 621 267 650 m 536 621 q 517 569 536 591 q 463 547 497 547 q 394 588 419 547 q 370 693 370 629 q 381 784 370 739 q 411 859 393 828 q 447 915 429 890 q 480 950 466 939 q 500 962 494 962 q 510 958 505 962 q 514 947 514 954 q 497 924 514 941 q 400 693 400 828 l 403 668 q 407 672 406 669 q 463 694 429 694 q 517 672 498 694 q 536 621 536 650 z "},"":{"ha":655,"x_min":119,"x_max":555,"o":"m 286 818 q 274 727 286 772 q 244 652 262 683 q 208 596 227 621 q 175 561 189 572 q 155 549 161 549 q 146 553 150 549 q 142 564 142 557 q 158 587 142 571 q 256 818 256 684 l 253 843 q 249 839 250 842 q 193 817 227 817 q 139 839 158 817 q 119 890 119 861 q 139 942 119 920 q 193 964 159 964 q 261 923 237 964 q 286 818 286 882 m 555 818 q 544 727 555 772 q 514 652 532 683 q 478 596 496 621 q 445 561 459 572 q 425 549 431 549 q 415 553 420 549 q 411 564 411 557 q 428 587 411 570 q 525 818 525 683 l 522 843 q 518 839 519 842 q 463 817 496 817 q 408 839 427 817 q 389 890 389 861 q 408 942 389 920 q 463 964 428 964 q 531 923 506 964 q 555 818 555 882 z "},"":{"ha":655,"x_min":119,"x_max":555,"o":"m 286 -1 q 274 -92 286 -47 q 244 -168 262 -136 q 208 -223 227 -199 q 175 -259 189 -247 q 155 -271 161 -271 q 146 -267 150 -271 q 142 -256 142 -262 q 158 -232 142 -248 q 256 -1 256 -136 l 253 24 q 249 20 250 22 q 193 -3 227 -3 q 139 19 158 -3 q 119 71 119 41 q 139 122 119 100 q 193 144 159 144 q 261 104 237 144 q 286 -1 286 63 m 555 -1 q 544 -92 555 -47 q 514 -168 532 -136 q 478 -223 496 -199 q 445 -259 459 -247 q 425 -271 431 -271 q 415 -267 420 -271 q 411 -256 411 -262 q 428 -232 411 -249 q 525 -1 525 -136 l 522 24 q 518 20 519 22 q 463 -3 496 -3 q 408 19 427 -3 q 389 71 389 41 q 408 122 389 100 q 463 144 428 144 q 531 104 506 144 q 555 -1 555 63 z "},"":{"ha":1080,"x_min":340,"x_max":741,"o":"m 682 462 q 711 432 682 462 q 741 321 741 403 q 682 180 741 239 q 541 121 623 121 q 399 180 458 121 q 340 321 340 239 q 399 462 340 403 q 541 521 458 521 q 682 462 623 521 z "},"":{"ha":930,"x_min":119,"x_max":811,"o":"m 245 125 q 256 115 245 125 q 267 74 267 104 q 245 22 267 44 q 193 0 223 0 q 141 22 163 0 q 119 74 119 44 q 141 125 119 104 q 193 147 163 147 q 245 125 223 147 m 517 125 q 528 115 517 125 q 539 74 539 104 q 517 22 539 44 q 465 0 495 0 q 414 22 435 0 q 392 74 392 44 q 414 125 392 104 q 465 147 435 147 q 517 125 495 147 m 789 125 q 800 115 789 125 q 811 74 811 104 q 789 22 811 44 q 737 0 767 0 q 686 22 707 0 q 664 74 664 44 q 686 125 664 104 q 737 147 707 147 q 789 125 767 147 z "},"":{"ha":252,"x_min":0,"x_max":0,"o":""},"":{"ha":540,"x_min":154,"x_max":386,"o":"m 385 17 q 381 5 386 11 q 371 0 377 0 l 368 0 q 355 9 358 0 q 158 326 292 190 q 154 336 154 328 q 158 346 154 342 q 355 663 292 480 q 368 671 357 671 l 371 671 q 381 666 377 671 q 385 654 385 661 q 254 336 345 486 q 385 17 345 188 z "},"":{"ha":540,"x_min":153,"x_max":386,"o":"m 386 336 q 382 326 386 330 q 184 9 248 190 q 172 0 182 0 l 170 0 q 158 5 162 0 q 155 17 153 11 q 286 336 193 186 q 155 654 193 487 q 158 666 153 661 q 170 671 162 671 l 172 671 q 184 663 182 671 q 382 346 248 480 q 386 336 386 338 z "},"":{"ha":315,"x_min":0,"x_max":0,"o":""},"":{"ha":871,"x_min":75,"x_max":793,"o":"m 793 750 q 779 736 793 736 l 765 736 q 751 749 754 736 q 692 883 743 828 q 570 937 642 937 q 454 902 507 937 q 366 807 401 866 q 300 574 309 713 l 704 574 q 714 568 710 574 q 717 555 719 562 l 714 542 q 700 532 709 532 l 298 532 l 297 475 l 298 418 l 660 418 q 670 412 666 418 q 672 400 674 406 l 669 386 q 656 376 665 376 l 300 376 q 366 143 309 237 q 454 47 401 83 q 570 11 507 11 q 692 66 642 11 q 751 200 743 121 q 765 212 754 212 l 779 212 q 793 199 793 212 l 793 -17 q 779 -31 793 -31 l 775 -31 q 765 -26 767 -31 l 711 32 q 555 -31 645 -31 q 400 9 474 -31 q 271 118 326 50 q 163 376 188 224 l 90 376 q 79 382 83 376 q 77 393 75 387 l 81 407 q 93 418 83 418 l 158 418 q 155 475 155 454 q 158 532 155 492 l 90 532 q 79 537 83 532 q 77 549 75 543 l 81 562 q 93 574 83 574 l 163 574 q 271 831 188 724 q 399 939 326 899 q 555 979 473 979 q 711 917 645 979 l 765 975 q 775 979 767 979 l 779 979 q 793 965 793 979 l 793 750 z "},"":{"ha":1365,"x_min":31,"x_max":1303,"o":"m 571 761 l 550 761 q 544 820 547 798 q 534 863 541 842 q 518 893 528 884 q 493 911 509 903 q 454 921 476 919 q 400 924 433 924 q 353 922 361 924 q 340 913 342 920 q 338 890 338 906 l 338 452 q 341 427 338 434 q 363 416 345 420 q 425 411 382 411 l 458 411 l 458 385 q 300 387 424 387 q 143 385 176 387 l 143 411 l 176 411 q 238 416 219 411 q 260 427 257 420 q 264 452 264 434 l 264 890 q 261 913 264 907 q 245 922 258 920 q 201 924 237 924 q 147 921 169 924 q 109 911 125 919 q 83 893 92 903 q 67 863 74 884 q 57 820 60 842 q 52 761 54 798 l 31 761 l 46 949 l 555 949 l 571 761 m 1303 385 q 1185 387 1272 387 q 1064 385 1095 387 l 1064 411 l 1084 411 q 1130 415 1116 411 q 1147 426 1144 419 q 1150 450 1150 433 l 1150 928 l 1149 928 l 945 401 q 943 399 944 401 q 929 385 936 385 q 913 403 921 385 l 711 922 l 711 472 q 713 452 711 460 q 722 434 715 445 q 748 417 729 422 q 798 411 767 411 l 798 385 l 699 387 l 602 385 l 602 411 q 651 417 632 411 q 677 434 670 422 q 686 452 684 445 q 688 472 688 460 l 688 889 q 685 913 688 907 q 668 924 682 920 q 623 928 654 928 l 602 928 l 602 954 l 743 954 q 762 951 758 954 q 772 936 766 949 l 953 469 l 1135 939 q 1142 952 1139 949 q 1162 954 1146 954 l 1303 954 l 1303 928 l 1283 928 q 1238 924 1251 928 q 1221 913 1224 920 q 1218 889 1218 907 l 1218 450 q 1228 418 1218 425 q 1283 411 1238 411 l 1303 411 l 1303 385 z "},"":{"ha":597,"x_min":0,"x_max":597,"o":"m 0 597 l 597 597 l 597 0 l 0 0 l 0 597 z "},"":{"ha":772,"x_min":37,"x_max":732,"o":"m 732 0 l 578 4 l 424 0 l 424 43 q 459 43 448 43 q 486 44 471 43 q 506 48 500 45 q 518 55 511 51 q 527 66 525 59 q 530 82 529 73 q 532 106 532 92 l 532 481 q 518 541 532 526 q 458 555 505 555 l 239 555 l 239 106 q 240 79 239 90 q 247 62 241 69 q 257 51 252 54 q 278 45 262 47 q 306 43 294 43 q 347 43 319 43 l 347 0 l 193 4 l 39 0 l 39 43 q 80 43 67 43 q 108 45 92 43 q 129 51 123 47 q 139 62 134 54 q 146 79 145 69 q 147 106 147 90 l 147 555 l 37 555 l 37 599 l 147 599 l 147 757 q 165 838 147 800 q 214 901 184 875 q 282 944 243 926 q 361 971 321 962 q 441 979 402 979 q 570 940 519 979 q 621 839 621 900 q 602 792 621 810 q 557 775 583 775 q 514 791 533 775 q 494 839 494 807 q 508 882 494 863 q 559 903 522 901 q 507 937 540 925 q 440 949 474 949 q 372 938 406 949 q 306 904 337 926 q 254 843 274 882 q 235 755 235 804 l 235 599 l 399 599 q 424 600 421 599 q 449 603 427 602 l 624 615 l 624 106 q 625 82 624 92 q 629 66 627 73 q 637 55 631 59 q 650 48 644 51 q 670 44 655 45 q 696 43 685 43 q 732 43 707 43 l 732 0 z "},"":{"ha":772,"x_min":37,"x_max":732,"o":"m 732 0 l 578 4 l 424 0 l 424 43 q 459 43 448 43 q 486 44 471 43 q 506 48 500 45 q 518 55 511 51 q 527 66 525 59 q 530 82 529 73 q 532 106 532 92 l 532 555 l 239 555 l 239 106 q 240 79 239 90 q 247 62 241 69 q 257 51 252 54 q 278 45 262 47 q 306 43 294 43 q 347 43 319 43 l 347 0 l 193 4 l 39 0 l 39 43 q 80 43 67 43 q 108 45 92 43 q 129 51 123 47 q 139 62 134 54 q 146 79 145 69 q 147 106 147 90 l 147 555 l 37 555 l 37 599 l 147 599 l 147 757 q 192 878 147 826 q 302 955 236 930 q 444 979 369 979 q 561 960 516 979 q 574 956 569 956 l 624 964 l 624 106 q 625 82 624 92 q 629 66 627 73 q 637 55 631 59 q 650 48 644 51 q 670 44 655 45 q 696 43 685 43 q 732 43 707 43 l 732 0 m 532 599 l 532 827 q 497 880 497 838 q 532 936 497 920 q 443 949 491 949 q 297 898 359 949 q 235 755 235 846 l 235 599 l 532 599 z "},"":{"ha":1156,"x_min":37,"x_max":1117,"o":"m 1117 0 l 962 4 l 808 0 l 808 43 q 849 43 837 43 q 878 45 862 43 q 898 51 893 47 q 909 62 903 54 q 916 79 915 69 q 917 106 917 90 l 917 481 q 903 540 917 525 q 843 555 889 555 l 624 555 l 624 106 q 625 82 624 92 q 629 66 627 73 q 637 55 631 59 q 650 48 644 51 q 670 44 655 45 q 696 43 685 43 q 732 43 707 43 l 732 0 l 578 4 l 424 0 l 424 43 q 459 43 448 43 q 486 44 471 43 q 506 48 500 45 q 518 55 511 51 q 527 66 525 59 q 530 82 529 73 q 532 106 532 92 l 532 555 l 239 555 l 239 106 q 240 79 239 90 q 247 62 241 69 q 257 51 252 54 q 278 45 262 47 q 306 43 294 43 q 347 43 319 43 l 347 0 l 193 4 l 39 0 l 39 43 q 80 43 67 43 q 108 45 92 43 q 129 51 123 47 q 139 62 134 54 q 146 79 145 69 q 147 106 147 90 l 147 555 l 37 555 l 37 599 l 147 599 l 147 757 q 165 838 147 800 q 213 901 183 875 q 280 944 242 926 q 359 971 319 962 q 440 979 400 979 q 534 959 492 979 q 600 903 576 939 q 630 924 613 913 q 676 948 647 935 q 744 971 705 962 q 827 979 784 979 q 955 940 904 979 q 1006 839 1006 900 q 987 792 1006 810 q 942 775 968 775 q 899 791 918 775 q 879 839 879 808 q 893 882 879 863 q 945 903 907 901 q 892 937 925 925 q 825 949 859 949 q 771 942 798 949 q 716 920 743 935 q 667 883 688 905 q 632 828 646 861 q 619 755 619 795 l 619 599 l 783 599 q 808 600 806 599 l 954 611 l 1008 615 l 1008 106 q 1009 79 1008 90 q 1016 62 1010 69 q 1027 51 1022 54 q 1048 45 1032 47 q 1076 43 1063 43 q 1117 43 1088 43 l 1117 0 m 557 903 q 437 949 512 949 q 385 942 412 949 q 331 921 358 936 q 282 884 303 905 q 248 829 261 862 q 235 755 235 795 l 235 599 l 532 599 l 532 779 q 502 801 513 785 q 490 839 490 817 q 557 903 490 899 z "},"":{"ha":1156,"x_min":37,"x_max":1117,"o":"m 1117 0 l 962 4 l 808 0 l 808 43 q 849 43 837 43 q 878 45 862 43 q 898 51 893 47 q 909 62 903 54 q 916 79 915 69 q 917 106 917 90 l 917 555 l 624 555 l 624 106 q 625 82 624 92 q 629 66 627 73 q 637 55 631 59 q 650 48 644 51 q 670 44 655 45 q 696 43 685 43 q 732 43 707 43 l 732 0 l 578 4 l 424 0 l 424 43 q 459 43 448 43 q 486 44 471 43 q 506 48 500 45 q 518 55 511 51 q 527 66 525 59 q 530 82 529 73 q 532 106 532 92 l 532 555 l 239 555 l 239 106 q 240 79 239 90 q 247 62 241 69 q 257 51 252 54 q 278 45 262 47 q 306 43 294 43 q 347 43 319 43 l 347 0 l 193 4 l 39 0 l 39 43 q 80 43 67 43 q 108 45 92 43 q 129 51 123 47 q 139 62 134 54 q 146 79 145 69 q 147 106 147 90 l 147 555 l 37 555 l 37 599 l 147 599 l 147 757 q 174 854 147 810 q 243 924 200 897 q 338 965 287 951 q 441 979 389 979 q 539 962 493 979 q 606 907 586 945 q 829 979 696 979 q 946 960 901 979 q 958 956 954 956 l 1008 964 l 1008 106 q 1009 79 1008 90 q 1016 62 1010 69 q 1027 51 1022 54 q 1048 45 1032 47 q 1076 43 1063 43 q 1117 43 1088 43 l 1117 0 m 547 922 q 440 949 505 949 q 383 942 412 949 q 328 919 355 935 q 280 882 300 904 q 247 827 260 860 q 235 755 235 795 l 235 599 l 532 599 l 532 757 q 536 806 532 787 q 497 861 497 820 q 508 897 497 882 q 528 916 518 911 q 547 922 537 920 m 917 599 l 917 827 q 882 880 882 839 q 917 936 882 920 q 828 949 876 949 q 682 898 744 949 q 619 755 619 846 l 619 599 l 917 599 z "}}}
